<svg width="104" height="88" viewBox="0 0 104 88" fill="none" xmlns="http://www.w3.org/2000/svg">
<path fill-rule="evenodd" clip-rule="evenodd" d="M19.2729 60.2329C19.2314 60.2534 19.1842 60.2945 19.1737 60.3069L19.2209 60.2534C19.3014 60.1646 19.3038 60.1227 19.421 59.9467C19.4641 59.8686 19.4983 59.7831 19.5227 59.6918C19.5682 59.6104 19.5975 59.5166 19.6024 59.4163L19.6016 59.3398C19.4958 61.4655 19.5707 59.9286 19.5463 60.4031H19.5438H19.5381L19.5268 60.4023L19.4828 60.4014L19.3941 60.3981L19.2176 60.3916L18.8539 60.4014C18.3625 60.4269 17.8484 60.5067 17.3203 60.6202C16.2595 60.8447 15.1522 61.2098 13.9391 61.5074C13.4494 61.6111 12.9279 61.8232 12.2111 61.986C11.8572 62.0617 11.4577 62.1283 10.9729 62.0946C10.4994 62.0674 9.88186 61.88 9.43358 61.4639C9.33026 61.3627 9.23019 61.2566 9.13581 61.1465C9.02029 60.9836 8.91615 60.8134 8.83479 60.6185C8.7632 60.3768 8.69649 60.1128 8.72903 59.8661C8.75181 59.6054 8.82259 59.3571 8.9129 59.2017C9.29365 58.5151 9.66789 58.3317 9.98193 58.1014C10.6157 57.7084 11.1885 57.4724 11.7637 57.2339L13.2435 56.6426C13.4437 56.5514 13.7 56.4601 13.8488 56.2479C13.9123 56.141 13.8952 56.007 13.8277 55.9445C13.7618 55.8779 13.6715 55.8647 13.5852 55.8623C13.233 55.8664 12.8262 56.016 12.3153 56.1271C12.1721 56.1575 12.0923 56.1739 11.858 56.2126C11.5106 56.2677 11.0461 56.3277 10.6092 56.3261C10.1593 56.3211 9.66464 56.2669 9.16104 56.0432C8.65174 55.8187 8.20021 55.4018 7.94556 54.8689C7.80644 54.5967 7.71288 54.2061 7.7804 53.8057C7.86013 53.4126 8.07085 53.0829 8.27424 52.8921C8.69242 52.4793 9.0992 52.2934 9.49135 52.1117C10.2773 51.7935 11.0379 51.6043 11.7929 51.43C13.1044 51.1529 14.42 50.8733 15.7323 50.5954L16.2049 50.4827C16.3734 50.4383 16.388 50.4309 16.4824 50.3997C16.6337 50.3479 16.7826 50.2903 16.916 50.2072C17.0462 50.1357 17.1845 49.9852 17.0974 49.8265C17.0535 49.6703 16.9193 49.5625 16.7875 49.4877C16.6117 49.389 16.4132 49.3578 16.2237 49.3323C15.9145 49.2895 15.4597 49.2764 15.0716 49.2813C14.2556 49.2953 13.4347 49.3874 12.5805 49.4861C10.8573 49.6374 9.231 49.829 7.61688 50.1867C6.61049 50.361 6.59584 50.0321 7.34596 49.3265C8.092 48.6325 9.76715 47.8628 11.7905 47.6885C12.6146 47.617 13.5258 47.492 14.4541 47.4574C14.9244 47.4459 15.393 47.4344 15.8893 47.4755C16.0121 47.4829 16.135 47.4911 16.2635 47.5101L16.475 47.538C16.5784 47.5503 16.6833 47.5635 16.7891 47.589C17.1885 47.7099 17.636 47.7781 17.9671 47.9763C18.7034 48.2995 19.1403 48.843 19.3258 49.4746L19.4348 49.9663C19.4015 50.1332 19.4299 50.3067 19.3836 50.4687C19.2778 50.7787 19.1371 51.0468 18.9003 51.2836C18.4382 51.7672 17.6116 52.0657 16.8371 52.3716C16.3823 52.5237 15.9446 52.6487 15.5085 52.7638C13.7756 53.1577 12.0256 53.434 10.5767 53.9356C10.2284 54.0557 9.89976 54.2028 9.75982 54.2991C9.74518 54.3089 9.74599 54.313 9.7346 54.318L9.72077 54.3229C9.72647 54.3287 9.70694 54.3213 9.68742 54.3007L9.64674 54.2612C9.58979 54.2103 9.52145 54.1667 9.44253 54.1338C9.37094 54.1042 9.39128 54.1017 9.34978 54.0902C9.33514 54.0861 9.31887 54.0828 9.30016 54.082C9.31236 54.0844 9.32944 54.0861 9.34246 54.0861C9.37826 54.0861 9.36768 54.0803 9.42463 54.0729C9.58247 54.0803 9.77203 53.9249 9.73298 53.989C9.76796 54.0918 9.83467 54.1864 10.0218 54.2686C10.2227 54.3468 10.5514 54.3829 10.9102 54.3673C11.0209 54.3574 11.1274 54.3583 11.243 54.3418C11.374 54.3229 11.4252 54.3287 11.6636 54.2777C12.0403 54.2119 12.517 54.0902 12.9637 53.9644C13.8627 53.7111 14.8072 53.4044 15.5801 53.2325C16.3603 53.0549 16.9005 53.0245 17.3472 53.0204C17.7914 53.0228 18.1453 53.059 18.5017 53.1585C18.858 53.258 19.2713 53.4447 19.5756 54.0392C19.6887 54.3287 19.748 54.6485 19.6862 54.8977C19.6464 55.146 19.5544 55.3442 19.4421 55.5194C19.0077 56.197 18.3536 56.7586 17.0445 57.451C16.2847 57.8153 15.4117 58.1828 14.5021 58.5397L13.1296 59.0676L12.2746 59.413C11.7767 59.6268 11.2356 59.885 10.9655 60.1103C10.9403 60.1334 10.8907 60.1654 10.8931 60.1737C10.8842 60.1786 10.8956 60.2304 10.7605 60.1112C10.7076 60.0742 10.6458 60.0446 10.5783 60.024C10.4912 60.0026 10.5278 59.9993 10.488 59.9911C10.4774 59.9845 10.4107 59.9853 10.4335 59.987C10.4595 59.987 10.4798 59.9812 10.4953 59.973C11.0184 59.6474 10.8362 59.8357 10.9468 59.839C11.0656 59.9261 11.5668 59.8916 12.0744 59.7378L12.9206 59.4878L13.8025 59.2634C14.9162 58.9772 16.0691 58.6039 17.3073 58.3761C18.0851 58.2371 18.8295 58.1508 19.7253 58.2149C20.2687 58.3144 20.4233 58.5052 20.6584 58.7009C20.8708 58.8958 21.0343 59.1466 21.1588 59.4369C21.2735 59.7354 21.3239 60.1038 21.241 60.4442C21.1677 60.7912 20.9855 61.0724 20.8008 61.2772C20.0157 62.0568 19.2257 62.2508 18.4667 62.4687C18.0827 62.5814 17.7068 62.6348 17.3277 62.7097C16.9624 62.7763 16.6784 62.8289 16.3449 62.9276C15.3784 63.2137 14.3988 63.6142 13.6162 64.189C13.2289 64.4735 12.8945 64.8033 12.6928 65.147C12.6024 65.3205 12.5349 65.4841 12.504 65.6609C12.4853 65.7547 12.4837 65.8336 12.4861 65.8723C12.4885 65.8797 12.4885 65.8863 12.4869 65.8945C12.4861 65.9011 12.4877 65.8961 12.4877 65.8961C12.4747 65.8978 12.4462 65.9052 12.4267 65.9126C12.3144 65.9627 12.3079 65.9627 12.2729 65.9915C12.2908 65.9742 12.2721 65.9981 12.3299 65.9109C12.3535 65.8706 12.3478 65.8599 12.3763 65.7958C12.3877 65.7744 12.3852 65.7892 12.3893 65.7876C12.4137 65.795 12.4869 65.8016 12.5748 65.7966C12.7562 65.7851 12.9873 65.7374 13.2216 65.6675C13.6934 65.5302 14.1865 65.3304 14.6762 65.1149C15.6745 64.6857 16.606 64.1709 17.7475 63.745C18.6082 63.4604 19.4267 63.2187 20.3159 63.0353C20.7609 62.9481 21.2125 62.8725 21.7136 62.8544C21.9667 62.8495 22.2319 62.8552 22.537 62.9161C22.8396 62.9934 23.2253 63.0838 23.5857 63.5057C23.7272 63.6751 23.7679 63.7688 23.8607 63.907C23.9363 64.0476 24.0063 64.2104 24.064 64.3765C24.1706 64.7358 24.1918 65.1914 24.0461 65.5902C23.7394 66.3731 23.2261 66.7086 22.8201 67.0021C21.9707 67.5523 21.1669 67.8689 20.3745 68.2044C19.7 68.4905 19.0394 68.7709 18.3593 69.0596C15.93 70.1368 15.4711 70.4279 14.6112 70.4345C14.4208 70.4369 14.2101 70.5019 14.0433 70.4912C13.7724 70.4863 13.6812 70.1623 13.9334 69.576C14.1824 68.9938 14.8251 68.2446 15.7713 67.6279C17.1845 66.7472 18.6758 66.1667 20.0255 65.5557C20.6747 65.2638 21.3687 64.9151 21.6453 64.6503C21.6909 64.6174 21.686 64.601 21.7071 64.5829C21.7226 64.573 21.7104 64.5673 21.712 64.5755C21.7844 64.6413 21.8666 64.7013 21.9545 64.7539C22.1554 64.9266 22.3995 64.9381 22.2587 64.925C22.2766 64.9291 22.0863 64.9283 22.0106 64.9694C21.9829 64.9875 21.8373 65.0138 21.7649 65.0483C21.6827 65.0787 21.5615 65.1445 21.603 65.1314C21.5883 65.1207 21.5696 65.101 21.5615 65.082L21.5591 65.0788V65.0779C23.3221 63.805 22.0448 64.726 22.4377 64.4431L22.4296 64.4472L22.4011 64.4678C22.3824 64.4826 22.3678 64.4982 22.3555 64.5138C22.3311 64.5459 22.3295 64.564 22.253 64.6627C22.1985 64.7432 22.1595 64.8279 22.1343 64.9151C22.1237 64.985 22.0277 65.1659 22 65.2893C21.9439 65.4858 21.9691 65.4291 21.9707 65.4356L21.9252 65.4365C21.8804 65.4291 21.7454 65.434 21.6225 65.4422C21.3622 65.457 21.0327 65.5121 20.7024 65.5804C20.0361 65.7169 19.3242 65.9266 18.6261 66.1568C18.1282 66.332 17.3675 66.7151 16.65 67.0367C15.9088 67.3722 15.1538 67.7208 14.2532 68.0177C13.9164 68.1271 13.5551 68.2298 13.102 68.2981C12.8758 68.3318 12.609 68.3532 12.2925 68.3359C11.9508 68.3006 11.5318 68.2488 11.0209 67.9198C10.5002 67.5819 10.1528 66.9775 10.0495 66.5046C9.95508 66.0672 9.96891 65.7152 10.0023 65.443C10.0608 64.9184 10.2577 64.3814 10.492 63.9505C10.9834 63.0871 11.614 62.5526 12.2241 62.1102C12.8416 61.6752 13.4697 61.3529 14.1084 61.0848C14.747 60.8126 15.4003 60.6185 16.091 60.4861C16.8688 60.3398 17.3391 60.3291 17.8402 60.2263C18.3438 60.149 18.7945 59.987 19.0419 59.8636L19.1224 59.8176C19.1297 59.8061 19.1273 59.802 19.1354 59.7987C19.2632 59.8809 19.4299 60.0503 19.5544 60.0725C19.5707 60.0857 19.6228 60.098 19.6431 60.098C19.6171 60.0947 19.6089 60.098 19.5951 60.1021C19.5349 60.1054 19.4901 60.121 19.4487 60.1432C19.3795 60.1638 19.3217 60.1967 19.277 60.2312L19.2729 60.2329Z" fill="#191818"/>
<path fill-rule="evenodd" clip-rule="evenodd" d="M93.6077 13.2125C93.685 13.1385 93.7078 13.1237 93.7517 13.0521C93.7989 12.9847 93.7533 12.9033 93.6858 12.8868C93.6224 12.8589 93.5426 12.8605 93.4629 12.8868L93.3531 12.9329C93.3059 12.9551 93.1692 13.0447 93.0805 13.0965C92.8812 13.2281 92.6802 13.3728 92.4825 13.5348C91.6893 14.1844 90.9424 15.0026 90.2534 15.8669C89.574 16.7525 88.832 17.7672 87.872 18.6595C87.4953 18.9859 87.1463 19.3247 86.5085 19.6027C86.3604 19.6725 86.1318 19.7227 85.943 19.7638C85.7307 19.7984 85.4346 19.7753 85.1929 19.7285C84.9464 19.638 84.6462 19.5023 84.4851 19.3412C84.3249 19.1742 84.1548 19.0098 84.0482 18.8009C83.8107 18.3758 83.7537 17.898 83.7944 17.5288C83.831 17.1456 83.936 16.8594 84.0409 16.579C84.2671 16.0552 84.5421 15.649 84.8236 15.2584C85.4199 14.4755 86.0635 13.8054 86.6948 13.1689C87.0186 12.8358 87.3082 12.5768 87.5791 12.2676C87.872 11.9445 88.1568 11.6213 88.4326 11.294C88.9826 10.6411 89.5081 9.96844 89.9214 9.2851C90.124 8.94795 90.3095 8.596 90.3965 8.2975C90.4421 8.15278 90.4665 8.01463 90.4641 7.94309C90.4706 7.85757 90.4494 7.87155 90.4698 7.85181L90.7993 7.85921C90.7838 7.8921 90.7968 7.87072 90.7862 7.91842C90.774 7.96447 90.77 8.0097 90.7708 8.05246C90.7708 8.0763 90.7854 8.04505 90.77 8.05821C90.7496 8.06643 90.7358 8.06068 90.7065 8.06561C90.6699 8.08041 90.6317 8.09275 90.5926 8.10344C90.4161 8.18485 90.2005 8.30079 89.9889 8.47101C89.5634 8.79254 89.1396 9.19958 88.7295 9.61978C87.9078 10.4684 87.1154 11.3886 86.3214 12.3161L85.0172 13.8424C84.5502 14.3678 84.2158 14.7913 83.4259 15.5306C83.0614 15.8636 82.6757 16.1465 82.2926 16.2813C82.1014 16.3595 81.9094 16.3891 81.7052 16.3973C81.4953 16.3849 81.2894 16.3035 81.0852 16.2361C80.6857 16.0782 80.3318 15.7814 80.1447 15.4006C79.96 15.0216 79.908 14.6013 79.9706 14.1532C80.0349 13.5998 80.2781 12.9164 80.5336 12.4181C80.7647 11.9321 80.9575 11.5966 81.1869 11.2019C81.6368 10.4479 82.1144 9.73408 82.5871 9.02936C83.0598 8.32629 83.5316 7.63554 83.962 6.94891C84.1711 6.60272 84.3883 6.26886 84.5697 5.93994C84.756 5.61677 84.8927 5.26975 84.9497 5.03457C85.0563 4.78952 84.9904 4.64397 85.127 4.52556C85.2263 4.43593 85.629 4.41537 85.9105 4.99592C86.1847 5.56496 86.1383 6.39467 85.9585 7.2507C85.7519 8.10344 85.3353 8.96687 84.7959 9.80316L83.3868 11.9543L82.7441 12.9888C82.4976 13.4148 82.4927 13.4419 82.4951 13.4279C82.4911 13.4296 82.4756 13.446 82.4846 13.4641C82.4886 13.4748 82.4968 13.4764 82.5057 13.4764C82.5244 13.4657 82.4927 13.5093 82.6212 13.3835C83.7423 12.2018 84.848 10.8401 86.0317 9.53097C86.6265 8.8723 87.2448 8.21938 87.942 7.59032C88.2967 7.27702 88.6677 6.967 89.116 6.67591C89.3438 6.52953 89.5862 6.38398 89.906 6.26146C90.1997 6.14305 90.6479 6.03121 91.1735 6.13894C91.3338 6.18581 91.4941 6.2483 91.6494 6.3256L91.8113 6.40783L91.9293 6.55585C92.28 6.99414 92.441 7.58292 92.4028 7.99407C92.393 8.43401 92.2889 8.77116 92.1831 9.08775C91.957 9.70448 91.6657 10.2036 91.3647 10.688C90.7561 11.6427 90.0793 12.4929 89.3885 13.3235C89.0655 13.7215 88.6376 14.1984 88.2821 14.5512C87.9127 14.9245 87.5588 15.2904 87.2252 15.6638C86.8949 16.0355 86.5736 16.4137 86.3197 16.7903C86.0651 17.1522 85.8706 17.5674 85.8568 17.7409C85.8511 17.7779 85.8772 17.7845 85.8186 17.7936C85.7478 17.838 85.9422 17.6727 85.7763 17.824C85.7437 17.8536 85.6827 17.958 85.6868 17.944C85.6811 17.9449 85.6754 17.9498 85.6681 17.958C85.6526 17.9679 85.6396 18.0468 85.6689 17.9218C85.6851 17.8413 85.6599 17.7878 85.6542 17.7146C85.6672 17.7048 85.6803 17.7006 85.6957 17.7015C85.9121 17.6513 86.3742 17.2837 86.7273 16.9244C87.501 16.1596 88.1299 15.26 88.9093 14.2823C89.6871 13.3416 90.5275 12.4378 91.5616 11.6706C91.8284 11.4757 92.0815 11.3096 92.4069 11.1287C92.7722 10.9166 93.1944 10.7422 93.6289 10.632C94.4896 10.3993 95.3504 10.586 95.989 10.9906C96.3625 11.2578 96.6578 11.7364 96.6326 12.2142C96.6383 12.6796 96.4878 13.1508 96.2136 13.6096C96.0777 13.8366 95.9321 14.066 95.7612 14.2806L95.5058 14.603L95.2926 14.8472C95.0128 15.1622 94.7654 15.4089 94.4945 15.6794C93.4287 16.7221 92.3166 17.6587 91.2296 18.6003C90.4307 19.3198 89.5333 20.0089 89.0265 20.744C88.8947 20.9373 88.7661 21.1437 88.688 21.3279C88.6506 21.4167 88.6213 21.503 88.6116 21.5499C88.5644 21.5926 88.7124 21.5458 88.4554 21.5828C88.3846 21.5918 88.3642 21.5828 88.313 21.6009C88.2634 21.6173 88.2202 21.6519 88.2389 21.6346C88.2389 21.6346 88.2349 21.6305 88.2284 21.6362C88.2658 21.5984 88.291 21.5548 88.304 21.5121C88.3154 21.4701 88.3105 21.4397 88.3504 21.3254C88.3716 21.2399 88.3618 21.2991 88.3691 21.2826C88.3854 21.2892 88.4912 21.2785 88.5758 21.2637C88.6815 21.2325 88.7743 21.2275 88.8922 21.1798C89.0061 21.1387 89.1274 21.105 89.1819 21.0771C89.2852 21.031 89.5114 20.8493 89.7074 20.6914L90.3176 20.1733L91.5469 19.0961C92.3735 18.3749 93.2058 17.6554 94.1048 16.9836C94.4555 16.7229 94.8126 16.4672 95.2048 16.2328C95.6026 16.0026 96.0012 15.7682 96.5862 15.6449C96.8742 15.5996 97.2842 15.5561 97.7081 15.8356C98.0994 16.0996 98.2914 16.5395 98.3362 16.8158C98.3818 16.9803 98.3874 17.1119 98.3988 17.2492C98.4021 17.3257 98.4143 17.3693 98.4086 17.4737C98.4013 17.5839 98.3866 17.7089 98.363 17.8051C98.2638 18.1603 98.1279 18.3832 97.9994 18.5994C97.4722 19.4185 96.9002 20.0303 96.3275 20.6667C95.7531 21.2917 95.1706 21.8944 94.5913 22.4923C94.0918 23.021 93.602 23.5391 93.0984 24.0719C92.1693 25.048 91.5844 25.6639 91.1304 26.0405C90.6984 26.4336 90.3843 26.5701 90.0231 26.7041C89.8628 26.7658 89.7099 26.9007 89.5952 26.9829C89.4886 27.0479 89.404 27.0372 89.3234 26.8941C89.2429 26.751 89.203 26.4755 89.2421 26.1573C89.3039 25.4879 89.7335 24.7002 90.3567 23.8433C91.3273 22.6107 92.3833 21.503 93.4304 20.3954C93.9421 19.8493 94.4563 19.3009 94.9729 18.7499C95.221 18.4769 95.461 18.2039 95.6766 17.9375C95.8882 17.6793 96.0997 17.3915 96.1802 17.227L96.1981 17.1851C96.2006 17.1801 96.2063 17.1694 96.2063 17.1694C96.212 17.1744 96.1843 17.167 96.2176 17.1834L96.3421 17.2377C96.4894 17.3084 96.7392 17.347 96.8286 17.3865C96.8848 17.4054 96.9434 17.4169 97.0036 17.4235L97.0963 17.4268L97.1427 17.4243L97.1549 17.4235C97.377 17.4243 95.2723 17.4153 96.1623 17.4178V17.4145C96.1542 17.3775 96.1509 17.3405 96.1509 17.3035C96.1509 17.2821 96.1444 17.3002 96.1444 17.3002C96.212 17.2895 96.3909 17.2385 96.5057 17.1883C96.8791 17.125 97.0573 16.8167 96.9621 16.9721C96.9702 16.9614 96.9157 17.079 96.9165 17.1242C96.9108 17.1801 96.9133 17.236 96.8978 17.3709C96.8921 17.4827 96.9011 17.5929 96.9238 17.6974C96.9328 17.7204 96.9442 17.8988 96.9401 17.8667L96.932 17.8717C96.8677 17.8832 96.5821 18.0115 96.3267 18.1694C96.0606 18.3264 95.7726 18.5336 95.4887 18.7425C94.3359 19.6076 93.196 20.6527 92.0139 21.7078L91.333 22.3064L90.9587 22.6181L90.7472 22.7834L90.6325 22.8697L90.4576 22.9856C90.2289 23.1435 89.8962 23.2759 89.7465 23.3203C89.5797 23.3828 89.3926 23.4437 89.1672 23.4938C88.9858 23.5497 88.6718 23.5876 88.3862 23.6016C88.1649 23.5917 87.9591 23.5703 87.7272 23.5111C87.5653 23.4601 87.4026 23.3878 87.2521 23.3006C87.1089 23.2266 86.9519 23.0999 86.8038 22.9289C86.4914 22.577 86.3962 22.2554 86.3271 21.9101C86.3026 21.753 86.3075 21.6642 86.3051 21.5367C86.3067 21.4241 86.3132 21.2818 86.3287 21.216C86.3848 20.8633 86.4743 20.6174 86.5622 20.4011C86.742 19.9735 86.9348 19.6561 87.1471 19.3412C87.353 19.0353 87.6174 18.7113 87.8647 18.4547C88.108 18.1998 88.3325 17.9843 88.5636 17.7714C89.478 16.9433 90.3689 16.2024 91.2313 15.436C91.6608 15.0553 92.0823 14.6737 92.4858 14.288L93.0699 13.7083L93.3457 13.4172L93.5581 13.1787L93.6077 13.2125Z" fill="#191818"/>
<path fill-rule="evenodd" clip-rule="evenodd" d="M44.5213 38.4727C45.5285 36.3495 46.6 34.2468 47.7764 32.196C48.088 31.6697 48.3353 31.2076 48.7169 30.6369C49.1172 30.035 49.5882 29.5819 50.0633 29.1608C51.0242 28.3361 52.0387 27.684 53.0646 27.0779C54.5616 26.1956 56.0716 25.393 57.61 24.6628C60.3233 23.3816 63.0691 22.2304 65.7791 21.0331C67.1329 20.432 68.4769 19.8169 69.7884 19.1533C71.0958 18.4905 72.3853 17.78 73.5178 16.9257C75.4997 15.3123 77.2757 13.3075 78.9151 11.292C79.9735 9.99028 80.9807 8.63511 82.0172 7.2931C82.5395 6.62621 83.0496 5.94533 83.6142 5.30722C84.1846 4.67322 84.7663 4.04908 85.3699 3.4455C86.1339 2.70213 86.1746 2.94225 85.7962 3.7917C85.6067 4.21683 85.3301 4.80643 84.9835 5.50293C84.8061 5.84748 84.6239 6.22985 84.3977 6.61058C84.1626 6.98309 83.9039 7.37287 83.6159 7.76346C81.5852 10.5379 79.5374 13.3947 77.0438 15.9224C76.4247 16.5573 75.7787 17.1682 75.1132 17.7603C74.4046 18.3886 73.6301 18.9066 72.8661 19.3712C71.3277 20.3037 69.7461 21.0537 68.1547 21.7806C64.3529 23.5033 60.416 25.2582 56.6671 27.1388C54.6356 28.1881 52.5553 29.2809 50.9607 30.7422C50.5458 31.1138 50.2659 31.4765 49.9787 31.9353L49.1009 33.4369C48.5273 34.4458 47.9798 35.4729 47.451 36.5098C46.1452 39.0607 44.9622 41.6929 43.794 44.3259C42.9251 46.3184 42.1017 48.3289 41.5705 50.4069C41.3158 51.4397 41.0034 52.5581 41.5086 53.091C42.0399 53.7225 43.0056 53.6682 43.89 53.2127C45.2763 52.526 46.4739 51.3518 47.5462 50.1528C48.6233 48.9457 49.5296 47.6037 50.3326 46.195C50.6849 45.575 50.9819 44.9443 51.2813 44.2955C51.8361 43.0916 52.1144 42.2693 52.3796 41.711C52.6521 41.1551 52.8685 40.8426 53.1305 40.6025C53.2485 40.4931 53.3738 40.3385 53.4771 40.2785C53.652 40.1774 53.7423 40.4117 53.7643 40.9454C53.7708 41.4725 53.7025 42.3063 53.3738 43.3046C52.4186 46.2764 50.8061 49.069 48.6176 51.4973C47.5104 52.6847 46.3437 53.8442 44.7092 54.7002C44.3008 54.9107 43.8428 55.0949 43.3164 55.1969C43.0463 55.2413 42.7892 55.2989 42.476 55.2684L42.0277 55.2372C41.8764 55.21 41.721 55.155 41.5697 55.1073C41.2532 55.0242 40.9871 54.8589 40.7317 54.6698C40.4705 54.5012 40.2313 54.2652 40.0328 53.9774C39.622 53.3944 39.5081 52.6831 39.5227 52.1453C39.5496 51.3115 39.7228 50.7506 39.8522 50.1438C39.997 49.5435 40.1654 48.9523 40.3469 48.3684C40.7154 47.2032 41.1433 46.0692 41.6014 44.9624C42.5305 42.7487 43.4856 40.6247 44.479 38.4587L44.5213 38.4727Z" fill="#191818"/>
<path fill-rule="evenodd" clip-rule="evenodd" d="M80.8 37.7943C82.1562 35.7797 83.584 33.8275 85.0281 31.8983C85.5553 31.1936 86.0459 30.4626 86.5828 29.7694C87.529 28.554 88.4801 27.3214 89.4865 26.1282C90.4872 24.9391 91.5261 23.7871 92.5732 22.6416C93.5023 21.6252 94.4306 20.5973 95.3792 19.6056C96.5987 18.3401 97.8386 17.026 99.5251 16.2333C100.054 15.9891 100.096 16.3098 99.8701 16.8155C99.6325 17.2941 99.2192 18.0662 98.531 18.7274C96.0496 21.094 93.7333 23.7772 91.3536 26.4209C89.9103 27.9866 88.6656 29.831 87.3419 31.5875C85.8946 33.515 84.4627 35.4507 83.1007 37.4333C82.2628 38.6536 81.4451 39.8879 80.673 41.1485C79.5015 43.0695 78.3161 44.9953 77.2959 46.9738C76.5002 48.5107 75.8803 50.0928 75.253 51.6675C75.1237 52.0162 74.9959 52.3599 74.8666 52.7127C74.3703 54.012 74.1026 54.382 73.621 54.5415C73.5152 54.5793 73.4095 54.6402 73.3241 54.6542C73.0653 54.7159 72.901 54.0473 73.1451 53.0046C73.5323 51.4727 74.0327 49.9193 74.7104 48.4317C75.3767 46.9376 76.148 45.4772 76.9534 44.0431C78.1583 41.9207 79.4185 39.8353 80.7625 37.7738L80.8 37.7943Z" fill="#191818"/>
<path fill-rule="evenodd" clip-rule="evenodd" d="M27.4539 45.4816C25.52 45.91 23.5796 46.3204 21.6344 46.7101C20.9249 46.8524 20.222 47.0325 19.5118 47.16C17.0076 47.6147 14.4961 48.0258 11.983 48.4181C10.8676 48.5916 9.75053 48.7939 8.6457 48.9855C7.93708 49.1154 7.22358 49.2289 6.50682 49.321C5.79901 49.4961 5.03751 49.2223 4.32563 49.3111C3.87573 49.321 3.9221 49.1664 4.28089 48.9583C4.45824 48.8449 4.7194 48.7651 5.02042 48.5571C5.18721 48.4543 5.34911 48.3556 5.51019 48.2561C5.59725 48.1994 5.68918 48.1615 5.77867 48.0916C5.87467 48.0686 5.9723 48.0456 6.07319 48.0283C8.92882 47.5004 11.8072 47.0728 14.7239 46.646C16.4698 46.4026 18.254 45.9553 20.0129 45.5737C21.946 45.1568 23.8774 44.7111 25.8039 44.2407L29.3592 43.3494C31.1499 42.879 32.9569 42.4292 34.7345 41.9424C36.1184 41.5641 37.4494 41.0987 38.8528 40.7426C39.1628 40.6653 39.4646 40.5757 39.7901 40.5206C40.9779 40.2945 41.5466 40.5066 41.7272 41.0428C41.7711 41.1587 41.8118 41.2664 41.8069 41.3429C41.7906 41.4761 41.6596 41.5394 41.4994 41.6866C41.3367 41.8412 41.0788 41.9358 40.6996 42.0205C39.5712 42.2845 38.3346 42.6759 37.0906 43.0254C35.828 43.3781 34.5531 43.7342 33.2733 44.0919C31.3574 44.6017 29.4081 45.0515 27.4669 45.5203L27.4539 45.4816Z" fill="#191818"/>
<path fill-rule="evenodd" clip-rule="evenodd" d="M75.4884 62.5223C75.5259 62.4261 75.5405 62.3258 75.5739 62.2279C75.5934 62.144 75.5966 61.9812 75.6121 61.9689C75.6096 61.9319 75.6349 61.9582 75.5519 61.7691C75.4746 61.6104 75.3753 61.4311 75.2598 61.2485C75.0312 60.8834 74.7635 60.5085 74.4837 60.1401C73.9239 59.3992 73.3113 58.6714 72.6889 57.9552C72.1593 57.3483 71.58 56.7867 71.0374 56.1889C69.1173 54.0763 67.1387 52.0296 65.0731 50.0355C64.1578 49.1293 63.2458 48.2429 62.2988 47.4411C61.0768 46.4025 59.7906 45.5555 58.4823 44.7456C58.078 44.4684 58.152 44.3344 58.6613 44.1913C59.1796 43.9964 60.1559 43.9989 61.0313 44.5087C62.5892 45.3812 63.8454 46.5711 65.0682 47.7018C65.6645 48.2675 66.2609 48.8341 66.8597 49.4023C67.4772 49.982 68.0589 50.5914 68.63 51.213C69.9944 52.699 71.5402 54.1068 72.946 55.6182C73.7173 56.4512 74.4755 57.2973 75.2069 58.1805C75.573 58.6221 75.9326 59.0719 76.2784 59.5447C76.6217 60.0282 76.9626 60.4846 77.2498 61.1244C77.3507 61.3423 77.4288 61.6432 77.4345 61.9105C77.4117 63.4597 76.5331 64.7088 75.5128 65.5361C75.0654 65.9053 74.5772 66.2071 74.0622 66.4521C73.5285 66.6832 73.0436 66.9159 72.3619 66.9644C72.0332 67.0286 71.7322 66.9422 71.4189 66.9258C71.1342 66.8444 70.8283 66.7885 70.5663 66.6717C70.0269 66.4587 69.5282 66.1923 69.071 65.8913C68.3445 65.4366 67.6855 64.93 67.0533 64.4021C66.4187 63.8758 65.8045 63.3347 65.239 62.7468C64.9942 62.4837 64.7485 62.2337 64.5199 61.9549C63.629 60.9583 63.6396 60.4016 63.6892 59.9814C63.7079 59.881 63.7079 59.7676 63.7348 59.6944C63.7811 59.5694 63.9276 59.5776 64.1814 59.6738C64.4287 59.7766 64.8331 59.9213 65.2089 60.2272C65.763 60.6762 66.3203 61.1277 66.8825 61.5824C67.4178 62.0486 67.9458 62.5289 68.4909 62.9639C69.0335 63.4022 69.5819 63.8257 70.1237 64.1809C70.6615 64.5378 71.2253 64.8355 71.6842 64.9276C71.7777 64.967 71.8453 64.9498 71.9225 64.9629C71.995 64.9662 72.082 64.9999 72.1349 64.9744C72.1951 64.9637 72.2553 64.9605 72.3188 64.9629C72.4091 64.9391 72.5059 64.9202 72.6076 64.8832C73.0135 64.7516 73.4374 64.5518 73.8198 64.3149C74.5976 63.8503 75.2175 63.2065 75.4429 62.5108L75.4884 62.5223Z" fill="#191818"/>
<path fill-rule="evenodd" clip-rule="evenodd" d="M63.2599 68.3241C64.032 68.9104 64.8521 69.4317 65.6958 69.7738C66.0049 69.9005 66.3214 69.9358 66.6159 70.0041C67.148 70.1085 67.5963 70.1126 68.012 69.8898C68.5742 69.5806 69.1103 69.2327 69.6164 68.852C70.0663 68.514 70.4592 68.1062 70.7814 67.6712C71.1809 67.0923 71.4803 66.5117 71.826 65.8876C71.935 65.6935 72.1986 65.77 72.4321 66.0463C72.6632 66.3144 72.8698 66.8341 72.7047 67.3307C72.4207 68.2065 71.8439 68.912 71.2606 69.523C70.6667 70.1389 69.9792 70.6109 69.2592 70.9958C68.898 71.194 68.2569 71.6002 67.654 71.689C67.0504 71.8025 66.4711 71.7712 65.9423 71.6602C64.7805 71.4004 63.8001 70.8749 62.8694 70.3141C62.2999 69.963 61.7589 69.5773 61.2309 69.1834C60.4295 68.5839 59.6867 67.917 58.9325 67.2806C58.3459 66.7847 57.7114 66.3547 57.124 65.8382C56.9954 65.7239 56.8539 65.6253 56.7343 65.497C56.29 65.025 56.2746 64.7569 56.6317 64.3211C56.7123 64.2216 56.788 64.1155 56.8783 64.0275C57.1899 63.7315 57.6023 63.7175 57.9579 63.9584C59.0114 64.6837 60.0032 65.5389 60.9892 66.4287C61.7296 67.0766 62.4821 67.7279 63.2835 68.283L63.2599 68.3241Z" fill="#191818"/>
<path fill-rule="evenodd" clip-rule="evenodd" d="M56.5225 73.1811C57.3337 73.7912 58.1822 74.3545 59.056 74.7616C59.3725 74.9079 59.7052 74.9935 60.0087 75.0847C60.2747 75.162 60.5351 75.2147 60.7596 75.2204C60.8654 75.2163 60.9679 75.2105 61.0533 75.1892C61.1721 75.1571 61.3438 75.0814 61.487 75.0296C62.0817 74.7903 62.665 74.5091 63.1824 74.1382C63.6421 73.8118 64.0375 73.3973 64.341 72.9442C64.7193 72.3505 64.9731 71.7215 65.2107 71.1072C65.2749 70.9337 65.5987 70.9082 65.9209 71.1598C66.2358 71.4016 66.5108 71.9657 66.3513 72.5043C66.0893 73.4541 65.4857 74.2246 64.8291 74.8479C64.162 75.4712 63.3915 75.9342 62.5893 76.2541C62.3485 76.3536 62.1118 76.4514 61.8734 76.5501L61.6895 76.6307L61.4349 76.7178C61.2632 76.7787 61.1013 76.7918 60.9329 76.8247C60.2821 76.8897 59.706 76.7902 59.1829 76.6315C58.0358 76.2689 57.0831 75.6645 56.1621 75.0485C55.5983 74.6629 55.0597 74.2509 54.5293 73.8332C53.7263 73.1992 52.9729 72.5051 52.2122 71.8366C51.6256 71.3128 50.9789 70.863 50.4159 70.2906C50.2898 70.1681 50.1604 70.0472 50.0433 69.9116C49.6178 69.3927 49.5942 69.1123 49.8757 68.7669C49.9399 68.6871 49.9993 68.6008 50.0717 68.535C50.3239 68.3155 50.6713 68.373 51.0106 68.637C52.0642 69.4042 53.0689 70.3293 54.1241 71.2297C54.9092 71.895 55.7065 72.5586 56.5453 73.1441L56.5225 73.1811Z" fill="#191818"/>
<path fill-rule="evenodd" clip-rule="evenodd" d="M43.1873 71.2835C44.2156 72.2275 45.2529 73.1731 46.3529 74.0275C46.7458 74.354 47.1868 74.6015 47.5871 74.9131C48.3022 75.4444 49.0344 75.9394 49.7829 76.3884C50.5509 76.8094 51.2563 77.1153 52.1504 77.3061C52.903 77.4804 53.6783 77.5388 54.3804 77.4154C55.2916 77.2411 55.9921 76.7823 56.5738 76.0504C56.7601 75.8317 56.996 75.9558 57.1059 76.3456C57.2344 76.7255 57.1588 77.4549 56.5762 77.9886C56.0694 78.4532 55.4145 78.704 54.7978 78.8438C54.1729 78.9786 53.5603 78.9926 52.9762 78.9482C52.3912 78.9022 51.8315 78.7945 51.2962 78.6604C51.0415 78.6012 50.7478 78.505 50.459 78.3858C50.162 78.2797 49.9025 78.1456 49.6601 77.9985C48.4731 77.3209 47.3007 76.6655 46.2292 75.8777C45.0512 75.0209 43.9341 74.0966 42.8521 73.1369C42.1801 72.5539 41.5365 71.9397 40.8849 71.3361C39.9118 70.406 38.9673 69.439 38.0382 68.4736C37.3076 67.7319 36.5567 67.028 35.8489 66.2476C35.6984 66.0692 35.5421 65.899 35.3973 65.7106C34.8587 65.0183 34.8368 64.6515 35.1077 64.3037C35.172 64.2206 35.2297 64.1277 35.3046 64.0619C35.5568 63.8424 35.9693 63.9961 36.3346 64.4204C37.5256 65.6728 38.8274 67.0099 40.1608 68.3379C41.1534 69.3231 42.1703 70.3033 43.2117 71.2514L43.1873 71.2835Z" fill="#191818"/>
<path fill-rule="evenodd" clip-rule="evenodd" d="M21.9944 67.1639L25.7027 65.8622C26.1558 65.7043 26.5894 65.4979 27.0467 65.3499C28.6543 64.8162 30.2993 64.3697 31.9639 63.9791C32.7075 63.8171 33.4405 63.6074 34.1972 63.4619C34.6796 63.3689 35.1743 63.2538 35.6892 63.2513C36.2059 63.2793 36.7396 63.3533 37.2407 63.6164C37.554 63.7784 37.3815 64.0046 37.0707 64.2406C36.7591 64.4552 36.3539 64.8047 35.9008 64.9215C34.2354 65.1369 32.3764 65.6106 30.5035 66.0258C29.3743 66.2791 28.2621 66.7552 27.1435 67.1557L23.4369 68.4829L21.1523 69.3192C19.9946 69.7435 18.832 70.1695 17.6825 70.5905C16.7875 70.926 15.9406 71.3519 15.0009 71.6504C14.7886 71.7039 14.5925 71.7828 14.3672 71.8174C13.5479 71.9621 13.1932 71.8026 13.0459 71.3832C13.0109 71.287 12.9686 71.1916 12.9564 71.097C12.9361 70.9375 13.0117 70.7944 13.133 70.6735C13.2493 70.5609 13.4259 70.4482 13.6602 70.3594C15.0514 69.7197 16.6793 69.1457 18.3024 68.5125C19.5244 68.0512 20.7521 67.5874 21.9773 67.1236L21.9944 67.1639Z" fill="#191818"/>
<path fill-rule="evenodd" clip-rule="evenodd" d="M20.4118 60.1172C19.8683 58.9725 19.4046 57.7892 19.0279 56.5763C18.8814 56.138 18.7228 55.6997 18.6105 55.2491C18.259 53.6464 18.0768 51.9895 18.2265 50.3448C18.2712 49.6163 18.3607 48.8869 18.4787 48.1674C18.569 47.7101 18.6439 47.239 18.8001 46.7933C18.9538 46.3459 19.1963 45.934 19.49 45.5623C19.673 45.3279 19.9505 45.5318 20.1774 45.9011C20.4052 46.2752 20.594 46.7883 20.5289 47.2439C20.0391 48.7833 19.8935 50.3999 19.8398 52.1219C19.8081 53.1596 20.1181 54.2122 20.4004 55.2384C20.7128 56.3724 21.1155 57.4948 21.6036 58.5836C21.9022 59.2554 22.2317 59.9157 22.597 60.5563C23.1494 61.525 23.749 62.483 24.4536 63.3357C25.0003 63.9985 25.6455 64.5544 26.2825 65.065L26.7104 65.3718C27.2124 65.764 27.2376 65.9375 27.201 66.3659C27.1961 66.4654 27.2108 66.5699 27.2083 66.6653C27.2539 66.9876 26.7047 67.1644 26.119 66.9087C25.2769 66.5337 24.6399 65.9721 24.0143 65.3825C23.4 64.7846 22.8468 64.1235 22.3456 63.4245C21.5979 62.3892 20.9577 61.2767 20.3743 60.1394L20.4118 60.1172Z" fill="#191818"/>
<path fill-rule="evenodd" clip-rule="evenodd" d="M86.0007 22.3463C85.7794 21.8998 85.5874 21.4277 85.2986 21.01L84.8967 20.3604L84.4207 19.7593C84.1929 19.4591 83.9147 19.21 83.643 18.9493L82.9514 18.224L82.1867 17.5645C81.7026 17.0818 81.1136 16.7307 80.5579 16.3253C80.0559 15.9766 79.475 15.7579 78.9299 15.4997C78.2172 15.188 77.4622 14.98 76.7845 14.5335C76.5722 14.3962 76.682 14.1355 76.9717 13.9176C77.2597 13.7029 77.7454 13.5056 78.2164 13.6067C78.6248 13.7202 79.0634 13.7531 79.4474 13.9472C79.8411 14.1116 80.2333 14.2835 80.6222 14.4644C81.0167 14.6305 81.3812 14.8657 81.7449 15.1017C82.1045 15.3443 82.473 15.5679 82.8042 15.8549C83.1987 16.2011 83.6145 16.5259 84.0449 16.8376C84.4476 17.1879 84.8576 17.5382 85.2441 17.905C85.6386 18.3416 86.0218 18.7922 86.3839 19.2536C86.7012 19.7535 87.0746 20.2107 87.3366 20.7419C87.505 21.0643 87.6823 21.3792 87.8377 21.7057L88.2527 22.7089C88.6212 23.7409 88.8856 24.8091 89.0345 25.8871C89.1899 26.7177 89.2916 27.5556 89.3046 28.4248C89.2916 28.6156 89.2973 28.8063 89.2721 28.9996C89.2379 29.178 89.2119 29.3219 89.1517 29.4404C89.089 29.5571 89.0036 29.6418 88.9287 29.7076C88.7725 29.8384 88.6057 29.886 88.391 29.8943C88.2925 29.8984 88.1957 29.9115 88.1087 29.9025C87.8272 29.8729 87.6124 29.5259 87.4741 29.0728C87.3048 27.7653 87.1372 26.4924 86.8899 25.1915C86.7093 24.2261 86.3831 23.2779 85.9584 22.3709L86.0007 22.3463Z" fill="#191818"/>
<path fill-rule="evenodd" clip-rule="evenodd" d="M85.2535 70.2836C85.1331 70.3042 85.1396 70.1323 85.2267 69.8527C85.2543 69.7631 85.3991 69.5263 85.4406 69.5049C85.522 69.463 85.6017 69.4227 85.6709 69.4005C85.7124 69.3906 86.1924 69.4893 86.364 69.4959C86.5276 69.5107 86.674 69.5592 86.8156 69.6176C87.1076 69.7319 87.4079 69.8273 87.7105 69.9226C87.7772 69.944 87.8391 69.9802 87.8968 70.0279C88.0937 70.1956 88.3256 70.2754 88.5705 70.3182C88.6103 70.3256 88.6477 70.3461 88.7014 70.3083C88.7893 70.2458 89.4328 70.4226 89.502 70.5007C89.6785 70.6635 89.8697 70.7894 90.0577 70.9292C90.0837 70.9489 90.1219 70.9398 90.1325 71.0064C90.1577 71.1602 90.2293 71.1569 90.2912 71.1874C90.3774 71.2285 90.4596 71.2877 90.5369 71.3617C90.5751 71.3995 90.5979 71.4875 90.6255 71.5599C90.6499 71.6248 90.5759 71.8057 90.5556 71.823C90.4978 71.8707 90.5059 71.9694 90.488 72.0483C90.4815 72.0755 90.4742 72.1108 90.4661 72.1314C90.4498 72.1725 89.816 72.4077 89.7607 72.3814C89.7542 72.3805 89.5516 72.355 89.3328 72.3279C89.1164 72.3016 88.8886 72.2753 88.8397 72.2761C88.7893 72.2769 88.7519 72.2317 88.7112 72.1988C88.6925 72.1906 88.04 72.0804 88.0156 72.0656C87.8927 72.0047 87.7471 72.0039 87.6601 71.8395C87.643 71.8074 87.6145 71.8041 87.5885 71.7967C87.3623 71.7301 87.1589 71.5969 86.9523 71.4768C86.8465 71.4168 86.7302 71.3806 86.6195 71.3313C86.6 71.3222 86.5861 71.2967 86.5699 71.2803C86.5479 71.2605 86.5292 71.2334 86.504 71.2235C86.2371 71.1142 86.0053 70.9333 85.7278 70.8428C85.6611 70.8231 85.4447 70.5492 85.3715 70.5262C85.3284 70.5147 85.3007 70.2754 85.2535 70.2836Z" fill="#191818"/>
<path fill-rule="evenodd" clip-rule="evenodd" d="M75.017 79.8439C74.921 79.7633 75.0967 79.6926 75.4344 79.6178C75.5418 79.5939 75.8713 79.5857 75.9184 79.6087C76.0104 79.6548 76.0999 79.7017 76.1633 79.751C76.2032 79.779 76.3716 80.2682 76.4359 80.4368C76.5018 80.5996 76.5099 80.7616 76.5083 80.9236C76.5034 81.2509 76.5107 81.579 76.4977 81.9022C76.4945 81.9745 76.4749 82.0452 76.4391 82.1143C76.3163 82.3503 76.2927 82.5921 76.3025 82.838C76.3049 82.8782 76.2911 82.9185 76.3423 82.9629C76.4269 83.0378 76.3749 83.6923 76.3179 83.7705C76.1877 83.967 76.0999 84.1676 75.9933 84.3658C75.9778 84.3938 75.9957 84.4275 75.9282 84.4472C75.7712 84.4933 75.7891 84.5599 75.7712 84.6232C75.7452 84.7095 75.7126 84.7959 75.6532 84.8789C75.6239 84.92 75.5336 84.9538 75.4612 84.9899C75.3953 85.0228 75.1732 84.9784 75.1504 84.962C75.0845 84.9151 74.9755 84.9365 74.8811 84.9307C74.8502 84.9274 74.8095 84.9233 74.7835 84.9209C74.7282 84.9118 74.3906 84.3551 74.3987 84.2992C74.3979 84.2934 74.3865 84.1018 74.3735 83.8954C74.3588 83.6932 74.3409 83.481 74.3304 83.4382C74.3181 83.3922 74.3588 83.3519 74.3857 83.31C74.3987 83.2894 74.336 82.6875 74.3409 82.6653C74.3718 82.5452 74.3255 82.4194 74.4703 82.3108C74.4979 82.2895 74.4931 82.264 74.4931 82.2393C74.4898 82.0296 74.559 81.8265 74.607 81.6218C74.6322 81.5173 74.6192 81.4104 74.6281 81.3043C74.6289 81.2854 74.6509 81.2682 74.6607 81.2492C74.6729 81.2262 74.6924 81.2032 74.6924 81.1793C74.69 80.9294 74.7737 80.6818 74.7176 80.4327C74.707 80.3751 74.8649 80.1038 74.8421 80.038C74.8315 80.001 75.0561 79.8768 75.017 79.8439Z" fill="#191818"/>
<path fill-rule="evenodd" clip-rule="evenodd" d="M25.7675 20.3143C25.6601 20.3315 25.6747 20.1769 25.7594 19.9204C25.7862 19.8381 25.9204 19.6227 25.9595 19.6046C26.0343 19.5684 26.1092 19.5347 26.1743 19.5174C26.2133 19.5084 26.6665 19.6326 26.8284 19.663C26.983 19.6934 27.1172 19.7592 27.2466 19.8332C27.5118 19.9763 27.7803 20.1218 28.0455 20.2657C28.1041 20.2978 28.1561 20.343 28.2001 20.399C28.353 20.5906 28.5491 20.7123 28.7614 20.806C28.7964 20.8216 28.8265 20.8479 28.8818 20.8282C28.973 20.7945 29.5018 21.1275 29.5514 21.2024C29.6751 21.3874 29.8166 21.5428 29.9509 21.7122C29.9696 21.736 30.0046 21.7369 29.9981 21.7985C29.9842 21.9416 30.0477 21.9564 30.0949 21.9975C30.1608 22.0559 30.2242 22.1192 30.2747 22.2023C30.2999 22.2434 30.2983 22.3289 30.304 22.4021C30.3089 22.4679 30.1925 22.6225 30.1714 22.6332C30.1071 22.6644 30.0876 22.7598 30.0493 22.8305C30.0363 22.8544 30.0184 22.8848 30.007 22.9037C29.9794 22.9432 29.3879 22.9654 29.3431 22.9341C29.3383 22.9325 29.1707 22.8577 28.9884 22.7771C28.8094 22.699 28.6223 22.6192 28.5808 22.6085C28.5369 22.597 28.5157 22.5477 28.4889 22.509C28.4767 22.4901 27.9251 22.2804 27.9104 22.2607C27.8185 22.1801 27.6932 22.1538 27.6517 21.9901C27.6436 21.9581 27.62 21.949 27.5988 21.9375C27.4174 21.838 27.2685 21.6851 27.1107 21.5461C27.0302 21.4754 26.935 21.4285 26.8471 21.3693C26.8316 21.3586 26.8243 21.3339 26.8121 21.3167C26.7967 21.2961 26.7845 21.2698 26.7641 21.2574C26.5493 21.1283 26.3712 20.9392 26.1385 20.8414C26.0856 20.8175 25.9196 20.5601 25.8562 20.5379C25.8204 20.5248 25.8106 20.3069 25.7675 20.3143Z" fill="#191818"/>
<path fill-rule="evenodd" clip-rule="evenodd" d="M40.5882 7.89412C40.5134 7.74117 40.7225 7.66799 41.1016 7.6351C41.2228 7.62523 41.5726 7.69513 41.6149 7.74282C41.6979 7.83574 41.7777 7.92948 41.8297 8.01912C41.8615 8.07339 41.894 8.85294 41.9192 9.11773C41.9436 9.37675 41.9103 9.6218 41.8672 9.86521L41.6304 11.3437C41.6125 11.4523 41.5767 11.5583 41.5255 11.6595C41.3481 12.009 41.2806 12.379 41.2586 12.754C41.2545 12.8157 41.2358 12.8782 41.2846 12.9464C41.3587 13.0607 41.2236 14.0508 41.1634 14.1733C40.9999 14.4759 40.8892 14.7892 40.7672 15.1033C40.7493 15.1477 40.7672 15.1979 40.6964 15.2349C40.5321 15.3212 40.5508 15.424 40.5305 15.5227C40.5004 15.6609 40.4711 15.799 40.4125 15.9363C40.3832 16.0046 40.2937 16.0704 40.2221 16.137C40.157 16.1987 39.9333 16.16 39.9097 16.137C39.8414 16.0704 39.7323 16.1205 39.6388 16.1246C39.607 16.1255 39.5656 16.1271 39.5403 16.1238C39.4842 16.1205 39.1026 15.2522 39.11 15.1543C39.1091 15.1338 39.0489 13.9052 39.04 13.7268C39.0319 13.6511 39.079 13.5821 39.1108 13.5122C39.1205 13.4776 39.1181 12.4752 39.1336 12.4374C39.1848 12.2384 39.1604 12.0262 39.3378 11.8511C39.3727 11.8174 39.3719 11.7754 39.376 11.7343C39.415 11.3865 39.5346 11.0551 39.6372 10.7229C39.6884 10.5527 39.7039 10.3767 39.7397 10.2032C39.7454 10.1728 39.7738 10.1456 39.7885 10.116C39.8088 10.079 39.8357 10.0445 39.8422 10.005C39.9073 9.59384 40.0675 9.20325 40.0846 8.78551C40.0895 8.69012 40.3433 8.27897 40.3409 8.16713C40.3409 8.10464 40.6191 7.95498 40.5882 7.89412Z" fill="#191818"/>
<path fill-rule="evenodd" clip-rule="evenodd" d="M51.8073 47.9599C51.4128 48.552 50.9995 49.13 50.5512 49.6777C50.3925 49.8816 50.2323 50.0847 50.0614 50.278C49.4512 50.9523 48.8036 51.5896 48.1162 52.1742C47.8111 52.4382 47.5117 52.6964 47.209 52.9579C46.8144 53.2802 46.3971 53.5779 45.9512 53.8246C45.8129 53.9019 45.7934 53.8353 45.8569 53.693C45.9211 53.5524 46.057 53.3247 46.2702 53.1306C46.6346 52.7679 47.0178 52.4374 47.4027 52.106C47.7842 51.7713 48.165 51.4325 48.5376 51.0806C48.994 50.6686 49.3837 50.1571 49.7767 49.6687C50.2062 49.1276 50.6228 48.575 51.0011 47.9936C51.2378 47.6384 51.4608 47.2741 51.6715 46.9016C51.9896 46.3375 52.2922 45.7594 52.5412 45.1649C52.7283 44.6994 52.8756 44.2299 53.0342 43.7612C53.0668 43.6584 53.1001 43.5515 53.1326 43.4503C53.2726 43.0688 53.3759 42.9676 53.5427 42.9306C53.5817 42.9232 53.6216 42.9084 53.6566 42.9076C53.7737 42.906 53.812 43.0959 53.7737 43.4051C53.7078 43.8615 53.576 44.3113 53.4426 44.7685C53.2848 45.2167 53.0903 45.6566 52.878 46.0908C52.5664 46.7363 52.2027 47.3596 51.822 47.9681L51.8073 47.9599Z" fill="#191818"/>
</svg>
