<svg width="102" height="88" viewBox="0 0 102 88" fill="none" xmlns="http://www.w3.org/2000/svg">
<path fill-rule="evenodd" clip-rule="evenodd" d="M83.4438 48.4226C84.7317 50.9721 86.0779 53.4931 87.4887 55.9753C88.0077 56.8787 88.5577 57.7619 89.0955 58.6519C90.9466 61.8205 92.9019 64.9302 95.0145 67.9264C95.9368 69.2672 96.9582 70.5416 97.9412 71.8184C98.5757 72.6369 99.2676 73.4082 99.9177 74.2149C100.246 74.6186 100.569 75.0047 100.888 75.4758C101.188 75.9266 101.426 76.3464 101.75 76.6559C102.162 77.0008 102.07 77.2085 101.439 77.095C101.131 77.0277 100.718 76.7913 100.332 76.4725C100.143 76.3161 99.9521 76.1579 99.7554 75.9948C99.5709 75.8568 99.3357 75.6339 99.1455 75.4135C98.4355 74.6153 97.7165 73.8221 97.0214 73.0087C96.3458 72.1784 95.6556 71.3592 95.0063 70.5045C93.7397 68.7726 92.5116 67.0062 91.3729 65.1691C90.0014 62.9813 88.4831 60.7699 87.1059 58.5173C85.6155 56.0275 84.1767 53.5048 82.8167 50.9393C81.9789 49.3613 81.1656 47.769 80.3597 46.175C79.1432 43.7592 77.9995 41.2888 76.8453 38.8671C75.9525 37.0275 74.8925 35.2485 73.6235 33.8614C73.3513 33.5712 73.0291 33.3172 72.7897 33.1742C72.5446 33.027 72.3487 33.0808 72.1863 33.1288C72.1076 33.1422 72.0019 33.1767 71.8765 33.2238C71.7527 33.2549 71.6166 33.2844 71.4641 33.3046C71.3247 33.3214 71.1723 33.3702 71.0444 33.3693C70.8279 33.3685 70.714 33.1809 70.7189 32.7814C70.7189 32.6821 70.7566 32.5669 70.7919 32.4398C70.8206 32.3154 70.8952 32.1724 71.0067 32.01C71.2034 31.6845 71.5567 31.3623 72.0462 31.2261C72.4061 31.1369 72.802 31.1403 73.1709 31.2749C73.3636 31.3186 73.5357 31.4246 73.7177 31.5112C73.8899 31.6004 73.9874 31.6837 74.1268 31.772C74.6023 32.1177 74.9737 32.5004 75.3147 32.8932C75.9878 33.6814 76.5387 34.5192 77.042 35.3797C77.5446 36.2402 77.9971 37.1301 78.416 38.0285C78.8259 38.9007 79.2383 39.7764 79.6498 40.6529C80.8836 43.247 82.1453 45.8453 83.4799 48.3982L83.4438 48.4226Z" fill="#191818"/>
<path fill-rule="evenodd" clip-rule="evenodd" d="M67.8292 32.5616C67.5308 31.9248 67.1971 31.2973 66.8175 30.6993C66.6765 30.4831 66.4986 30.2989 66.3543 30.0852L65.9674 29.5208C65.9436 29.4485 65.801 29.3189 65.6411 29.197C65.3189 28.9488 64.9304 28.7335 64.5368 28.5829C64.1876 28.4542 63.8072 28.4105 63.5031 28.4601C63.2932 28.4795 63.1768 28.5871 63.0915 28.6536C63.0243 28.7301 62.9481 28.8269 62.8636 29.0237C62.8013 29.1272 62.4906 29.1532 62.1996 28.9673C62.0602 28.8706 61.9037 28.7226 61.8397 28.5064C61.7987 28.2869 61.7905 27.9925 61.9979 27.7519C62.1553 27.5206 62.3693 27.3868 62.5857 27.248C62.7849 27.1614 63.021 27.0571 63.2055 27.0386C63.6105 26.9553 63.9523 26.9847 64.2835 27.0293C64.9353 27.1404 65.5099 27.3456 66.0404 27.6821C66.3625 27.8924 66.6741 28.0269 67.0905 28.4298C67.3324 28.683 67.5783 28.9345 67.7972 29.2062C68.276 29.8068 68.7072 30.4419 69.1089 31.0955C69.354 31.4984 69.5852 31.9097 69.8114 32.3227C70.1533 32.9502 70.4337 33.613 70.7542 34.2473C71.0059 34.7385 71.3371 35.191 71.6076 35.6915C71.6675 35.8017 71.7314 35.9085 71.7749 36.0255C71.9331 36.4645 71.8101 36.658 71.3469 36.8826C71.2412 36.9339 71.1379 36.9903 71.0313 37.0315C70.6812 37.1661 70.2927 37.0912 70.0828 36.8473C69.445 36.1306 69.1236 35.3021 68.7096 34.466C68.4137 33.846 68.1177 33.2118 67.7906 32.5885L67.8292 32.5616Z" fill="#191818"/>
<path fill-rule="evenodd" clip-rule="evenodd" d="M61.5276 29.8553C61.1382 29.0049 60.7078 28.1772 60.1905 27.4387C59.9888 27.1888 59.7691 26.9399 59.5543 26.7186C59.3756 26.4991 59.183 26.309 58.9821 26.1315C58.7862 25.9364 58.5919 25.7875 58.3681 25.6546C57.9303 25.393 57.4171 25.2264 56.9048 25.2542C56.4506 25.2744 56.0112 25.4586 55.68 25.7547C55.2381 26.1391 55.0422 26.7035 54.8102 27.3083C54.7339 27.495 54.4781 27.4656 54.242 27.2334C54.0027 27.0105 53.7739 26.5285 53.9477 26.0196C54.2289 25.1289 54.9586 24.3331 55.8513 23.9714C56.7515 23.6417 57.7287 23.693 58.5337 24.0547C59.5207 24.4543 60.3586 25.0935 61.0029 25.8102C61.7071 26.6143 62.2457 27.5009 62.7245 28.4001C63.0213 28.9527 63.2861 29.518 63.5468 30.0799C63.9386 30.9345 64.2739 31.8118 64.6486 32.6563C64.9355 33.3141 65.3102 33.9231 65.6307 34.559C65.7028 34.6995 65.7873 34.8299 65.8488 34.9746C66.0758 35.5121 66.0332 35.7223 65.6069 36.0193C65.5143 36.0849 65.4274 36.1572 65.3364 36.2102C65.0404 36.3827 64.615 36.2918 64.3821 35.9276C63.6533 34.8669 63.1541 33.6725 62.6474 32.4864C62.2785 31.6032 61.9137 30.7192 61.4907 29.878L61.5276 29.8553Z" fill="#191818"/>
<path fill-rule="evenodd" clip-rule="evenodd" d="M51.6055 37.354L53.1738 40.1172L53.9657 41.4874L54.4264 42.2697C54.6798 42.6936 54.9404 43.1193 55.22 43.5407C55.329 43.7981 55.4659 44.0756 55.5512 44.3145L55.5758 44.8655C55.5619 44.9976 55.5209 45.1935 55.3626 45.4047C55.2208 45.588 55.0651 45.6839 54.8937 45.7807C54.5412 45.9531 54.0428 46.0153 53.4533 45.9573C53.1582 45.9279 52.8549 45.8799 52.5458 45.8177C52.3933 45.7916 52.2376 45.7495 52.0843 45.7167L51.6826 45.6225C50.2963 45.2667 48.9739 44.8335 47.6524 44.3734C47.0023 44.1463 46.3137 43.8898 45.6988 43.6517C45.0856 43.4271 44.4421 43.2219 43.8018 43.0351C42.5205 42.6667 41.2121 42.3597 39.9398 42.2293C39.3044 42.1654 38.6666 42.157 38.1411 42.2596C37.8837 42.3092 37.6689 42.4001 37.5607 42.4825C37.4607 42.5616 37.4385 42.5994 37.4172 42.7273C37.2738 43.6172 37.923 44.7023 38.8265 45.6015C40.4325 47.2089 42.5328 48.4715 44.6298 49.6382C46.7482 50.8099 48.9412 51.8328 51.1513 52.9793C51.7104 53.2871 52.2474 53.5445 52.868 54.0391C53.3787 54.5009 53.8157 54.9661 54.2321 55.4346L56.6932 58.2154C58.3377 60.0298 60.0134 61.7971 61.8489 63.3254C62.6785 63.9689 63.5246 64.6124 64.4411 65.0683C64.8953 65.3366 65.3503 65.4712 65.8462 65.6958C66.366 65.9263 66.9177 66.1004 67.4096 66.3771C69.4345 67.3949 71.2323 68.7399 72.9023 70.1766C75.0387 72.0373 77.0218 74.0636 78.8638 76.2001C80.7141 78.3299 82.4456 80.5522 84.0532 82.8503C85.0624 84.276 84.6885 84.2887 83.4752 83.3827C82.8669 82.9302 82.0463 82.2505 81.0945 81.4035C80.1575 80.543 79.1352 79.4789 78.0744 78.2904C76.1921 76.1909 74.2853 74.1242 72.23 72.2778C70.1731 70.4609 67.9802 68.745 65.5888 67.7962C65.0748 67.5648 64.187 67.2629 63.5336 66.8978C62.8327 66.5428 62.1949 66.1189 61.5702 65.6849C60.3298 64.805 59.2337 63.7973 58.1811 62.7652C56.1078 60.6792 54.3649 58.2937 52.5032 56.2143C52.2294 55.9081 51.9441 55.6146 51.6891 55.3892C51.4661 55.2075 51.0997 54.9829 50.7439 54.7869C50.0225 54.3823 49.2502 53.997 48.4788 53.6093C46.9285 52.8363 45.3513 52.059 43.7928 51.2112C42.2352 50.3591 40.6874 49.4523 39.2257 48.342C38.4969 47.7843 37.7878 47.1787 37.1467 46.4519C36.5171 45.726 35.9203 44.8537 35.6842 43.7383C35.6538 43.4448 35.5899 43.1487 35.626 42.8467C35.6374 42.6936 35.6448 42.5498 35.667 42.39C35.712 42.2074 35.7448 42.0224 35.8358 41.8508C35.9826 41.4967 36.258 41.2031 36.5368 40.9979C36.8188 40.7901 37.1065 40.6757 37.382 40.5865C38.4838 40.2728 39.443 40.367 40.3898 40.4595C42.2713 40.6942 44.042 41.1787 45.7972 41.7625C47.5352 42.4093 49.1666 43.0049 50.8874 43.5079C51.312 43.6324 51.7383 43.751 52.1621 43.8561C52.3532 43.9049 52.5352 43.9486 52.7303 43.9789C52.827 43.9941 52.9246 44.005 53.0238 44.0067C53.1107 44.0033 53.2558 44.0033 53.2656 43.8906C53.2139 43.7047 53.0672 43.5575 52.977 43.3792L52.5647 42.6827C50.1389 38.5341 47.8254 34.3401 45.4718 30.1739C43.592 27.0473 42.145 23.5793 41.0916 20.0649C40.8251 19.1834 40.5792 18.2968 40.3603 17.4018C40.1357 16.522 39.934 15.569 39.8496 14.6403C39.7627 13.7016 39.7102 12.757 39.8824 11.7577C39.9283 11.507 39.9889 11.2547 40.0939 10.9939C40.1955 10.7332 40.371 10.4177 40.5989 10.2083C41.0506 9.74819 41.7802 9.67249 42.3483 9.86764C43.155 10.1242 43.7543 10.591 44.3044 11.0982C44.8454 11.6105 45.307 12.1766 45.73 12.7578C46.5654 13.9262 47.2507 15.1627 47.9123 16.3798C49.192 18.7797 50.7078 21.0895 52.1654 23.422C52.8196 24.4465 53.4615 25.4492 54.1215 26.4821C56.5374 30.3438 57.1547 31.6863 57.2146 32.7933C57.2277 33.0456 57.2761 33.3594 57.2416 33.531C57.1187 34.1113 55.9447 32.6637 54.128 29.8888C52.7819 27.8279 51.4014 25.7419 50.0389 23.6011C49.3568 22.5312 48.6805 21.4461 48.0148 20.345C47.3491 19.2675 46.676 18.0621 46.0915 16.9476C45.4898 15.8289 44.8766 14.7438 44.1839 13.779C43.5051 12.8369 42.6697 11.9764 41.9146 11.6862C41.8786 11.677 41.8425 11.6652 41.8081 11.6509C41.8015 11.6484 41.8023 11.65 41.8023 11.65L41.7982 11.6517C41.7991 11.6601 41.7925 11.6526 41.795 11.6593C41.79 11.6694 41.6933 11.9285 41.6646 12.148C41.6244 12.3852 41.6023 12.6569 41.5949 12.9378C41.5794 14.0818 41.7261 15.3242 42.0245 16.4959C42.9214 20.1852 44.1855 23.835 45.9227 27.1634C47.8287 30.5491 49.7355 33.9372 51.6399 37.322L51.6055 37.354Z" fill="#191818"/>
<path fill-rule="evenodd" clip-rule="evenodd" d="M90.6742 76.0936C90.2167 76.4847 89.6953 76.8035 89.2067 77.1442C88.6698 77.4184 88.1713 77.754 87.6147 77.9685C87.2105 78.1275 86.8367 78.3597 86.4251 78.4909C85.684 78.6751 84.9585 78.8963 84.2076 78.9443C83.8354 78.9779 83.4681 79.0536 83.0984 79.0519L81.9917 79.0511C81.3383 79.0822 80.6956 78.9804 80.0528 78.9821C79.224 79.0082 78.41 78.813 77.6451 78.4799C77.4073 78.3714 77.5041 78.0939 77.7705 77.8087C78.0378 77.5294 78.4739 77.1947 78.915 77.1686C79.6782 77.2022 80.4381 77.2359 81.2055 77.2695C81.5875 77.3158 81.9572 77.2493 82.3384 77.2746C82.718 77.2855 83.1058 77.3284 83.4845 77.2939C84.4134 77.2922 85.3184 76.9432 86.1817 76.6016C86.6506 76.3947 87.1392 76.2198 87.577 75.9388C87.8008 75.8084 88.032 75.689 88.2525 75.5502L88.8878 75.0893C89.1575 74.9101 89.4002 74.6939 89.6412 74.4735C89.8822 74.254 90.1372 74.0479 90.3487 73.7939C91.0365 73.0772 91.6637 72.2722 92.1621 71.3974C92.54 70.7094 92.7737 69.9599 93.0278 69.2256C93.0811 69.0624 93.1164 68.8942 93.1795 68.7343C93.4803 68.1716 93.7509 68.0623 94.2075 68.1026C94.3042 68.1094 94.3944 68.1018 94.4657 68.111C94.6666 68.1253 94.9658 68.5434 94.9617 69.0843C94.8428 70.6438 94.0796 72.0973 93.1631 73.4347C92.4572 74.4189 91.635 75.3323 90.707 76.1289L90.6742 76.0936Z" fill="#191818"/>
<path fill-rule="evenodd" clip-rule="evenodd" d="M94.1567 78.1024C94.1214 78.0217 94.0714 77.9149 93.9862 77.8038C93.9444 77.7517 93.8837 77.6877 93.8181 77.6852C93.7558 77.6844 93.7173 77.7214 93.6853 77.7601C93.6173 77.8375 93.5787 77.9611 93.6181 78.0856C93.6361 78.1479 93.6665 78.2109 93.7025 78.2774L93.7566 78.3834L93.796 78.47L93.8198 78.5239L93.8903 78.7114C94.0485 79.0908 94.1173 79.5879 94.0985 80.0497C94.0698 80.2701 94.0378 80.5014 93.9837 80.7058C93.9313 80.8951 93.8583 81.1087 93.7304 81.351C93.5779 81.5999 93.3812 81.9255 92.8958 82.1534C92.4105 82.3696 91.9219 82.2855 91.6284 82.1719C91.0734 81.933 90.8316 81.6656 90.5848 81.425C90.4774 81.3165 90.3897 81.2105 90.2971 81.1045L90.1684 80.9464C90.1298 80.9001 90.1487 80.9178 90.1307 80.8942L90.0241 80.7252L89.7847 80.3281C89.6937 80.186 89.6003 80.0253 89.4642 79.8882C89.3199 79.7662 89.1084 79.7158 88.951 79.7932C88.7952 79.8663 88.7026 80.0354 88.7313 80.1919C88.7509 80.35 88.8198 80.5048 88.8928 80.6705L89.1371 81.2004L89.1969 81.3476L89.2854 81.6067C89.3223 81.7875 89.3756 81.9036 89.3863 82.1391C89.3912 82.2527 89.3986 82.3519 89.3887 82.4747C89.3633 82.622 89.3223 82.7725 89.2682 82.9105C89.1494 83.1494 88.8837 83.4311 88.696 83.4841C88.5927 83.5329 88.4837 83.5758 88.3804 83.6069L88.141 83.6355C87.9893 83.6549 87.8196 83.6633 87.6122 83.628C87.4302 83.591 87.2696 83.5321 87.1286 83.4631C86.5875 83.1788 86.2596 82.8188 85.948 82.489C85.6234 82.1383 85.416 81.8582 85.1717 81.5823C85.0627 81.4612 84.9577 81.351 84.8389 81.2753C84.779 81.2408 84.7126 81.2046 84.638 81.224C84.5585 81.2441 84.5183 81.3392 84.4708 81.3989C84.3724 81.7396 84.4839 82.0281 84.5814 82.2628C84.6921 82.505 84.802 82.7464 84.9135 82.9904C84.9471 83.0602 84.9331 83.1233 84.9176 83.1906C84.9094 83.273 84.8716 83.3495 84.8044 83.3739C84.6593 83.4152 84.4749 83.4101 84.0453 83.1342C83.6362 82.8709 82.9509 82.2367 82.4254 81.4368C82.145 81.0322 81.9851 80.6545 81.8671 80.2903C81.7908 79.9563 81.7564 79.6333 81.8212 79.3583C81.8966 78.9621 82.0819 78.5802 82.4344 78.1664C82.5533 78.0696 82.65 77.9552 82.7869 77.8736C82.923 77.7904 83.073 77.7407 83.1894 77.7054C83.4255 77.6507 83.5952 77.6348 83.7838 77.6634C84.1494 77.7172 84.5716 77.8736 85.1414 78.412C85.7078 78.8956 86.3202 79.8007 86.9507 80.509L87.4015 81.0095C87.5057 81.1205 87.5524 81.1684 87.627 81.2374C87.7598 81.3644 87.8918 81.4687 87.9631 81.5099C87.9943 81.5545 88.0328 81.4284 87.9221 81.7556C87.8918 81.8548 87.8803 81.9633 87.8721 82.0054L87.8713 82.0533V82.0786V82.0819C87.8754 82.5934 87.8672 81.3888 87.868 81.5125L87.8688 81.5116V81.5108L87.8721 81.5049L87.8754 81.5057C87.877 81.5184 87.9123 81.7026 87.9402 81.7917C87.9877 81.9255 87.977 81.9633 87.9869 82.0214C87.9967 82.0786 88.0148 82.1358 88.0418 82.1904C88.068 82.246 88.1033 82.2989 88.1467 82.3486C88.15 82.3578 88.1451 82.3604 88.1508 82.3688C88.1541 82.3772 88.1623 82.3864 88.1746 82.394C88.2033 82.4108 88.1156 82.3553 88.091 82.3519C88.0508 82.3385 88.0115 82.3334 87.9746 82.3351C87.9541 82.3343 87.9443 82.341 87.9156 82.3402L87.7795 82.3242C87.6081 82.3099 87.4024 82.3393 87.281 82.3873C87.2646 82.3553 87.2745 82.3368 87.245 82.2594C87.2122 82.145 87.0859 81.8632 86.9785 81.6647L86.6482 81.0196C86.1923 80.1658 85.839 79.3372 85.8046 78.8056C85.7611 78.2555 85.8021 77.8972 85.9538 77.4489C86.0612 77.1469 86.2776 76.802 86.5793 76.5303C86.8826 76.2603 87.286 76.0744 87.668 76.0357C88.0607 75.9844 88.4058 76.0668 88.646 76.1871C88.9067 76.3074 89.1674 76.4521 89.4748 76.6843C90.1003 77.146 90.825 78.2547 91.5235 79.1371L91.7932 79.4634L91.9408 79.6274C92.0383 79.7309 92.1367 79.8335 92.222 79.9042C92.3064 79.9824 92.3933 80.0329 92.3933 80.0329C92.3285 80.1919 92.2515 80.4156 92.2498 80.5174C92.2375 80.6284 92.2662 80.673 92.2441 80.6217C92.2285 80.5939 92.2171 80.5838 92.158 80.5064C92.1072 80.4501 92.0588 80.4257 91.9531 80.3323C91.9055 80.2962 91.8563 80.2642 91.8063 80.2373C91.7916 80.2314 91.8006 80.2465 91.8006 80.2339C91.8047 80.2213 91.8104 80.2087 91.817 80.1977C91.8547 80.1136 91.8703 80.0093 91.8842 79.9353C91.8883 79.8554 91.8998 79.7915 91.876 79.7107C91.8744 79.6745 91.8637 79.63 91.8408 79.5812L91.817 79.5088C91.8137 79.4895 91.7539 79.3995 91.726 79.3473C91.4505 78.8679 91.0324 78.2917 90.8447 77.8257C90.6332 77.3462 90.5225 76.9164 90.4676 76.4899C90.3766 75.648 90.5496 74.7193 90.9824 73.9993C91.1857 73.6569 91.5251 73.3062 91.9605 73.2423C92.3712 73.1968 92.6827 73.3306 92.9983 73.4963C93.3812 73.699 93.7722 74.0228 94.1821 74.4628C94.5904 74.9086 95.0019 75.4747 95.3913 76.0492L95.9693 76.8735C96.139 77.1191 96.2374 77.2562 96.3685 77.4261C96.4284 77.5027 96.4931 77.5809 96.53 77.6162C96.5366 77.623 96.5554 77.6448 96.5513 77.6398C96.5899 77.5767 96.4382 77.7685 96.3693 77.9031C96.2931 78.0208 96.2513 78.0671 96.239 78.1807C96.2324 78.2177 96.2234 78.2084 96.2259 78.2311C96.2267 78.2395 96.2292 78.248 96.2349 78.2564C96.1947 78.1748 96.221 78.2311 96.2111 78.2135L96.2103 78.2194C96.189 78.2008 96.1636 78.1891 96.1382 78.184C96.1127 78.1891 95.984 78.1588 95.8881 78.1697C95.8324 78.1722 95.8045 78.1882 95.7291 78.195C95.6651 78.1983 95.5405 78.2185 95.5741 78.2118C95.5717 78.2067 95.5782 78.2151 95.5717 78.1975C95.5569 78.1462 95.5282 78.0646 95.4897 77.9779C95.3364 77.6221 95.1101 77.2184 94.8904 76.8272L94.0805 75.4368C93.4099 74.2743 92.7958 73.0816 92.6278 72.2118C92.5384 71.7509 92.4474 71.3404 92.5474 70.8652C92.6417 70.4008 92.9926 69.8869 93.5033 69.7296C93.7812 69.6303 94.0673 69.6312 94.2911 69.6909C94.5223 69.7464 94.6494 69.8734 94.8224 69.9668C95.1773 70.1779 95.6233 70.3798 96.189 70.887C96.7464 71.4287 97.331 72.0125 97.9368 72.5542C98.2877 72.8738 98.4492 73.0084 98.6508 73.1775L99.2493 73.678C99.6067 73.9623 99.9576 74.2415 100.317 74.5275C101.634 75.6008 101.929 76.0096 101.876 76.76C101.864 76.929 101.881 77.1149 101.849 77.268C101.769 77.7845 100.842 77.7576 99.724 77.0241C98.2385 76.1173 95.9726 74.0775 96.4751 74.6571C96.4185 74.6899 96.4874 74.8177 96.489 74.8009C96.489 74.8009 96.4841 74.7975 96.48 74.8017L96.4767 74.806L96.4759 74.8085L96.5841 75.0078L97.1367 76.0433C97.3219 76.4151 97.5048 76.7541 97.7032 77.3118L97.7802 77.5708C97.8073 77.6785 97.8343 77.8131 97.8507 77.967C97.8597 78.0848 97.8606 78.2059 97.8524 78.3245L97.8442 78.4187C97.8351 78.4759 97.8245 78.5339 97.8105 78.592C97.7819 78.7072 97.7433 78.8225 97.6941 78.9301C97.6392 79.1017 97.3638 79.4685 97.0916 79.6317C96.8448 79.8175 96.3333 79.9404 95.9603 79.8647C95.7504 79.8218 95.6077 79.7629 95.443 79.6779C95.3479 79.6266 95.3274 79.6089 95.2954 79.5871L95.2011 79.5164C95.0552 79.4045 95.0027 79.344 94.938 79.2775C94.806 79.1396 94.7338 79.0454 94.6543 78.9436C94.5027 78.7468 94.392 78.5794 94.2764 78.4086L94.1813 78.2639C94.1674 78.2395 94.1747 78.2496 94.1698 78.2412L94.1436 78.1815L94.1567 78.1024Z" fill="#191818"/>
<path fill-rule="evenodd" clip-rule="evenodd" d="M5.84492 25.9089L5.38419 26.0645C5.27926 26.0838 4.89231 26.2134 4.66113 26.2386C4.39961 26.2731 4.14711 26.2773 3.89052 26.2992C3.6331 26.3194 3.42733 26.2369 3.19369 26.2108C3.07727 26.1772 2.99201 26.088 2.89036 26.03L2.7428 25.9316L2.72394 25.9198C2.67639 25.961 2.78788 25.8601 2.77477 25.8702L2.77231 25.8677L2.76821 25.8635L2.75919 25.8559L2.7223 25.8222L2.65754 25.7583C2.4698 25.6178 2.4739 25.3554 2.46406 25.0904C2.46324 24.8213 2.54276 24.5008 2.63212 24.1912C2.67311 24.0356 2.72394 23.88 2.77641 23.7236L2.90512 23.3484C3.1527 22.6603 3.41831 21.9984 3.68884 21.3372L4.52012 19.374L4.94642 18.3999L5.07513 18.1333L4.93002 18.0382L4.34878 17.6849C3.73229 17.3056 3.11171 16.9203 2.50095 16.4821C2.19763 16.2558 1.8943 16.027 1.60163 15.7553C1.45489 15.6258 1.31142 15.4786 1.17042 15.3255C1.09828 15.254 1.03187 15.1631 0.96465 15.0799C0.902345 15.0042 0.821185 14.9041 0.740844 14.756C0.439978 14.3321 0.327665 13.8535 0.279297 13.3908C0.303891 13.1797 0.344061 12.9492 0.47277 12.7701C0.603938 12.5993 0.776096 12.4588 0.987604 12.3495C1.186 12.2342 1.43112 12.1442 1.64508 12.0727L1.81068 12.0164L1.92218 11.9844L2.14106 11.923C2.72148 11.7674 3.2896 11.6513 3.85854 11.5428C4.42584 11.436 4.99233 11.3426 5.55963 11.2551L6.40976 11.1307C6.76719 11.0793 6.81556 11.0777 6.92296 11.0667C6.95657 11.028 6.97788 10.9717 7.00657 10.9237L7.18037 10.5772L7.60175 9.74612C7.8854 9.19264 8.17561 8.64168 8.47647 8.09409C8.77734 7.5465 9.08723 7.00228 9.41925 6.46562C9.58484 6.19645 9.75864 5.93065 9.94146 5.66568C10.0325 5.53362 10.1276 5.40156 10.2276 5.27118C10.33 5.14165 10.4145 5.02052 10.594 4.8321C10.8809 4.52003 11.2064 4.25002 11.5884 4.1903C11.7926 4.14824 11.9672 4.25759 12.1328 4.35096C12.3099 4.4233 12.4492 4.60247 12.6066 4.73032C12.937 5.05669 13.0665 5.25604 13.2526 5.50587C13.4305 5.74475 13.5838 5.99037 13.7429 6.23515C14.3569 7.21845 14.8939 8.22363 15.3972 9.23638C15.721 9.88659 16.0367 10.541 16.3367 11.2064L16.5351 11.6488C16.5728 11.7077 16.5786 11.8053 16.6425 11.828L17.3943 11.9567C18.7822 12.2048 20.1652 12.4782 21.5334 12.8197C23.2386 13.2462 20.7866 14.3296 17.5951 13.7466L16.5269 13.5507L15.4677 13.353C15.2751 13.0813 15.1751 12.6935 15.0234 12.368C14.7111 11.6244 14.4454 11.0289 14.1323 10.3602C13.5207 9.06983 12.8747 7.76604 12.1344 6.63638L11.8541 6.23346L11.7114 6.05598L11.6966 6.03159C11.6885 6.01476 11.668 5.97943 11.6425 5.99205C11.5934 6.03495 11.6803 5.90457 11.4032 6.25702C11.2048 6.51525 11.0088 6.79872 10.8186 7.09312C10.0562 8.27578 9.35612 9.56106 8.66749 10.8506C8.56501 11.0465 8.46254 11.2425 8.35842 11.441L8.12642 11.9003C8.03542 12.0736 7.94525 12.2452 7.84687 12.4109L6.63684 12.5724L5.81049 12.696C5.25876 12.7835 4.70704 12.8811 4.15941 12.9913C3.6126 13.1015 3.0658 13.2234 2.54604 13.3715L2.21484 13.4716C2.15582 13.4918 2.12139 13.5035 2.07712 13.5237C2.0017 13.5549 1.88283 13.6112 1.92791 13.718C1.93775 13.7853 1.96481 13.8493 1.99514 13.909L2.05006 13.9948L2.19271 14.1731C2.42061 14.4372 2.70017 14.6938 2.99939 14.9386C3.51095 15.3532 4.08153 15.7334 4.66277 16.1019L5.54897 16.6453L6.98362 17.4814L5.96625 19.7937L5.22351 21.5467C4.98085 22.1321 4.74393 22.7192 4.52094 23.308L4.24385 24.0667C4.19712 24.1997 4.15121 24.3368 4.11924 24.4806C4.11432 24.5353 4.08399 24.6152 4.13482 24.6514C4.19138 24.6606 4.24795 24.6791 4.30615 24.6825C4.42666 24.6884 4.54717 24.6741 4.66851 24.653L4.85132 24.6085C4.96855 24.5815 5.08742 24.537 5.20547 24.4957C5.68096 24.341 6.15152 24.1181 6.61717 23.8943C7.54518 23.4241 8.44286 22.8673 9.29873 22.2541C10.1202 21.6468 10.6563 21.2632 11.827 20.0948C12.1771 20.4372 12.5574 20.8098 12.8845 21.1084L13.6281 21.7754C14.1274 22.2171 14.643 22.6334 15.1644 23.0389C15.6924 23.4317 16.2228 23.8237 16.7786 24.1525C17.0508 24.3309 17.3377 24.4655 17.6172 24.6194L18.0452 24.8061C18.1698 24.8701 18.3739 24.9298 18.4264 24.9432C18.601 24.9996 18.8084 25.0358 18.9937 25.0122C19.0773 24.9954 19.2142 25.0122 19.2077 24.8818C19.2109 24.7809 19.1913 24.6825 19.1683 24.5866C19.1462 24.4907 19.1191 24.3982 19.0904 24.3082L18.9658 23.9305C18.8551 23.6041 18.7338 23.2777 18.6092 22.9514C18.3583 22.3003 18.0911 21.6518 17.8173 21.005L16.8655 18.7397C16.7032 18.3292 16.5212 17.9087 16.3687 17.4957C16.9188 17.404 17.4713 17.3123 18.0329 17.2189C18.6535 17.1045 19.1667 17.0095 19.5987 16.9304C19.9791 16.8606 20.2832 16.8093 20.5366 16.7798C21.0432 16.7176 21.3465 16.7521 21.6367 16.8539C21.7736 16.9069 21.9351 16.9203 22.0433 16.9758C22.2253 17.0532 22.1278 17.3039 21.7417 17.5815C21.3596 17.8582 20.7226 18.1349 19.8938 18.3629C19.5085 18.4697 19.0675 18.5782 18.7166 18.6598C18.6428 18.6901 18.5682 18.7204 18.492 18.7515C18.5149 18.8028 18.5518 18.8558 18.5772 18.8962L18.6149 18.9534C18.6256 18.9753 18.6158 18.9433 18.6436 19.0072L18.724 19.1931C18.9363 19.6936 19.1503 20.1958 19.3651 20.7013C19.5757 21.2102 19.7815 21.725 19.9815 22.2515L20.2734 23.0515L20.4128 23.462L20.4792 23.6722L20.58 24.0222C20.894 25.0736 20.9669 26.1671 20.048 26.4312L19.7627 26.5566C19.6569 26.581 19.5274 26.5692 19.4101 26.5767C19.1683 26.5759 18.9371 26.6062 18.6854 26.5801C18.442 26.565 18.1477 26.4565 17.887 26.3824C17.7197 26.3387 17.5804 26.2731 17.4352 26.2117C16.2769 25.7163 15.3169 25.0593 14.3864 24.3729C13.8085 23.9389 13.2493 23.488 12.7075 23.0178L11.9024 22.3037C11.8065 22.2154 11.845 22.2499 11.8368 22.2423L11.836 22.2398L11.8327 22.2339C11.8286 22.2356 11.8319 22.2305 11.818 22.2414C11.5663 22.4719 11.3031 22.6763 11.0449 22.8925C10.517 23.3013 9.98409 23.7 9.42744 24.0617C8.31825 24.7935 7.16725 25.4496 5.86295 25.9442L5.84492 25.9089Z" fill="#191818"/>
<path fill-rule="evenodd" clip-rule="evenodd" d="M72.8499 23.1063L73.031 23.7633C73.1171 24.0821 73.1975 24.4042 73.2376 24.7087C73.3286 25.3404 73.2622 25.809 72.9441 26.1791C72.7498 26.3389 72.5023 26.3784 72.2867 26.481C72.0342 26.5197 71.7481 26.497 71.4849 26.5071C71.2103 26.4886 70.9086 26.3725 70.6266 26.3111C70.3372 26.2581 70.0404 26.1059 69.9035 26.0394C69.3878 25.8005 68.905 25.5591 68.4623 25.2563C67.6859 24.7213 66.9735 24.1342 66.2882 23.5261C65.948 23.219 65.6118 22.9095 65.2823 22.5949L64.7904 22.1188C64.692 22.0221 64.6617 21.9876 64.6297 21.9514L64.5207 21.8328C64.4617 21.7697 64.4002 21.6991 64.3387 21.6436L64.0173 21.9548L63.7099 22.2374L63.3541 22.5512C62.5679 23.2317 61.7744 23.9399 60.7931 24.3176C60.1872 24.5388 60.0839 22.6967 60.9578 22.0751C61.4153 21.7521 61.8621 21.4156 62.3007 21.0733L62.6253 20.8142C62.7475 20.7141 62.7868 20.688 63.0557 20.45L64.3239 19.2446C64.8707 19.8031 65.4192 20.3633 65.9709 20.9269C66.2701 21.2415 66.5702 21.5578 66.8727 21.8766C67.7212 22.7564 68.7746 23.4722 69.7887 24.0863C70.0683 24.2495 70.3487 24.4143 70.6307 24.5371C70.7602 24.6036 70.7774 24.612 70.8512 24.6406C70.9127 24.665 70.9758 24.6961 71.0455 24.707C71.1143 24.7197 71.1865 24.7483 71.2611 24.7398C71.3242 24.7306 71.4414 24.7693 71.4529 24.6793C71.4808 24.543 71.4488 24.3983 71.4234 24.2461L71.3939 24.1039C71.3808 24.0501 71.3783 24.0274 71.3422 23.9021L71.1611 23.2889C71.0348 22.8784 70.8987 22.4687 70.7561 22.0608L70.0888 20.2027C69.7773 19.3977 69.4674 18.5961 69.1591 17.7978C69.146 17.7515 69.1001 17.6843 69.1157 17.6565C69.7846 17.548 70.4585 17.4151 71.1389 17.2485C71.5906 17.124 72.0366 16.9853 72.4752 16.8448L73.0638 16.6362C73.7935 16.3964 73.9927 16.4208 74.3304 16.7657C74.4083 16.8439 74.5026 16.9138 74.5747 16.9954C74.8387 17.2519 74.6026 17.744 74.0017 18.0468C73.3614 18.3748 72.7089 18.6003 72.0399 18.7929L71.5357 18.9275L71.4193 18.9561L71.4136 18.9645L71.4062 18.9788C71.4005 18.9956 71.4046 19.0057 71.4103 19.0124C71.4267 19.0267 71.4316 19.0242 71.4316 19.0242C71.9473 20.3305 72.4449 21.6873 72.8892 23.0903L72.8499 23.1063Z" fill="#191818"/>
<path fill-rule="evenodd" clip-rule="evenodd" d="M57.6466 11.0746L58.691 10.9257L59.1788 10.8626C59.2526 10.8559 59.2411 10.8626 59.2796 10.8618C59.296 10.8475 59.3092 10.8248 59.3247 10.8029L59.5494 10.3672L60.0453 9.4125C60.3798 8.77827 60.7233 8.14657 61.0824 7.51822C61.4775 6.83353 61.8448 6.12864 62.3277 5.45908C62.4383 5.30599 62.5556 5.1529 62.6818 4.99981C62.7335 4.93673 62.8245 4.82401 62.9376 4.71046C63.0401 4.5969 63.1458 4.48923 63.2606 4.40007C63.4819 4.2024 63.7295 4.07202 63.9919 4.02155C64.2681 3.95174 64.5255 4.07623 64.7559 4.19062C64.9223 4.31511 65.0658 4.46652 65.2199 4.60111C65.3724 4.7256 65.5183 4.93336 65.5888 5.01832C65.7643 5.24122 65.9086 5.46497 66.0561 5.68956C66.3422 6.13957 66.5964 6.5938 66.839 7.05223C67.3243 7.96824 67.7556 8.89772 68.1696 9.83476L68.909 11.5255L69.0246 11.793L69.0681 11.8922C69.0877 11.9175 69.1345 11.9082 69.1664 11.9183L69.8485 12.0285C71.3446 12.2758 72.8613 12.444 74.3213 12.889C75.2321 13.1666 73.7876 14.4384 72.0677 14.1314L69.7846 13.7049L68.2409 13.4021L67.9597 13.3466C67.9072 13.2742 67.8818 13.1691 67.8425 13.0816L67.6244 12.5357L67.3596 11.872C66.7784 10.4362 66.1651 8.99361 65.4896 7.6057C65.2953 7.20195 65.074 6.8167 64.8379 6.44407C64.7157 6.27164 64.5961 6.07901 64.4641 5.9276C64.3657 5.79975 64.3542 5.79218 64.2853 5.72825C64.2296 5.6618 64.1378 5.65086 64.0738 5.71227C64.0042 5.7661 63.9681 5.80732 63.8951 5.89816C63.6189 6.24556 63.3516 6.65015 63.0934 7.05895C62.6048 7.83366 62.1481 8.65294 61.7046 9.47895L60.2495 12.2733L59.2403 12.407C57.9712 12.582 56.6965 12.7746 55.4668 13.0597C55.2348 13.1153 55.0036 13.1725 54.7806 13.2381C54.5748 13.2986 54.4953 13.3222 54.36 13.3802C54.2395 13.424 54.0936 13.5224 54.1518 13.6738C54.1682 13.8084 54.2198 13.9396 54.2912 14.0573C54.3428 14.1516 54.4904 14.3492 54.6445 14.5099C54.7945 14.6764 54.9667 14.8329 55.1429 14.9851C55.4963 15.2896 55.8881 15.5647 56.2874 15.8263C56.5973 16.0307 56.9178 16.2191 57.2424 16.4008L58.3033 16.9686L59.0698 17.374L59.2657 17.4775L59.3641 17.5296C59.3649 17.5582 59.3428 17.5952 59.3329 17.628L59.1813 18.0343L58.6607 19.434C58.5459 19.7486 58.4484 20.0615 58.3254 20.3752C57.8712 21.5369 57.6237 21.8624 57.1416 21.9549C57.0318 21.9751 56.9145 22.0147 56.8137 22.0121C56.4743 22.0037 56.4292 21.4301 56.6981 20.5384C56.8973 19.8773 57.1154 19.2128 57.3457 18.5457L57.4302 18.3018L57.4261 18.2732L57.4171 18.2286C57.4056 18.2051 57.3457 18.2118 57.3302 18.2084L57.3252 18.2076L57.2679 18.1773L57.1506 18.1134L56.9162 17.983L56.4472 17.7164C56.1341 17.5347 55.8217 17.3454 55.5102 17.1419C54.8872 16.7305 54.2633 16.299 53.6632 15.6951C53.5517 15.5773 53.441 15.473 53.3336 15.3334L53.1697 15.129C53.1049 15.0465 53.0352 14.9103 52.9688 14.8035C52.6745 14.3568 52.5458 13.8479 52.5352 13.3794L52.5712 13.0337C52.636 12.9369 52.636 12.8074 52.6991 12.7107C52.8114 12.5138 52.9893 12.3649 53.1812 12.2228C53.391 12.0933 53.6239 11.9856 53.8649 11.8922L54.2141 11.7719L54.4346 11.7055C55.534 11.3993 56.5792 11.2176 57.6376 11.0368L57.6466 11.0746Z" fill="#191818"/>
<path fill-rule="evenodd" clip-rule="evenodd" d="M28.8175 14.2335L28.6544 14.2781L28.6159 14.2857L28.5708 14.2941C28.5421 14.2991 28.4978 14.3159 28.506 14.3521C28.5036 14.3782 28.5101 14.4059 28.5191 14.4345C28.5265 14.4497 28.529 14.4606 28.5413 14.4808L28.6872 14.6743C28.9159 14.9451 29.2078 15.2126 29.5176 15.4683C30.1473 15.9797 30.8572 16.4508 31.5844 16.9025L31.8959 17.0926L32.3591 17.3609L33.4953 18.0052L32.7862 19.6202C32.1754 20.961 31.5696 22.3077 31.0162 23.6611L30.6498 24.5957C30.594 24.7311 30.535 24.8775 30.4948 25.039C30.4875 25.0793 30.476 25.1214 30.4834 25.1626C30.4924 25.2089 30.5449 25.1937 30.5768 25.2089C30.649 25.2341 30.7252 25.2232 30.8031 25.2265C30.8818 25.2248 30.9597 25.2072 31.0417 25.1971C31.1195 25.1845 31.1876 25.1634 31.3819 25.1113C32.5476 24.7563 33.6921 24.1473 34.766 23.5005C36.1416 22.645 37.4377 21.6407 38.6928 20.691C39.0749 20.3949 39.3282 20.707 39.2683 21.3068C39.2126 21.9099 38.7896 22.7746 37.9845 23.3642C36.563 24.4081 35.0677 25.2947 33.4461 26.013C33.0354 26.1863 32.623 26.3545 32.1845 26.4941C32.0762 26.5295 31.9713 26.569 31.8549 26.5968L31.4475 26.7061C31.0613 26.8155 30.6908 26.8096 30.3202 26.8575C30.1243 26.8979 29.9882 26.8247 29.8226 26.8104C29.6701 26.7743 29.4849 26.781 29.3873 26.6792L29.2119 26.5614L29.125 26.5034L29.1036 26.4891L29.0922 26.4815C29.0463 26.5227 29.1528 26.4235 29.1405 26.4327L29.1381 26.4302L29.1323 26.4252L29.0897 26.3848C28.9815 26.2797 28.9061 26.1888 28.888 26.0416C28.7626 25.5007 29.0914 24.6243 29.3283 24.0043C29.73 23.0303 30.1358 22.047 30.5449 21.0536L31.1597 19.5757L31.4393 18.9229L31.5516 18.6824L31.5598 18.6664L31.3269 18.5167L30.6711 18.1137C30.1891 17.8109 29.7087 17.4972 29.2365 17.1573C28.7651 16.8158 28.2986 16.4533 27.8608 16.0109C27.6354 15.761 27.4559 15.597 27.2238 15.2084C26.9656 14.8391 26.864 14.4219 26.8164 14.0165L26.8279 13.8827C26.8443 13.3402 27.3927 13.1055 27.8707 12.9129L28.2306 12.7934L28.4962 12.7186L29.0241 12.5865C29.7251 12.4233 30.4211 12.2963 31.1163 12.1752L32.3763 11.9725L33.4109 11.8312C33.7093 11.3357 34.0085 10.842 34.3053 10.3499C34.6512 9.79558 34.9964 9.2421 35.3399 8.69114C35.794 7.98205 36.2343 7.27548 36.7302 6.58405C36.8549 6.41162 36.9827 6.24002 37.1197 6.06927L37.3435 5.80262C37.4468 5.6857 37.564 5.57888 37.6763 5.46532C37.9132 5.2626 38.1665 5.08091 38.4428 5.00269C38.7256 4.91857 39.0306 5.00437 39.22 5.17849C39.4176 5.34504 39.5881 5.58308 39.7668 5.8144L40.1365 6.29049C40.9391 7.36296 41.1055 7.77344 40.9547 8.26973C40.9202 8.38244 40.8989 8.51282 40.8481 8.6045C40.6776 8.91237 40.1513 8.63058 39.4938 7.87607L38.7666 7.02398C38.6068 6.82462 38.6248 6.87341 38.5871 6.84061C38.5584 6.82462 38.5404 6.80948 38.5166 6.8078C38.4559 6.82883 38.4297 6.89696 38.4149 6.92893C38.4133 6.93313 38.4125 6.93818 38.4067 6.94659L38.3313 7.03575L38.1723 7.23342L37.8542 7.65652C37.0114 8.82825 36.2015 10.1396 35.4136 11.4518C35.0595 12.0574 34.7045 12.6631 34.3487 13.2721L32.5706 13.5303L31.2966 13.7389C30.4555 13.8886 29.6045 14.0518 28.8307 14.2697L28.8175 14.2335Z" fill="#191818"/>
<path fill-rule="evenodd" clip-rule="evenodd" d="M8.84237 25.0126C8.09799 25.4912 7.33148 25.9311 6.52807 26.3172C6.12555 26.5081 5.71237 26.6856 5.28608 26.8429C5.06473 26.9136 4.85568 26.996 4.62532 27.054L4.28182 27.1407C4.15803 27.176 4.08015 27.1794 3.85716 27.2164C3.42431 27.2946 3.0718 27.2181 2.68239 27.1844L2.32742 26.9935C2.36923 26.9094 2.28971 26.9295 2.27987 26.8925L2.20855 26.8194C2.17903 26.7613 2.13476 26.7134 2.12083 26.6444C2.03311 26.3895 2.06672 26.0463 2.12247 25.7132C2.22412 25.1488 2.28971 24.973 2.36595 24.6753L2.60533 23.856L3.1218 22.246L4.2023 19.1211L4.31297 18.8217C4.15393 18.7241 3.28248 18.2371 2.67091 17.856C2.12985 17.5213 1.58222 17.1747 1.07476 16.7196C0.584523 16.2721 0.0746074 15.6455 5.64525e-06 14.8136C-0.00163395 14.2828 0.354159 14.4494 0.700935 14.6899C1.08624 14.9423 1.4904 15.0844 1.9126 15.4966C2.33562 15.9222 2.90702 16.3176 3.4817 16.702L4.37364 17.2697L5.91322 18.1908L5.39921 19.6502L5.11064 20.4232C4.91553 20.9363 4.71959 21.452 4.52284 21.9701C4.24657 22.6918 4.00965 23.4446 3.80142 24.2034C3.6973 24.5819 3.59893 24.9638 3.51367 25.3398L3.44808 25.6468C3.43579 25.7107 3.42349 25.7763 3.42431 25.8453C3.42513 25.9084 3.49727 25.8916 3.53662 25.9101C3.59893 25.9176 3.66697 25.9227 3.73419 25.9143C3.74485 25.9176 3.94242 25.8907 4.11704 25.8386C4.45972 25.7595 4.81141 25.6342 5.15655 25.4937C5.85092 25.2136 6.53381 24.8645 7.19867 24.481C8.09061 23.9586 8.95714 23.3748 9.76464 22.7238C9.97287 22.5598 10.1581 22.4008 10.3672 22.2157C10.6664 21.9516 10.9361 21.6749 11.2165 21.4133L12.0691 22.241L12.6643 22.7869C13.0611 23.1435 13.4677 23.4833 13.8809 23.8106C14.8458 24.56 15.8779 25.19 16.9272 25.6712C17.1568 25.7873 17.3912 25.8369 17.6191 25.9387C17.8307 26.0076 18.0012 26.0514 18.1438 26.1111C18.2807 26.1481 18.3848 26.1742 18.4758 26.2221C18.6619 26.3281 18.7415 26.3803 18.8743 26.5636C18.9308 26.6393 19.0103 26.7125 19.0604 26.7882C19.144 26.9161 19.1022 27.049 18.8898 27.1785C18.6685 27.3308 18.3135 27.3762 17.8716 27.335C16.6239 27.1247 15.5688 26.5426 14.5679 25.9084C13.5718 25.2624 12.643 24.518 11.751 23.7315L11.2239 23.2545C11.2239 23.2545 11.2239 23.2512 11.2231 23.2461L11.219 23.2445H11.2157L11.2181 23.2411L11.1403 23.3092C10.9001 23.5262 10.65 23.7239 10.4024 23.9258C9.90073 24.3169 9.38999 24.6921 8.86204 25.0395L8.84237 25.0126Z" fill="#191818"/>
<path fill-rule="evenodd" clip-rule="evenodd" d="M30.9427 22.4576L30.1196 24.2097L29.7319 25.0887L29.5515 25.5269L29.4654 25.7456L29.44 25.797C29.4031 25.8836 29.3425 26.0535 29.4884 26.0417L29.5032 26.0451C29.5466 26.0544 29.5999 26.067 29.6507 26.0687C29.6458 26.072 29.7802 26.0678 29.863 26.0636L30.1467 26.0325C30.5254 25.9929 30.9148 25.9257 31.301 25.8382C32.0732 25.6666 32.8471 25.4445 33.5997 25.1602C34.2678 24.9095 34.9204 24.5975 35.5254 24.2341C36.3083 23.7698 37.0101 23.2045 37.7274 22.72C37.9528 22.5728 38.1807 22.8277 38.2201 23.2483C38.2676 23.673 38.0799 24.2677 37.602 24.6101C35.9164 25.7953 34.0735 26.5372 32.1241 26.9451C31.6076 27.0494 31.0952 27.1529 30.5771 27.2572C30.3008 27.2925 30.0582 27.3497 29.7507 27.3649C29.3048 27.4271 28.9252 27.3455 28.5284 27.3026L28.262 27.1529L28.13 27.078C28.1587 26.9922 28.0677 26.9889 28.0546 26.9367C27.8529 26.586 28.0226 26.0308 28.1907 25.5253C28.2956 25.2216 28.3292 25.1493 28.3997 24.9676L28.5915 24.5033C28.8506 23.8875 29.1244 23.2861 29.4007 22.6864L30.4402 20.4876L30.7968 19.7465L31.0058 19.3369C30.5435 19.0602 30.0844 18.7859 29.6278 18.5134C28.8203 18.0272 27.9882 17.6067 27.2192 16.9413C27.052 16.7891 26.8782 16.6461 26.7281 16.4501C26.4461 16.0985 26.3207 15.7721 26.3133 15.5307C26.3027 15.2859 26.3969 15.1328 26.5675 15.0235C26.6429 14.9738 26.7175 14.9192 26.7954 14.8981C27.0749 14.851 27.2667 15.0798 27.5012 15.37C27.8849 15.8444 28.535 16.2919 29.208 16.7234C29.5474 16.9405 29.9024 17.155 30.2647 17.3686L31.4969 18.0861C31.9002 18.3166 32.3036 18.5479 32.7094 18.7801C32.1323 20.0073 31.5518 21.2404 30.9731 22.4702L30.9427 22.4576Z" fill="#191818"/>
<path fill-rule="evenodd" clip-rule="evenodd" d="M56.5816 18.6481C56.7677 18.7027 56.0414 18.2275 55.6331 17.9297C55.4634 17.8103 55.2741 17.7228 55.1085 17.5949C54.5231 17.1424 53.9558 16.6554 53.4189 16.1095C53.1836 15.8605 52.9237 15.6393 52.6868 15.3642C52.39 15.037 52.0096 14.5769 52.1047 13.9746C52.1326 13.7887 52.4753 13.8535 52.8147 13.9225C53.15 14.0024 53.4771 13.9931 53.5271 14.0924C53.7279 14.513 54.2805 15.095 54.7978 15.704C55.1175 16.0758 55.57 16.3097 55.9783 16.5965L56.6595 17.0717L57.0038 17.3081L57.1776 17.425L57.4449 17.5949L58.1016 18.0105L58.1819 18.0601C58.1934 18.0693 58.2114 18.0761 58.2188 18.087L58.1975 18.1333L58.1147 18.3183L57.9524 18.6834L57.5466 19.5851C57.4367 19.8257 57.3334 20.0679 57.2424 20.3152C57.1022 20.6988 57.0358 21.1051 56.9383 21.5004C56.9169 21.5879 56.9071 21.6779 56.8792 21.7629C56.7751 22.0783 56.6538 22.1422 56.3013 22.0749C56.2218 22.0589 56.139 22.0488 56.0619 22.027C55.7979 21.9538 55.6422 21.7418 55.6602 21.4844C55.7151 20.7207 55.9725 19.9947 56.2611 19.2789L56.4275 18.8827L56.5111 18.691L56.5169 18.6952C56.5218 18.7011 56.5595 18.6758 56.548 18.6674L56.5816 18.6481Z" fill="#191818"/>
</svg>
