<svg width="90" height="192" viewBox="0 0 90 192" fill="none" xmlns="http://www.w3.org/2000/svg">
<path d="M55.7801 161.926L26.1201 144.796V132.246L55.7801 149.376V161.926ZM26.7801 144.436L55.1801 160.826V149.826L26.7801 133.436V144.436Z" fill="white"/>
<path d="M53.0202 157.485L23.9902 140.725V128.945L53.0202 145.705V157.485Z" fill="#150035"/>
<path d="M30.2798 140.015C29.8822 139.79 29.5559 139.458 29.3384 139.057C29.1208 138.655 29.0208 138.201 29.0498 137.745C29.0498 137.225 29.1598 136.892 29.3798 136.745C29.5998 136.595 29.9198 136.645 30.3798 136.885C30.69 137.063 30.9673 137.293 31.1998 137.565L30.9898 138.085C30.8798 137.965 30.7698 137.865 30.6698 137.775C30.5826 137.69 30.4852 137.616 30.3798 137.555C30.0098 137.345 29.8198 137.555 29.8198 138.155C29.793 138.389 29.831 138.625 29.9298 138.839C30.0286 139.052 30.1843 139.234 30.3798 139.365C30.4972 139.438 30.6254 139.492 30.7598 139.525C30.8779 139.555 31.0017 139.555 31.1198 139.525V140.245C31.0045 140.27 30.8851 140.27 30.7698 140.245C30.5994 140.184 30.4354 140.107 30.2798 140.015Z" fill="#107FE4"/>
<path d="M34.0803 140.626C34.0803 141.126 33.9703 141.446 33.7403 141.626C33.5103 141.806 33.2003 141.726 32.8003 141.496C32.5396 141.35 32.3115 141.153 32.1303 140.916C31.9324 140.679 31.7798 140.408 31.6803 140.116C31.5803 139.816 31.5296 139.502 31.5303 139.186C31.5303 138.686 31.6403 138.353 31.8603 138.186C32.0903 138.036 32.4003 138.076 32.8603 138.316C33.1165 138.463 33.3436 138.657 33.5303 138.886C33.7231 139.128 33.8721 139.402 33.9703 139.696C34.0625 139.997 34.0998 140.312 34.0803 140.626ZM32.2603 139.626C32.2506 139.885 32.2949 140.144 32.3903 140.386C32.4698 140.588 32.6188 140.754 32.8103 140.856C33.0003 140.966 33.1403 140.976 33.2203 140.856C33.3238 140.67 33.3691 140.458 33.3503 140.246C33.3553 139.99 33.3112 139.735 33.2203 139.496C33.1346 139.298 32.9873 139.133 32.8003 139.026C32.6103 138.916 32.4703 138.916 32.3903 139.026C32.2949 139.193 32.2498 139.384 32.2603 139.576V139.626Z" fill="#107FE4"/>
<path d="M37.1099 143.906L36.3899 143.486V141.706C36.3923 141.518 36.3584 141.331 36.2899 141.156C36.219 141.007 36.1036 140.885 35.9599 140.806C35.7599 140.696 35.6199 140.686 35.5299 140.806C35.4133 141.019 35.3645 141.263 35.3899 141.506V142.936L34.6699 142.516V139.516L35.2199 139.836L35.3199 140.276C35.3592 140.226 35.4096 140.187 35.4669 140.161C35.5243 140.135 35.587 140.123 35.6499 140.126C35.8213 140.143 35.9859 140.201 36.1299 140.296C36.4231 140.456 36.6655 140.695 36.8299 140.986C37.0003 141.291 37.0834 141.637 37.0699 141.986L37.1099 143.906Z" fill="#107FE4"/>
<path d="M40.2798 145.738L39.5598 145.318V143.548C39.5641 143.355 39.5266 143.164 39.4498 142.988C39.3857 142.838 39.273 142.715 39.1298 142.638C38.9298 142.528 38.7898 142.518 38.6998 142.638C38.5832 142.851 38.5344 143.096 38.5598 143.338V144.768L37.8398 144.348V141.348L38.3898 141.668L38.4898 142.108C38.5291 142.058 38.5795 142.019 38.6369 141.993C38.6942 141.967 38.7569 141.955 38.8198 141.958C38.9901 141.98 39.1537 142.038 39.2998 142.128C39.5953 142.285 39.8386 142.524 39.9998 142.818C40.1703 143.123 40.2533 143.469 40.2398 143.818L40.2798 145.738Z" fill="#107FE4"/>
<path d="M42.2098 146.907C41.7956 146.666 41.451 146.321 41.2098 145.907C40.9685 145.495 40.8441 145.025 40.8498 144.547C40.8498 144.037 40.9598 143.707 41.1898 143.547C41.4198 143.387 41.7098 143.437 42.0998 143.657C42.4599 143.867 42.7596 144.167 42.9698 144.527C43.1769 144.889 43.2839 145.3 43.2798 145.717V146.127L41.5798 145.127C41.5859 145.355 41.6477 145.578 41.7598 145.777C41.8773 145.974 42.0423 146.139 42.2398 146.257C42.3817 146.341 42.5326 146.408 42.6898 146.457C42.8325 146.5 42.9806 146.524 43.1298 146.527V147.247C42.9929 147.243 42.8578 147.216 42.7298 147.167C42.5461 147.103 42.3713 147.015 42.2098 146.907ZM42.0998 144.287C41.9498 144.197 41.8298 144.177 41.7498 144.287C41.6978 144.335 41.6573 144.394 41.6314 144.46C41.6054 144.526 41.5946 144.596 41.5998 144.667L42.5998 145.257C42.596 145.062 42.5482 144.871 42.4598 144.697C42.3937 144.511 42.2669 144.352 42.0998 144.247V144.287Z" fill="#107FE4"/>
<path d="M44.9296 148.476C44.5312 148.252 44.2043 147.92 43.9866 147.519C43.7689 147.117 43.6694 146.662 43.6996 146.206C43.6996 145.686 43.8196 145.366 44.0396 145.206C44.2596 145.046 44.5796 145.106 45.0396 145.356C45.3458 145.536 45.6224 145.762 45.8596 146.026L45.6496 146.546L45.3296 146.236C45.2404 146.153 45.1433 146.08 45.0396 146.016C44.6596 145.806 44.4796 146.016 44.4796 146.616C44.4493 146.85 44.4857 147.088 44.5848 147.302C44.6839 147.516 44.8416 147.698 45.0396 147.826C45.156 147.901 45.2846 147.955 45.4196 147.986C45.535 148.011 45.6543 148.011 45.7696 147.986V148.696C45.6542 148.72 45.535 148.72 45.4196 148.696C45.2477 148.644 45.083 148.57 44.9296 148.476Z" fill="#107FE4"/>
<path d="M47.45 149.248C47.5928 149.33 47.7483 149.387 47.91 149.418V150.038C47.6747 150.009 47.4491 149.926 47.2501 149.798C46.9812 149.678 46.7496 149.488 46.58 149.248C46.4414 148.979 46.3726 148.68 46.38 148.378V146.918L46.04 146.718V146.368H46.4301L46.64 145.848L47.1 146.108V146.758L47.8401 147.178V147.808L47.1 147.378V148.848C47.099 148.958 47.1303 149.065 47.19 149.158C47.2679 149.209 47.3572 149.24 47.45 149.248Z" fill="#107FE4"/>
<path d="M39.9902 152.227H39.4102V153.007H39.9902V152.227Z" fill="white"/>
<path d="M39.9902 171.084H39.4102V169.574H39.9902V171.084ZM39.9902 168.084H39.4102V166.584H39.9902V168.084ZM39.9902 165.084H39.4102V163.544H39.9902V165.084ZM39.9902 162.084H39.4102V160.574H39.9902V162.084ZM39.9902 159.084H39.4102V157.574H39.9902V159.084ZM39.9902 156.084H39.4102V154.574H39.9902V156.084Z" fill="white"/>
<path d="M39.9902 172.586H39.4102V173.366H39.9902V172.586Z" fill="white"/>
<path d="M25.6302 24.5978L22.8502 23.1878C21.2081 22.3378 19.3656 21.9506 17.5202 22.0678L17.4502 21.0678C19.4744 20.9225 21.5 21.3304 23.3102 22.2478L26.0902 23.6578L25.6302 24.5978Z" fill="#150035"/>
<path d="M7.05017 45.2469H6.05017V32.0569C6.03326 30.1004 6.59703 28.1829 7.67017 26.5469C9.32169 24.0882 11.8087 22.3117 14.6702 21.5469L14.9402 22.5469C12.327 23.2344 10.0547 24.8524 8.55017 27.0969C7.58057 28.5819 7.07893 30.3236 7.11017 32.0969L7.05017 45.2469Z" fill="#150035"/>
<path d="M7.04028 47.8164H6.03027V55.4564H7.04028V47.8164Z" fill="#150035"/>
<path d="M73.2201 191.708L72.3701 191.158L73.9501 188.738C75.2234 186.775 75.9007 184.486 75.9001 182.147V156.688H76.9001V182.147C76.905 184.683 76.168 187.165 74.7801 189.287L73.2201 191.708Z" fill="#150035"/>
<path d="M76.9104 145.668H75.9004V153.938H76.9104V145.668Z" fill="#150035"/>
<path d="M62.58 75.4368C62.7908 76.3059 63.2452 77.0969 63.89 77.7168C63.71 77.7168 62.72 77.5868 62.58 78.4768C62.333 77.6234 61.8596 76.8528 61.21 76.2468C61.39 76.2468 62.3899 76.3868 62.5399 75.4868C62.5799 75.4168 62.58 75.4268 62.58 75.4368Z" fill="#150035"/>
<path d="M58.7497 73.2444C58.9631 74.1125 59.4172 74.9028 60.0597 75.5244C59.8797 75.5244 58.8897 75.3944 58.7497 76.2844C58.5295 75.4167 58.0725 74.6274 57.4297 74.0044C57.6097 74.0044 58.5997 74.1344 58.7497 73.2344C58.7297 73.2444 58.7497 73.2444 58.7497 73.2444Z" fill="#150035"/>
<path d="M54.9401 71.0448C55.1618 71.9096 55.6147 72.6978 56.2501 73.3248C56.0801 73.3248 55.0901 73.1948 54.9401 74.0948C54.7126 73.221 54.2409 72.4301 53.5801 71.8148C53.7601 71.8148 54.7601 71.9448 54.9001 71.0548C54.9301 71.0148 54.9401 71.0248 54.9401 71.0448Z" fill="#150035"/>
<path d="M51.1403 68.847C51.3537 69.7152 51.8078 70.5054 52.4503 71.127C52.2703 71.127 51.2803 70.997 51.1403 71.897C50.9137 71.0291 50.4578 70.2381 49.8203 69.607C49.9903 69.607 50.9903 69.737 51.1403 68.847C51.1303 68.827 51.1203 68.827 51.1403 68.847Z" fill="#150035"/>
<path d="M47.3298 66.647C47.5432 67.5151 47.9972 68.3054 48.6398 68.927C48.4598 68.927 47.4698 68.797 47.3298 69.687C47.1093 68.8165 46.6525 68.024 46.0098 67.397C46.1898 67.397 47.1798 67.527 47.3298 66.637C47.3098 66.627 47.3298 66.637 47.3298 66.647Z" fill="#150035"/>
<path d="M43.5197 64.4451C43.7435 65.3119 44.1959 66.1028 44.8297 66.7351C44.6597 66.7351 43.6697 66.6051 43.5197 67.4951C43.2927 66.6343 42.8284 65.8547 42.1797 65.2451C42.3597 65.2451 43.3597 65.3851 43.4997 64.4851C43.5097 64.4251 43.5197 64.4351 43.5197 64.4451Z" fill="#150035"/>
<path d="M39.7204 62.2461C39.9338 63.1142 40.3879 63.9045 41.0304 64.5261C40.8504 64.5261 39.8604 64.3961 39.7204 65.2961C39.4963 64.43 39.0399 63.6417 38.4004 63.0161C38.5704 63.0161 39.5704 63.1461 39.7204 62.2461C39.7104 62.2461 39.7004 62.2461 39.7204 62.2461Z" fill="#150035"/>
<path d="M35.9101 60.0569C36.1235 60.925 36.5776 61.7153 37.2201 62.3369C37.0401 62.3369 36.0501 62.2069 35.9101 63.1069C35.689 62.2373 35.2282 61.4474 34.5801 60.8269C34.7601 60.8269 35.7601 60.9569 35.9001 60.0669C35.8901 60.0369 35.9101 60.0369 35.9101 60.0569Z" fill="#150035"/>
<path d="M32.1003 57.8553C32.322 58.7201 32.7748 59.5082 33.4102 60.1353C33.2402 60.1353 32.2503 60.0153 32.1003 60.9053C31.8837 60.0333 31.4263 59.2397 30.7803 58.6153C30.9603 58.6153 31.9603 58.7453 32.1003 57.8553C32.1003 57.8453 32.0903 57.8353 32.1003 57.8553Z" fill="#150035"/>
<path d="M62.58 71.0267C62.7934 71.8949 63.2475 72.6852 63.89 73.3067C63.71 73.3067 62.72 73.1767 62.58 74.0767C62.3567 73.2052 61.8963 72.4126 61.25 71.7867C61.43 71.7867 62.43 71.9167 62.58 71.0267C62.58 71.0067 62.58 70.9967 62.58 71.0267Z" fill="#150035"/>
<path d="M58.7497 68.8266C58.9631 69.6948 59.4172 70.4851 60.0597 71.1066C59.8797 71.1066 58.8897 70.9766 58.7497 71.8666C58.5292 70.9962 58.0724 70.2037 57.4297 69.5766C57.6097 69.5766 58.5997 69.7066 58.7497 68.8166C58.7297 68.8066 58.7497 68.8166 58.7497 68.8266Z" fill="#150035"/>
<path d="M54.9401 66.6261C55.1638 67.493 55.6163 68.2838 56.2501 68.9161C56.0801 68.9161 55.0901 68.7861 54.9401 69.6761C54.714 68.8046 54.2419 68.0166 53.5801 67.4061C53.7601 67.4061 54.7601 67.5461 54.9001 66.6461C54.9301 66.6061 54.9401 66.6161 54.9401 66.6261Z" fill="#150035"/>
<path d="M51.1398 64.4366C51.3532 65.3047 51.8073 66.095 52.4498 66.7166C52.2698 66.7166 51.2798 66.5866 51.1398 67.4766C50.9018 66.6263 50.4389 65.8559 49.7998 65.2466C49.9698 65.2466 50.9698 65.3766 51.1198 64.4766C51.1198 64.4066 51.1298 64.4166 51.1398 64.4366Z" fill="#150035"/>
<path d="M47.3298 62.2461C47.5432 63.1142 47.9972 63.9045 48.6398 64.5261C48.4598 64.5261 47.4698 64.3961 47.3298 65.2961C47.1093 64.4257 46.6525 63.6331 46.0098 63.0061C46.1898 63.0061 47.1798 63.1361 47.3298 62.2461Z" fill="#150035"/>
<path d="M43.5202 60.035C43.7419 60.8998 44.1948 61.6879 44.8302 62.315C44.6602 62.315 43.6702 62.185 43.5202 63.085C43.3037 62.213 42.8463 61.4194 42.2002 60.795C42.3802 60.795 43.3802 60.925 43.5202 60.035C43.5202 60.025 43.5102 60.015 43.5202 60.035Z" fill="#150035"/>
<path d="M39.7204 57.8342C39.9346 58.7049 40.3884 59.4982 41.0304 60.1242C40.8504 60.1242 39.8604 59.9942 39.7204 60.8842C39.4963 60.0182 39.0399 59.2298 38.4004 58.6042C38.5704 58.6042 39.5704 58.7342 39.7204 57.8442C39.7004 57.8142 39.7104 57.8242 39.7204 57.8342Z" fill="#150035"/>
<path d="M35.9101 55.635C36.1212 56.5069 36.5755 57.301 37.2201 57.925C37.0401 57.925 36.0501 57.795 35.9101 58.685C35.6893 57.8182 35.2283 57.0313 34.5801 56.415C34.7601 56.415 35.7601 56.545 35.9001 55.645C35.8901 55.615 35.9101 55.625 35.9101 55.635Z" fill="#150035"/>
<path d="M32.0998 53.4444C32.3215 54.3092 32.7743 55.0973 33.4098 55.7244C33.2398 55.7244 32.2498 55.5944 32.0998 56.4944C31.8733 55.6335 31.4089 54.8537 30.7598 54.2444C30.9398 54.2444 31.9398 54.3744 32.0798 53.4844C32.0898 53.4144 32.0998 53.4244 32.0998 53.4444Z" fill="#150035"/>
<path d="M62.58 66.6055C62.7911 67.4774 63.2454 68.2715 63.89 68.8955C63.71 68.8955 62.72 68.7655 62.58 69.6555C62.3574 68.7865 61.8968 67.9969 61.25 67.3755C61.43 67.3755 62.43 67.5055 62.58 66.6055Z" fill="#150035"/>
<path d="M58.7497 64.4174C58.9631 65.2855 59.4172 66.0758 60.0597 66.6974C59.8797 66.6974 58.8897 66.5674 58.7497 67.4674C58.5317 66.596 58.0745 65.8028 57.4297 65.1774C57.6097 65.1774 58.5997 65.3074 58.7497 64.4174C58.7497 64.3974 58.7297 64.3874 58.7497 64.4174Z" fill="#150035"/>
<path d="M54.9401 62.2466C55.1618 63.1113 55.6147 63.8995 56.2501 64.5266C56.0801 64.5266 55.0901 64.3966 54.9401 65.2966C54.7158 64.4128 54.244 63.6114 53.5801 62.9866C53.7601 62.9866 54.7601 63.1166 54.9001 62.2266C54.9301 62.2466 54.9401 62.2466 54.9401 62.2466Z" fill="#150035"/>
<path d="M51.1403 60.0155C51.3512 60.8846 51.8056 61.6756 52.4503 62.2955C52.2703 62.2955 51.2803 62.1655 51.1403 63.0555C50.9186 62.1884 50.4618 61.3994 49.8203 60.7755C49.9903 60.7755 50.9903 60.9055 51.1403 60.0155C51.1303 60.0055 51.1203 59.9955 51.1403 60.0155Z" fill="#150035"/>
<path d="M47.3298 57.8256C47.5432 58.6937 47.9972 59.484 48.6398 60.1056C48.4598 60.1056 47.4698 59.9756 47.3298 60.8656C47.1096 59.998 46.6525 59.2086 46.0098 58.5856C46.1898 58.5856 47.1798 58.7156 47.3298 57.8156C47.3098 57.7956 47.3298 57.8056 47.3298 57.8256Z" fill="#150035"/>
<path d="M43.5202 55.6244C43.7419 56.4892 44.1948 57.2773 44.8302 57.9044C44.6602 57.9044 43.6702 57.7744 43.5202 58.6744C43.3062 57.8014 42.8484 57.0071 42.2002 56.3844C42.3802 56.3844 43.3802 56.5144 43.5202 55.6244C43.5202 55.6044 43.5102 55.5944 43.5202 55.6244Z" fill="#150035"/>
<path d="M39.7199 53.4276C39.9333 54.2957 40.3874 55.086 41.0299 55.7076C40.8499 55.7076 39.8599 55.5776 39.7199 56.4776C39.4823 55.6271 39.0193 54.8566 38.3799 54.2476C38.5499 54.2476 39.5499 54.3776 39.6999 53.4876C39.6999 53.3976 39.7099 53.4076 39.7199 53.4276Z" fill="#150035"/>
<path d="M35.9101 51.2444C36.1235 52.1125 36.5776 52.9028 37.2201 53.5244C37.0401 53.5244 36.0501 53.3944 35.9101 54.2844C35.6907 53.4112 35.2298 52.6176 34.5801 51.9944C34.7601 51.9944 35.7601 52.1344 35.9001 51.2344L35.9101 51.2444Z" fill="#150035"/>
<path d="M32.1003 49.0272C32.3191 49.8931 32.7724 50.682 33.4102 51.3072C33.2402 51.3072 32.2503 51.1772 32.1003 52.0672C31.884 51.1979 31.4265 50.4075 30.7803 49.7872C30.9603 49.7872 31.9603 49.9272 32.1003 49.0272C32.1003 49.0172 32.0903 49.0072 32.1003 49.0272Z" fill="#150035"/>
<path d="M28.3002 55.6561C28.5026 56.5219 28.9465 57.3124 29.5802 57.9361C29.4002 57.9361 28.4102 57.8061 28.2702 58.6961C28.0461 57.83 27.5897 57.0416 26.9502 56.4161C27.1202 56.4161 28.1202 56.5461 28.2702 55.6561C28.2802 55.6361 28.2902 55.6461 28.3002 55.6561Z" fill="#150035"/>
<path d="M24.4904 53.4543C24.7015 54.3262 25.1558 55.1203 25.8004 55.7443C25.6204 55.7443 24.6304 55.6143 24.4904 56.5043C24.2651 55.6399 23.8007 54.8566 23.1504 54.2443C23.3304 54.2443 24.3304 54.3743 24.4704 53.4743C24.4704 53.4343 24.4904 53.4443 24.4904 53.4543Z" fill="#150035"/>
<path d="M20.6804 51.2461C20.9021 52.1109 21.3549 52.899 21.9904 53.5261C21.8204 53.5261 20.8304 53.3961 20.6804 54.2861C20.4641 53.4168 20.0065 52.6264 19.3604 52.0061C19.5404 52.0061 20.5404 52.1361 20.6804 51.2461Z" fill="#150035"/>
<path d="M16.8801 49.0647C17.0935 49.9329 17.5476 50.7231 18.1901 51.3447C18.0101 51.3447 17.0201 51.2247 16.8801 52.1147C16.6575 51.2525 16.2087 50.4654 15.5801 49.8347C15.7501 49.8347 16.7501 49.9647 16.9001 49.0747C16.8601 49.0447 16.8701 49.0447 16.8801 49.0647Z" fill="#150035"/>
<path d="M28.3002 51.2461C28.5052 52.1109 28.9486 52.9008 29.5802 53.5261C29.4002 53.5261 28.4102 53.3961 28.2702 54.2961C28.0436 53.4282 27.5876 52.6372 26.9502 52.0061C27.1202 52.0061 28.1202 52.1361 28.2702 51.2461C28.2802 51.2461 28.2902 51.2461 28.3002 51.2461Z" fill="#150035"/>
<path d="M24.4899 49.0469C24.7033 49.915 25.1574 50.7053 25.7999 51.3269C25.6199 51.3269 24.6299 51.2069 24.4899 52.0969C24.2734 51.2248 23.816 50.4313 23.1699 49.8069C23.3499 49.8069 24.3499 49.9369 24.4899 49.0469Z" fill="#150035"/>
<path d="M20.6804 46.8475C20.9041 47.7143 21.3565 48.5052 21.9904 49.1375C21.8204 49.1375 20.8304 49.0075 20.6804 49.8975C20.4641 49.0282 20.0065 48.2378 19.3604 47.6175C19.5404 47.6175 20.5404 47.7475 20.6804 46.8475C20.6804 46.8375 20.6704 46.8275 20.6804 46.8475Z" fill="#150035"/>
<path d="M16.8801 44.6445C17.0912 45.5165 17.5455 46.3105 18.1901 46.9345C18.0101 46.9345 17.0201 46.8045 16.8801 47.6945C16.66 46.8342 16.2107 46.0497 15.5801 45.4245C15.7501 45.4245 16.7501 45.5545 16.9001 44.6545L16.8801 44.6445Z" fill="#150035"/>
<path d="M28.3002 46.8342C28.5052 47.699 28.9486 48.4889 29.5802 49.1142C29.4002 49.1142 28.4102 48.9842 28.2702 49.8742C28.0461 49.0082 27.5897 48.2198 26.9502 47.5942C27.1202 47.5942 28.1202 47.7242 28.2702 46.8242L28.3002 46.8342Z" fill="#150035"/>
<path d="M24.4899 44.6347C24.7033 45.5028 25.1574 46.2931 25.7999 46.9147C25.6199 46.9147 24.6299 46.7847 24.4899 47.6847C24.2737 46.8154 23.8161 46.025 23.1699 45.4047C23.3499 45.4047 24.3499 45.5347 24.4899 44.6447C24.4699 44.6047 24.4899 44.6147 24.4899 44.6347Z" fill="#150035"/>
<path d="M20.6799 42.4373C20.9016 43.3021 21.3544 44.0902 21.9899 44.7173C21.8199 44.7173 20.8299 44.5973 20.6799 45.4873C20.4492 44.631 19.9853 43.8555 19.3398 43.2473C19.5198 43.2473 20.5199 43.3773 20.6599 42.4873C20.6699 42.4173 20.6799 42.4173 20.6799 42.4373Z" fill="#150035"/>
<path d="M16.8801 40.2461C17.0943 41.1168 17.5481 41.9101 18.1901 42.5361C18.0101 42.5361 17.0201 42.4061 16.8801 43.2961C16.6617 42.4322 16.2123 41.6441 15.5801 41.0161C15.7501 41.0161 16.7501 41.1461 16.9001 40.2561L16.8801 40.2461Z" fill="#150035"/>
<path d="M78.6702 67.6548C78.3296 67.6548 77.9966 67.5537 77.7136 67.3643C77.4305 67.1748 77.2101 66.9056 77.0802 66.5907C76.9503 66.2759 76.9168 65.9295 76.984 65.5956C77.0512 65.2617 77.216 64.9552 77.4575 64.7151C77.6991 64.4749 78.0065 64.3119 78.3408 64.2467C78.6751 64.1815 79.0213 64.2169 79.3354 64.3487C79.6495 64.4804 79.9174 64.7024 80.1052 64.9866C80.293 65.2707 80.3921 65.6042 80.3902 65.9448C80.3875 66.3993 80.2052 66.8342 79.8829 67.1546C79.5606 67.475 79.1246 67.6549 78.6702 67.6548ZM78.6702 65.0048C78.4843 65.0048 78.3025 65.06 78.1479 65.1633C77.9933 65.2666 77.8729 65.4134 77.8017 65.5851C77.7306 65.7569 77.712 65.9459 77.7482 66.1282C77.7845 66.3106 77.874 66.4781 78.0055 66.6095C78.137 66.741 78.3044 66.8305 78.4868 66.8668C78.6691 66.9031 78.8581 66.8844 79.0299 66.8133C79.2017 66.7421 79.3485 66.6217 79.4518 66.4671C79.555 66.3125 79.6102 66.1308 79.6102 65.9448C79.6076 65.6963 79.5077 65.4588 79.332 65.283C79.1562 65.1073 78.9187 65.0074 78.6702 65.0048Z" fill="#150035"/>
<path d="M43.7606 186.924C43.4187 186.924 43.0846 186.822 42.801 186.631C42.5173 186.441 42.2969 186.17 42.168 185.853C42.0391 185.536 42.0074 185.189 42.0771 184.854C42.1468 184.519 42.3146 184.213 42.5592 183.974C42.8038 183.735 43.1139 183.574 43.4502 183.513C43.7864 183.451 44.1334 183.491 44.447 183.627C44.7605 183.763 45.0262 183.99 45.2103 184.278C45.3944 184.566 45.4885 184.903 45.4806 185.244C45.4701 185.694 45.2843 186.121 44.9629 186.435C44.6414 186.749 44.2099 186.924 43.7606 186.924ZM43.7606 184.264C43.5746 184.264 43.3929 184.32 43.2383 184.423C43.0838 184.526 42.9633 184.673 42.8921 184.845C42.821 185.016 42.8023 185.205 42.8386 185.388C42.8749 185.57 42.9644 185.738 43.0959 185.869C43.2273 186.001 43.3948 186.09 43.5772 186.126C43.7595 186.163 43.9485 186.144 44.1203 186.073C44.2921 186.002 44.4388 185.881 44.5421 185.727C44.6454 185.572 44.7006 185.39 44.7006 185.204C44.7032 185.079 44.6809 184.955 44.6348 184.839C44.5888 184.722 44.52 184.616 44.4324 184.527C44.3449 184.437 44.2403 184.366 44.125 184.318C44.0096 184.269 43.8857 184.244 43.7606 184.244V184.264Z" fill="#150035"/>
<path d="M5.35031 91.0664H4.57031V95.2764H5.35031V91.0664Z" fill="#150035"/>
<path d="M7.0596 92.7852H2.84961V93.5652H7.0596V92.7852Z" fill="#150035"/>
<path d="M82.4997 143.305H81.7197V147.515H82.4997V143.305Z" fill="#150035"/>
<path d="M84.21 145.027H80V145.807H84.21V145.027Z" fill="#150035"/>
<path d="M18.9402 156.365H17.4502C17.185 156.365 16.9306 156.26 16.7431 156.072C16.5556 155.885 16.4502 155.63 16.4502 155.365V153.875C16.4502 153.61 16.5556 153.355 16.7431 153.168C16.9306 152.98 17.185 152.875 17.4502 152.875H18.9402C19.2054 152.875 19.4598 152.98 19.6473 153.168C19.8348 153.355 19.9402 153.61 19.9402 153.875V155.365C19.9402 155.63 19.8348 155.885 19.6473 156.072C19.4598 156.26 19.2054 156.365 18.9402 156.365ZM17.4502 153.705C17.3972 153.705 17.3463 153.726 17.3088 153.764C17.2713 153.801 17.2502 153.852 17.2502 153.905V155.395C17.2528 155.446 17.275 155.495 17.3122 155.53C17.3494 155.565 17.3988 155.585 17.4502 155.585H18.9402C18.9906 155.585 19.0389 155.565 19.0746 155.529C19.1102 155.494 19.1302 155.445 19.1302 155.395V153.905C19.1316 153.879 19.1277 153.853 19.1187 153.829C19.1098 153.805 19.096 153.783 19.0782 153.764C19.0604 153.745 19.039 153.731 19.0153 153.72C18.9916 153.71 18.966 153.705 18.9402 153.705H17.4502Z" fill="#150035"/>
<path d="M85.3003 56.7556C77.1403 52.2856 72.9503 36.9456 72.1503 33.7556L72.3203 33.4756L73.0803 31.8956C73.0942 31.865 73.0957 31.8302 73.0845 31.7985C73.0734 31.7668 73.0503 31.7407 73.0203 31.7256L70.5803 30.5156C70.383 30.3795 70.1675 30.2718 69.9403 30.1956C69.1226 29.9518 68.2454 30.0013 67.4603 30.3356C64.4603 31.4656 61.5503 35.4756 61.0203 39.2756C60.6803 41.6456 61.3403 43.3756 62.6203 44.0656L65.3103 45.4156L65.4903 45.1156C69.0603 46.7456 76.7303 51.5356 79.9603 63.4956C80.0491 63.9897 80.3203 64.4323 80.7203 64.7356L83.5803 66.1756L84.3803 63.8156L84.2803 63.7356C85.394 62.6224 86.1317 61.1889 86.3903 59.6356C86.5803 58.1656 86.1203 57.1256 85.3003 56.7556Z" fill="white"/>
<path d="M83.5197 66.6566L83.3297 66.5666L80.5197 65.1266C79.9984 64.7677 79.6392 64.2182 79.5197 63.5966C76.4097 52.1066 69.0497 47.3266 65.6597 45.6866L65.4797 45.9966L62.4097 44.4666C60.8997 43.6466 60.2197 41.6866 60.5697 39.2166C61.1197 35.2766 64.1397 31.1066 67.2997 29.9266C68.1779 29.558 69.1568 29.5049 70.0697 29.7766C70.3385 29.8653 70.5941 29.9897 70.8297 30.1466L73.2097 31.3266C73.3428 31.3953 73.4441 31.5127 73.4925 31.6543C73.541 31.796 73.5328 31.9509 73.4697 32.0866L72.5797 33.8266C73.4397 37.2166 77.5797 52.0366 85.4597 56.3666C86.4597 56.8366 86.9797 58.0766 86.7497 59.6866C86.502 61.1988 85.8251 62.608 84.7997 63.7466L83.8597 66.5066L83.5197 66.6566ZM65.3097 44.5466L65.6797 44.7066C68.9897 46.2266 77.0597 51.0866 80.3897 63.3866C80.4533 63.7824 80.664 64.1396 80.9797 64.3866L83.2897 65.5666L83.8297 63.9866L83.5497 63.8066L83.9297 63.4266C84.9814 62.3791 85.6805 61.0299 85.9297 59.5666C86.0897 58.3866 85.7897 57.4666 85.1297 57.1666C76.7897 52.5966 72.5297 36.9666 71.7597 33.8866V33.7066L72.0197 33.2666L72.6297 32.0066L70.4697 30.9266C70.2915 30.8024 70.0961 30.7047 69.8897 30.6366C69.1651 30.4321 68.3924 30.4815 67.6997 30.7766C64.8097 31.8566 62.0497 35.7066 61.5297 39.3566C61.2397 41.4466 61.7597 43.0666 62.9097 43.7066L65.2197 44.8566L65.3097 44.5466Z" fill="#150035"/>
<path d="M87.89 58.0551C78.76 53.0551 74.5901 34.4551 74.5901 34.4551C74.2701 31.9551 72.49 30.7251 70.05 31.6351C67.05 32.7651 64.13 36.7651 63.6 40.5651C63.19 43.4851 64.2901 45.4351 66.1801 45.6751C66.1801 45.6751 78.26 48.9351 82.58 64.7951C82.6178 65.0825 82.7244 65.3564 82.8907 65.5938C83.057 65.8311 83.2782 66.0248 83.5354 66.1583C83.7927 66.2918 84.0783 66.3612 84.3681 66.3607C84.6579 66.3601 84.9433 66.2896 85.2 66.1551C86.2047 65.6496 87.0728 64.9094 87.7308 63.9973C88.3888 63.0852 88.8173 62.028 88.98 60.9151C89.14 59.4651 88.71 58.4151 87.89 58.0551Z" fill="#150035"/>
<path d="M84.2599 66.7769C83.9108 66.7788 83.5669 66.6929 83.2599 66.5269C82.9633 66.3525 82.7086 66.1153 82.5134 65.832C82.3182 65.5487 82.1873 65.2261 82.1298 64.8869C77.9698 49.5069 66.1998 46.1369 66.1298 46.1069C65.7181 46.0527 65.3216 45.9158 64.9642 45.7044C64.6067 45.4931 64.2957 45.2116 64.0499 44.8769C63.2141 43.5841 62.9196 42.0148 63.2299 40.5069C63.7899 36.5669 66.8099 32.3969 69.9599 31.2169C70.4975 30.979 71.0824 30.867 71.6699 30.8896C72.2574 30.9121 72.832 31.0685 73.3498 31.3469C73.8483 31.6833 74.2645 32.1277 74.5674 32.6471C74.8704 33.1665 75.0524 33.7475 75.0998 34.3469C75.0998 34.4869 79.3198 52.7469 88.1598 57.6069C89.1598 58.0869 89.6699 59.3169 89.4499 60.9269C89.2778 62.1209 88.8172 63.2549 88.108 64.2307C87.3988 65.2065 86.4624 65.9947 85.3798 66.5269C85.0254 66.6795 84.6455 66.7643 84.2599 66.7769ZM71.5799 31.7769C71.1109 31.7859 70.6472 31.8773 70.2099 32.0469C67.3299 33.1269 64.5599 36.9769 64.0499 40.6369C63.7744 41.9066 64.0039 43.2336 64.6898 44.3369C64.873 44.5872 65.1064 44.7965 65.375 44.9514C65.6436 45.1064 65.9416 45.2036 66.2499 45.2369C66.4299 45.2369 78.6799 48.7669 82.9799 64.6769C83.0125 64.8952 83.0919 65.1039 83.2127 65.2886C83.3336 65.4733 83.4929 65.6296 83.6799 65.7469C83.8888 65.8417 84.1155 65.8907 84.3449 65.8907C84.5742 65.8907 84.801 65.8417 85.0099 65.7469C85.9429 65.2726 86.7481 64.5807 87.3573 63.7295C87.9665 62.8784 88.3618 61.8931 88.5099 60.8569C88.6799 59.6669 88.3699 58.7469 87.7199 58.4569C78.5199 53.4569 74.3699 35.3369 74.1999 34.5669C74.1769 34.0851 74.0443 33.6148 73.812 33.192C73.5798 32.7691 73.2541 32.4049 72.8599 32.1269C72.4754 31.8903 72.0312 31.7688 71.5799 31.7769Z" fill="#150035"/>
<path d="M72.9002 37.4558C72.5502 39.9458 70.6602 42.5659 68.6802 43.3059C66.7002 44.0459 65.3802 42.6258 65.6802 40.1358C65.9802 37.6458 67.9102 35.0259 69.9002 34.2859C71.8902 33.5459 73.2502 34.9658 72.9002 37.4558Z" fill="#150035"/>
<path d="M67.6805 43.7346C67.2066 43.7407 66.7446 43.5856 66.3705 43.2946C65.9618 42.8835 65.6661 42.3739 65.512 41.8151C65.3578 41.2563 65.3504 40.6671 65.4905 40.1046C65.8505 37.5446 67.8105 34.8346 69.8605 34.1046C70.2437 33.9287 70.6667 33.8573 71.0865 33.8977C71.5062 33.9381 71.9078 34.0888 72.2505 34.3346C72.6583 34.7463 72.9535 35.2559 73.1076 35.8146C73.2617 36.3732 73.2695 36.9621 73.1305 37.5246C72.7705 40.0946 70.8105 42.7946 68.7605 43.5246C68.416 43.6589 68.0502 43.73 67.6805 43.7346ZM70.9505 34.3246C70.6345 34.3288 70.3223 34.3933 70.0305 34.5146C68.1205 35.2246 66.3005 37.7646 65.9605 40.1646C65.8407 40.6475 65.8429 41.1525 65.9668 41.6343C66.0908 42.1161 66.3326 42.5595 66.6705 42.9246C66.9491 43.1199 67.2747 43.2377 67.6138 43.2658C67.953 43.2939 68.2934 43.2314 68.6005 43.0846C70.5005 42.3646 72.3305 39.8346 72.6605 37.4246C72.7815 36.9426 72.781 36.438 72.6588 35.9563C72.5366 35.4745 72.2967 35.0307 71.9605 34.6646C71.6711 34.442 71.3156 34.3224 70.9505 34.3246Z" fill="#107FE4"/>
<path d="M71.5157 34.1491L66.6689 43.2148L67.0834 43.4364L71.9302 34.3707L71.5157 34.1491Z" fill="#107FE4"/>
<path d="M87.36 61.2473C87.2646 61.9038 87.012 62.5276 86.6237 63.0656C86.2355 63.6035 85.7231 64.0398 85.13 64.3372C84.13 64.7272 83.39 63.9772 83.57 62.6672C83.6671 62.0112 83.9203 61.3882 84.3084 60.8504C84.6965 60.3127 85.208 59.8761 85.8 59.5773C86.84 59.2473 87.58 59.9473 87.36 61.2473Z" fill="#150035"/>
<path d="M84.5805 64.687C84.3052 64.6878 84.0375 64.5963 83.8205 64.427C83.5908 64.1964 83.4242 63.9108 83.3367 63.5973C83.2491 63.2839 83.2435 62.9532 83.3205 62.637C83.4194 61.9388 83.6881 61.2756 84.1031 60.7055C84.518 60.1354 85.0665 59.6758 85.7005 59.367C85.9204 59.2652 86.1636 59.2245 86.4046 59.2492C86.6457 59.2738 86.8757 59.3629 87.0705 59.507C87.3001 59.7376 87.4667 60.0233 87.5543 60.3367C87.6418 60.6501 87.6474 60.9808 87.5705 61.297C87.4715 61.9952 87.2028 62.6584 86.7878 63.2285C86.3729 63.7986 85.8244 64.2582 85.1904 64.567C84.9962 64.6442 84.7894 64.6848 84.5805 64.687ZM86.3105 59.687C86.1573 59.691 86.0056 59.718 85.8605 59.767C85.3088 60.0499 84.833 60.4608 84.4729 60.9654C84.1127 61.4699 83.8787 62.0534 83.7905 62.667C83.7261 62.9015 83.7227 63.1486 83.7804 63.3848C83.8382 63.621 83.9552 63.8386 84.1205 64.017C84.253 64.1068 84.4066 64.1605 84.5662 64.1728C84.7258 64.1851 84.8858 64.1555 85.0305 64.087C85.5821 63.8041 86.0579 63.3932 86.418 62.8887C86.7782 62.3841 87.0122 61.8006 87.1004 61.187C87.1648 60.9525 87.1682 60.7054 87.1105 60.4692C87.0527 60.233 86.9357 60.0154 86.7705 59.837C86.6387 59.7558 86.485 59.7174 86.3305 59.727L86.3105 59.687Z" fill="#107FE4"/>
<path d="M86.6516 59.5141L83.8672 64.1758L84.2707 64.4168L87.0551 59.7551L86.6516 59.5141Z" fill="#107FE4"/>
<path d="M65.4327 31.3611L65.1309 31.9141L67.6324 33.2796L67.9343 32.7267L65.4327 31.3611Z" fill="#150035"/>
<path d="M61.0831 40.2908L60.7812 40.8438L63.2828 42.2093L63.5847 41.6564L61.0831 40.2908Z" fill="#150035"/>
<path d="M79.4547 59.2269L79.1523 59.7812L81.6603 61.1492L81.9627 60.5949L79.4547 59.2269Z" fill="#150035"/>
<path d="M63.6699 39.055L61.1699 37.685L61.4699 37.125L63.9699 38.495L63.6699 39.055Z" fill="#150035"/>
<path d="M47.9697 9.41797C47.9484 9.41797 47.9281 9.4264 47.9131 9.4414C47.8981 9.45641 47.8896 9.47676 47.8896 9.49797V11.598C47.8896 12.208 48.4497 12.808 49.5497 13.138C50.3949 13.3877 51.2944 13.3877 52.1396 13.138C53.2396 12.808 53.7896 12.208 53.7896 11.598V9.49797C53.7911 9.48798 53.7904 9.47779 53.7875 9.46811C53.7846 9.45842 53.7797 9.44947 53.773 9.44187C53.7664 9.43427 53.7582 9.4282 53.749 9.42408C53.7397 9.41995 53.7298 9.41787 53.7197 9.41797H47.9697Z" fill="#107FE4"/>
<path d="M50.8397 13.7653C50.3627 13.7648 49.888 13.6975 49.4297 13.5653C48.1897 13.1953 47.4297 12.4553 47.4297 11.5653V9.46531C47.4297 9.3274 47.4845 9.19514 47.582 9.09762C47.6795 9.0001 47.8118 8.94531 47.9497 8.94531H53.6997C53.8376 8.94531 53.9699 9.0001 54.0674 9.09762C54.1649 9.19514 54.2197 9.3274 54.2197 9.46531V11.5653C54.2197 12.4253 53.4797 13.1653 52.2197 13.5653C51.7707 13.6932 51.3065 13.7604 50.8397 13.7653ZM48.3397 9.85531V11.5953C48.3397 12.0353 48.8597 12.4653 49.6797 12.7153C50.4408 12.9351 51.2486 12.9351 52.0097 12.7153C52.8197 12.4653 53.3497 12.0353 53.3497 11.5953V9.85531H48.3397Z" fill="#150035"/>
<path d="M52.9305 8.24484C53.1835 8.32905 53.4036 8.49075 53.5595 8.70703C53.7155 8.92331 53.7994 9.18319 53.7994 9.44984C53.7994 9.71648 53.7155 9.97636 53.5595 10.1926C53.4036 10.4089 53.1835 10.5706 52.9305 10.6548C52.285 10.9849 51.5705 11.1569 50.8455 11.1569C50.1206 11.1569 49.406 10.9849 48.7605 10.6548C48.5075 10.5706 48.2874 10.4089 48.1315 10.1926C47.9755 9.97636 47.8916 9.71648 47.8916 9.44984C47.8916 9.18319 47.9755 8.92331 48.1315 8.70703C48.2874 8.49075 48.5075 8.32905 48.7605 8.24484C49.4074 7.91946 50.1214 7.75 50.8455 7.75C51.5696 7.75 52.2836 7.91946 52.9305 8.24484Z" fill="white"/>
<path d="M50.8402 11.5647C50.0383 11.5778 49.2464 11.385 48.5402 11.0047C48.2332 10.861 47.9702 10.6378 47.7786 10.3582C47.5869 10.0786 47.4735 9.75288 47.4502 9.41472C47.4772 9.0723 47.5966 8.74362 47.7956 8.46364C47.9946 8.18366 48.2657 7.96285 48.5802 7.82472C49.2922 7.45482 50.0828 7.26172 50.8852 7.26172C51.6876 7.26172 52.4782 7.45482 53.1902 7.82472C53.4972 7.96842 53.7602 8.19164 53.9518 8.47121C54.1435 8.75079 54.2569 9.07656 54.2802 9.41472C54.2569 9.75288 54.1435 10.0786 53.9518 10.3582C53.7602 10.6378 53.4972 10.861 53.1902 11.0047C52.468 11.3904 51.6587 11.5832 50.8402 11.5647ZM50.8402 8.15472C50.1929 8.1414 49.5529 8.29281 48.9802 8.59472C48.8086 8.65954 48.6581 8.77033 48.5452 8.91496C48.4323 9.05958 48.3614 9.23248 48.3402 9.41472C48.3402 9.69472 48.5702 9.99472 48.9802 10.2347C49.5604 10.5205 50.1985 10.6692 50.8452 10.6692C51.492 10.6692 52.13 10.5205 52.7102 10.2347C53.1202 9.99472 53.3502 9.69472 53.3502 9.41472C53.329 9.23248 53.2581 9.05958 53.1452 8.91496C53.0323 8.77033 52.8818 8.65954 52.7102 8.59472C52.1336 8.29362 51.4906 8.14231 50.8402 8.15472Z" fill="#150035"/>
<path d="M52.3302 10.8242H51.7002V13.0242H52.3302V10.8242Z" fill="#150035"/>
<path d="M86.4398 60.1773C86.4582 60.1586 86.4684 60.1334 86.4684 60.1073C86.4684 60.0811 86.4582 60.056 86.4398 60.0373L84.9498 59.1373C84.2598 58.6373 83.0899 59.1373 82.2499 60.3673L61.1199 90.4673C60.2199 91.7473 60.0298 93.3173 60.6898 93.9773C60.7304 94.0278 60.7816 94.0688 60.8399 94.0973L62.5198 95.0973C62.538 95.1128 62.561 95.1213 62.5849 95.1213C62.6087 95.1213 62.6317 95.1128 62.6499 95.0973L63.7399 93.4673L63.2099 93.2373C63.3099 93.1173 63.4098 92.9973 63.5098 92.8573L84.5798 62.7473C84.7271 62.5239 84.8574 62.29 84.9699 62.0473L85.0599 62.1173L86.4398 60.1773Z" fill="#107FE4"/>
<path d="M62.5803 95.5769C62.4816 95.5749 62.3852 95.5473 62.3003 95.4969L60.6203 94.4969C60.5359 94.4476 60.4585 94.387 60.3903 94.3169C59.5703 93.4969 59.7303 91.7069 60.7703 90.2369L81.8903 60.1269C82.3809 59.3446 83.1548 58.7821 84.0503 58.5569C84.2513 58.5134 84.4592 58.5123 84.6606 58.5536C84.8621 58.595 85.0527 58.6778 85.2203 58.7969L86.6803 59.6769C86.8015 59.7612 86.8899 59.8849 86.9303 60.0269C86.9461 60.0993 86.9462 60.1742 86.9307 60.2466C86.9152 60.319 86.8844 60.3873 86.8403 60.4469L85.2103 62.7869C85.1603 62.8769 85.1003 62.9569 85.0503 63.0369L63.8803 93.0469L64.3703 93.2669L62.9903 95.3369C62.9438 95.4045 62.8829 95.461 62.812 95.5025C62.7412 95.544 62.6621 95.5694 62.5803 95.5769ZM84.3503 59.3869H84.2003C83.523 59.5748 82.9433 60.0149 82.5803 60.6169L61.4503 90.7269C60.6203 91.9069 60.5303 93.2269 60.9703 93.6669L61.0503 93.7269L62.4403 94.5669L63.0503 93.6469L62.4603 93.3869L62.8503 92.9369L63.1203 92.5969L84.2403 62.4869C84.3789 62.2862 84.5025 62.0756 84.6103 61.8569L84.8603 61.3269L85.0103 61.4569L85.8703 60.2269L84.6903 59.5169C84.5823 59.4312 84.4482 59.3853 84.3103 59.3869H84.3503Z" fill="#150035"/>
<path d="M62.3002 94.9761C61.6402 94.3161 61.8302 92.7461 62.7302 91.4661L83.8602 61.3661C84.7602 60.0761 86.0202 59.5761 86.6802 60.2361C87.3402 60.8861 87.1502 62.4561 86.2502 63.7361L65.1202 93.8461C64.2202 95.1261 62.9602 95.6361 62.3002 94.9761Z" fill="#150035"/>
<path d="M63.02 95.7055C62.8338 95.7056 62.6494 95.6684 62.4777 95.5963C62.306 95.5242 62.1504 95.4185 62.02 95.2855C61.2 94.4755 61.37 92.6855 62.4 91.2155L83.53 61.1055C83.7801 60.6928 84.1141 60.3372 84.5103 60.0616C84.9064 59.786 85.356 59.5965 85.83 59.5055C86.0464 59.4808 86.2655 59.5048 86.4714 59.5757C86.6774 59.6467 86.8648 59.7628 87.02 59.9155C87.84 60.7355 87.67 62.5255 86.64 63.9955L65.51 94.0955C65.2607 94.511 64.9258 94.8687 64.5275 95.1445C64.1292 95.4204 63.6766 95.6083 63.2 95.6955L63.02 95.7055ZM62.61 94.7055C62.6747 94.7664 62.7526 94.8116 62.8375 94.8376C62.9225 94.8636 63.0123 94.8697 63.1 94.8555C63.4437 94.7723 63.7674 94.6215 64.0524 94.4121C64.3374 94.2027 64.5779 93.9387 64.76 93.6355L85.89 63.5255C86.72 62.3355 86.81 61.0255 86.37 60.5855C86.3062 60.5229 86.2288 60.4759 86.1437 60.4481C86.0587 60.4204 85.9685 60.4126 85.88 60.4255C85.5359 60.511 85.2121 60.6637 84.9272 60.8748C84.6423 61.0859 84.402 61.3512 84.22 61.6555L63.09 91.7555C62.26 92.9455 62.17 94.2655 62.61 94.7555V94.7055Z" fill="#150035"/>
<path d="M61.059 91.6872L60.7314 92.2227L62.3634 93.2211L62.691 92.6856L61.059 91.6872Z" fill="#150035"/>
<path d="M62.0739 88.8559L61.7471 89.3945L63.3885 90.3906L63.7153 89.852L62.0739 88.8559Z" fill="#150035"/>
<path d="M76.7125 68.3286L76.3857 68.8672L78.0273 69.8629L78.3541 69.3243L76.7125 68.3286Z" fill="#150035"/>
<path d="M73.9736 72.1569L73.6465 72.6953L75.2874 73.6922L75.6145 73.1538L73.9736 72.1569Z" fill="#150035"/>
<path d="M72.6996 186.248C73.35 184.811 73.6646 183.245 73.6197 181.668V66.7979C73.6197 60.5879 69.8397 53.3679 65.1797 50.6779L21.5797 25.5179C20.8291 24.9937 19.9599 24.6644 19.0505 24.5597C18.141 24.4549 17.2197 24.5781 16.3696 24.9179C14.6228 25.6204 13.0197 26.6372 11.6396 27.9179L13.2397 30.3479C13.1745 30.852 13.1411 31.3597 13.1396 31.8679V146.788C13.1396 153.008 16.9197 160.228 21.5797 162.918L65.1596 188.078L66.6696 191.078C67.8933 190.776 69.0425 190.227 70.0467 189.465C71.0509 188.704 71.8889 187.745 72.5096 186.648V186.588L72.6296 186.348L72.6996 186.248Z" fill="#150035"/>
<path d="M66.41 191.598L64.8 188.448L21.35 163.358C16.56 160.588 12.66 153.158 12.66 146.788V31.8978C12.6599 31.4369 12.6832 30.9763 12.73 30.5178L11 27.8778L11.3 27.5778C12.7331 26.2426 14.3968 25.1787 16.21 24.4378H16.26C17.177 24.0857 18.1659 23.9618 19.1414 24.0768C20.117 24.1918 21.05 24.5422 21.86 25.0978L65.43 50.2478C70.23 53.0078 74.13 60.4478 74.13 66.8078V181.708C74.1687 183.363 73.8266 185.006 73.13 186.508L73.08 186.618L72.98 186.808C72.326 187.984 71.4359 189.012 70.3655 189.828C69.2951 190.644 68.0675 191.229 66.76 191.548L66.41 191.598ZM13.83 29.7078L13.76 30.4278C13.7028 30.9158 13.6728 31.4065 13.67 31.8978V146.788C13.67 152.838 17.34 159.878 21.86 162.488L65.58 187.718L66.97 190.448C69.1385 189.788 70.9732 188.325 72.1 186.358L72.2 186.158V186.078L72.67 186.278L72.21 186.058C72.8313 184.69 73.1322 183.199 73.09 181.698V66.7978C73.09 60.7978 69.42 53.7178 64.9 51.1078L21.35 25.9478C20.6701 25.4651 19.8803 25.1601 19.0524 25.0606C18.2246 24.961 17.385 25.0701 16.61 25.3778L16.37 25.4878C14.9092 26.1233 13.5589 26.9875 12.37 28.0478L13.53 29.8178L13.83 29.7078Z" fill="#150035"/>
<path d="M61.4897 190.427L17.9097 165.247C13.2497 162.547 9.46973 155.327 9.46973 149.117V34.2471C9.46973 28.0371 13.2497 25.1771 17.9097 27.8671L61.4897 53.0271C66.1497 55.7171 69.9297 62.9371 69.9297 69.1571V184.037C69.9297 190.247 66.1497 193.117 61.4897 190.427Z" fill="white"/>
<path d="M64.8497 191.937C63.5723 191.901 62.327 191.529 61.2397 190.857L17.6597 165.697C12.8697 162.937 8.96973 155.497 8.96973 149.137V34.2472C8.96973 30.7972 10.1197 28.1472 12.1397 26.9872C13.8297 25.9872 15.9697 26.1672 18.1397 27.4272L61.7197 52.5872C66.5197 55.3572 70.4197 62.7872 70.4197 69.1572V184.037C70.4197 187.497 69.2597 190.137 67.2497 191.307C66.5177 191.721 65.6908 191.938 64.8497 191.937ZM14.5797 27.3572C13.9077 27.3483 13.2453 27.5173 12.6597 27.8472C10.9697 28.8472 9.99973 31.1572 9.99973 34.2372V149.137C9.99973 155.137 13.6697 162.217 18.1797 164.827L61.7597 189.987C63.6297 191.067 65.4097 191.217 66.7597 190.427C68.4597 189.427 69.4297 187.127 69.4297 184.037V69.1472C69.4297 63.0972 65.7497 56.0572 61.2397 53.4572L17.6597 28.2972C16.733 27.7197 15.671 27.3956 14.5797 27.3572Z" fill="#150035"/>
<path d="M58.8497 55.1262L55.6297 53.2462C54.5797 52.6462 53.7297 53.1362 53.7297 54.3462C53.7297 55.5462 52.8797 56.0462 51.8297 55.4362L27.5797 41.4462C27.0286 41.0861 26.5697 40.6018 26.2397 40.0322C25.9097 39.4625 25.7179 38.8234 25.6797 38.1662C25.6446 37.5069 25.4542 36.8653 25.1241 36.2935C24.7939 35.7218 24.3332 35.2362 23.7797 34.8762L16.9897 30.9562C14.6397 29.5962 12.7197 30.7062 12.7197 33.4162V149.576C12.7197 154.576 16.2497 160.666 20.5597 163.146L62.4297 187.326C64.7797 188.676 66.6997 187.576 66.6997 184.866V68.6962C66.6897 63.7262 63.1597 57.6162 58.8497 55.1262Z" fill="#107FE4"/>
<path d="M64.3202 188.406C63.56 188.384 62.8188 188.163 62.1702 187.766L20.3002 163.586C15.8402 161.016 12.2102 154.726 12.2102 149.586V33.4159C12.1135 32.7984 12.2056 32.1661 12.4746 31.6019C12.7436 31.0377 13.1768 30.5679 13.7175 30.2543C14.2582 29.9407 14.8811 29.7979 15.5044 29.8446C16.1277 29.8913 16.7223 30.1253 17.2102 30.5159L24.0102 34.4359C24.6387 34.8426 25.1614 35.3929 25.5353 36.0415C25.9091 36.6901 26.1233 37.4182 26.1602 38.1659C26.1962 38.735 26.3628 39.2882 26.6472 39.7825C26.9317 40.2768 27.3262 40.6989 27.8002 41.0159L52.0602 55.0159C52.1765 55.1094 52.3153 55.1706 52.4628 55.1934C52.6102 55.2163 52.7611 55.1999 52.9002 55.1459C53.011 55.0509 53.0964 54.9299 53.1487 54.7938C53.2011 54.6576 53.2188 54.5106 53.2002 54.3659C53.1552 54.0393 53.2084 53.7066 53.3531 53.4103C53.4979 53.1141 53.7276 52.8676 54.0129 52.7024C54.2983 52.5372 54.6264 52.4607 54.9554 52.4827C55.2844 52.5047 55.5994 52.6242 55.8602 52.8259L59.0802 54.6859C63.5402 57.2659 67.1702 63.5459 67.1702 68.6859V184.866C67.2279 185.483 67.1193 186.105 66.8555 186.666C66.5917 187.227 66.1824 187.707 65.6702 188.056C65.2588 188.289 64.7932 188.41 64.3202 188.406ZM15.0902 30.8759C14.7856 30.869 14.4849 30.945 14.2202 31.0959C13.8633 31.3597 13.5827 31.7134 13.4071 32.1209C13.2314 32.5285 13.1669 32.9753 13.2202 33.4159V149.576C13.3646 152.207 14.1259 154.768 15.4427 157.05C16.7595 159.333 18.5948 161.274 20.8002 162.716L62.6802 186.886C63.0095 187.193 63.4286 187.388 63.8761 187.44C64.3237 187.492 64.7762 187.4 65.1674 187.176C65.5586 186.952 65.868 186.609 66.0502 186.197C66.2325 185.785 66.2781 185.326 66.1802 184.886V68.6959C66.0337 66.0642 65.2692 63.5041 63.9488 61.223C62.6284 58.9418 60.7892 57.0038 58.5802 55.5659L55.3602 53.7059C55.2426 53.6151 55.1039 53.5555 54.957 53.5328C54.8101 53.51 54.6598 53.5249 54.5202 53.5759C54.4069 53.6714 54.3191 53.7936 54.265 53.9316C54.2109 54.0695 54.192 54.2188 54.2102 54.3659C54.2522 54.6882 54.198 55.0156 54.0545 55.3072C53.911 55.5988 53.6846 55.8416 53.4037 56.005C53.1228 56.1684 52.7999 56.2452 52.4755 56.2258C52.1511 56.2064 51.8397 56.0916 51.5802 55.8959L27.3202 41.8959C26.6897 41.4939 26.1651 40.946 25.7909 40.2985C25.4167 39.651 25.2038 38.923 25.1702 38.1759C25.1339 37.6057 24.9661 37.0517 24.6798 36.5572C24.3935 36.0628 23.9966 35.6413 23.5202 35.3259L16.7302 31.3959C16.238 31.0832 15.6728 30.904 15.0902 30.8759Z" fill="#150035"/>
<path d="M32.3805 40.3153C32.3805 41.0053 31.9005 41.3153 31.3105 40.9353C30.9954 40.7336 30.733 40.4596 30.5452 40.1361C30.3574 39.8126 30.2494 39.4489 30.2305 39.0753C30.2305 38.3953 30.7105 38.0753 31.3105 38.4553C31.6209 38.661 31.8792 38.9362 32.0649 39.259C32.2506 39.5818 32.3587 39.9435 32.3805 40.3153Z" fill="#150035"/>
<path d="M47.1804 50.107L34.5804 42.817C34.2987 42.612 34.0681 42.3448 33.9068 42.036C33.7455 41.7272 33.6577 41.3853 33.6504 41.037C33.6504 40.347 34.0704 40.037 34.5804 40.337L47.2104 47.627C47.4956 47.8286 47.7286 48.0952 47.8904 48.4047C48.0521 48.7142 48.1378 49.0578 48.1404 49.407C48.1104 50.087 47.7004 50.407 47.1804 50.107Z" fill="#150035"/>
<path d="M71.1734 57.934L67.8799 59.7891L68.1645 60.2944L71.458 58.4394L71.1734 57.934Z" fill="#107FE4"/>
<path d="M17.7005 27.7061L17.2705 27.3161C18.2711 26.3002 19.5351 25.5834 20.9205 25.2461L21.0505 25.8161C19.7859 26.1376 18.6296 26.7899 17.7005 27.7061Z" fill="#107FE4"/>
<path d="M19.4505 28.7061L19.0205 28.3161C20.0234 27.3032 21.2864 26.5868 22.6705 26.2461L22.8005 26.8161C21.5359 27.1376 20.3796 27.7899 19.4505 28.7061Z" fill="#107FE4"/>
<path d="M72.8703 62.462L69.4854 64.1445L69.7435 64.6639L73.1284 62.9814L72.8703 62.462Z" fill="#107FE4"/>
<path d="M70.3598 178.517L70.0898 178.007C71.2774 177.387 72.394 176.639 73.4198 175.777L73.8198 176.207C72.7577 177.106 71.597 177.881 70.3598 178.517Z" fill="#107FE4"/>
<path d="M70.3598 183.927L70.0898 183.417C71.2774 182.797 72.394 182.049 73.4198 181.188L73.8198 181.617C72.7577 182.516 71.597 183.291 70.3598 183.927Z" fill="#107FE4"/>
<path d="M70.3598 186.135L70.0898 185.625C71.2774 185.004 72.394 184.256 73.4198 183.395L73.8198 183.825C72.755 184.719 71.5946 185.494 70.3598 186.135Z" fill="#107FE4"/>
<path d="M71.3405 117.755C71.2063 117.752 71.0752 117.714 70.9605 117.645C70.8009 117.534 70.6733 117.384 70.5908 117.208C70.5082 117.032 70.4736 116.838 70.4905 116.645V108.845C70.5012 108.45 70.6046 108.063 70.7922 107.716C70.9798 107.369 71.2464 107.07 71.5705 106.845L71.7105 106.755C71.8488 106.675 72.0057 106.633 72.1655 106.633C72.3252 106.633 72.4821 106.675 72.6205 106.755C72.7779 106.867 72.9037 107.018 72.986 107.193C73.0683 107.368 73.1043 107.562 73.0905 107.755V115.545C73.0778 115.94 72.9726 116.327 72.7833 116.674C72.594 117.022 72.3259 117.32 72.0005 117.545L71.8605 117.625C71.7022 117.715 71.5224 117.76 71.3405 117.755ZM72.2305 107.155C72.1496 107.161 72.0712 107.185 72.0005 107.225L71.8605 107.305C71.6219 107.486 71.427 107.718 71.2902 107.985C71.1535 108.251 71.0784 108.545 71.0705 108.845V116.635C71.0705 116.935 71.1605 117.095 71.2505 117.145C71.3405 117.195 71.5005 117.145 71.5705 117.095L71.7105 117.015C71.9509 116.835 72.1477 116.603 72.2862 116.336C72.4247 116.069 72.5013 115.775 72.5105 115.475V107.685C72.5225 107.592 72.5125 107.497 72.4812 107.408C72.4499 107.32 72.3983 107.24 72.3305 107.175C72.2998 107.159 72.265 107.152 72.2305 107.155Z" fill="#107FE4"/>
<path d="M71.3396 105.247C71.2063 105.248 71.0751 105.213 70.9596 105.147C70.8015 105.035 70.6751 104.884 70.5927 104.709C70.5103 104.534 70.4748 104.34 70.4896 104.147V96.3469C70.5004 95.9523 70.6037 95.5657 70.7913 95.2183C70.9789 94.8709 71.2455 94.5724 71.5696 94.3469L71.7096 94.2669C71.8461 94.1818 72.0037 94.1367 72.1646 94.1367C72.3255 94.1367 72.4831 94.1818 72.6196 94.2669C72.7792 94.3773 72.9067 94.528 72.9893 94.7036C73.0718 94.8793 73.1064 95.0736 73.0896 95.2669V103.057C73.0754 103.452 72.9695 103.838 72.7803 104.185C72.5911 104.532 72.3239 104.831 71.9996 105.057L71.8596 105.137C71.6994 105.22 71.5197 105.258 71.3396 105.247ZM72.2296 94.6469C72.1488 94.6533 72.0703 94.6772 71.9996 94.7169L71.8596 94.7969C71.621 94.9781 71.4261 95.2105 71.2894 95.4771C71.1526 95.7436 71.0775 96.0375 71.0696 96.3369V104.127C71.0696 104.427 71.1596 104.587 71.2496 104.637C71.3028 104.657 71.3601 104.663 71.4161 104.654C71.4722 104.645 71.525 104.622 71.5696 104.587L71.7096 104.507C71.9501 104.327 72.1468 104.095 72.2853 103.828C72.4238 103.562 72.5005 103.267 72.5096 102.967V95.1769C72.5216 95.0838 72.5116 94.9891 72.4803 94.9005C72.4491 94.8119 72.3974 94.7319 72.3296 94.6669L72.2296 94.6469Z" fill="#107FE4"/>
<path d="M71.3405 90.9958C71.2072 90.9969 71.076 90.9623 70.9605 90.8958C70.8009 90.7854 70.6733 90.6347 70.5908 90.4591C70.5082 90.2835 70.4736 90.0892 70.4905 89.8958V85.5058C70.4953 85.1019 70.5968 84.7051 70.7864 84.3484C70.9761 83.9918 71.2483 83.6857 71.5805 83.4558L71.7205 83.3758C71.8588 83.296 72.0157 83.2539 72.1755 83.2539C72.3352 83.2539 72.4921 83.296 72.6305 83.3758C72.79 83.4862 72.9176 83.6369 73.0001 83.8125C73.0827 83.9882 73.1173 84.1825 73.1005 84.3758V88.7558C73.0878 89.1512 72.9826 89.5381 72.7933 89.8854C72.604 90.2328 72.3359 90.5309 72.0105 90.7558L71.8705 90.8358C71.7124 90.938 71.5287 90.9934 71.3405 90.9958ZM72.2305 83.8058C72.1496 83.8122 72.0712 83.8361 72.0005 83.8758L71.8705 83.9658C71.6256 84.1417 71.4255 84.3727 71.2866 84.6403C71.1476 84.9078 71.0735 85.2044 71.0705 85.5058V89.8858C71.0705 90.1858 71.1605 90.3358 71.2505 90.3858C71.3002 90.4105 71.3549 90.4233 71.4105 90.4233C71.466 90.4233 71.5207 90.4105 71.5705 90.3858L71.7105 90.2958C71.9509 90.1157 72.1477 89.8837 72.2862 89.6171C72.4247 89.3505 72.5013 89.0561 72.5105 88.7558V84.3358C72.5225 84.2427 72.5125 84.148 72.4812 84.0594C72.4499 83.9708 72.3983 83.8908 72.3305 83.8258L72.2305 83.8058Z" fill="#107FE4"/>
<path d="M71.8603 87.1061L71.7203 87.1861C71.2003 87.4861 70.7803 87.1861 70.7803 86.4761V85.4761C70.7857 85.1236 70.8735 84.7772 71.0367 84.4646C71.1999 84.1521 71.434 83.882 71.7203 83.6761L71.8603 83.5961C72.3803 83.2961 72.8003 83.5961 72.8003 84.3061V85.3061C72.7949 85.6587 72.707 86.0051 72.5438 86.3176C72.3806 86.6302 72.1465 86.9002 71.8603 87.1061Z" fill="#107FE4"/>
<path d="M71.3405 87.5858C71.2072 87.5869 71.076 87.5523 70.9605 87.4858C70.8009 87.3754 70.6733 87.2248 70.5908 87.0491C70.5082 86.8735 70.4736 86.6792 70.4905 86.4858V85.4858C70.4985 85.0853 70.6015 84.6925 70.791 84.3395C70.9804 83.9866 71.2511 83.6837 71.5805 83.4558L71.7205 83.3758C71.8588 83.296 72.0157 83.2539 72.1755 83.2539C72.3352 83.2539 72.4921 83.296 72.6305 83.3758C72.79 83.4862 72.9176 83.6369 73.0001 83.8125C73.0827 83.9882 73.1173 84.1825 73.1005 84.3758V85.3758C73.0878 85.7712 72.9826 86.1581 72.7933 86.5054C72.604 86.8528 72.3359 87.1509 72.0105 87.3758L71.8705 87.4558C71.7093 87.5475 71.5258 87.5925 71.3405 87.5858ZM72.2305 83.8058C72.1496 83.8122 72.0712 83.8361 72.0005 83.8758L71.8705 83.9658C71.6256 84.1417 71.4255 84.3727 71.2866 84.6403C71.1476 84.9078 71.0735 85.2044 71.0705 85.5058V86.5058C71.0705 86.8058 71.1605 86.9658 71.2505 87.0158C71.3008 87.0385 71.3553 87.0502 71.4105 87.0502C71.4656 87.0502 71.5202 87.0385 71.5705 87.0158L71.7105 86.9358C71.9522 86.7547 72.1498 86.5211 72.2884 86.2526C72.4269 85.9842 72.5028 85.6878 72.5105 85.3858V84.3858C72.5225 84.2927 72.5125 84.198 72.4812 84.1094C72.4499 84.0208 72.3983 83.9408 72.3305 83.8758L72.2305 83.8058Z" fill="#107FE4"/>
<path d="M67.1496 58.5156L66.8496 58.0156L70.2096 56.0156L70.4996 56.5156L67.1496 58.5156Z" fill="#107FE4"/>
<path d="M70.0105 20.0662C69.9997 19.258 69.7985 18.4637 69.4232 17.7479C69.0479 17.032 68.5091 16.4148 67.8505 15.9462L53.7705 7.81622C53.5978 7.70005 53.4027 7.62134 53.1977 7.58517C52.9928 7.549 52.7825 7.55617 52.5805 7.60622C52.4391 7.6505 52.3093 7.72564 52.2005 7.82622L8.58046 32.7862C8.5458 32.812 8.52097 32.8489 8.51006 32.8907C8.49915 32.9325 8.50282 32.9768 8.52047 33.0162L25.5205 62.1462C25.5434 62.1843 25.5802 62.2119 25.6232 62.2231C25.6662 62.2343 25.7119 62.2283 25.7505 62.2062L68.9605 37.4162C69.1797 37.367 69.3786 37.2519 69.5305 37.0862C69.8572 36.6568 70.0203 36.125 69.9905 35.5862L70.0105 20.0662Z" fill="#107FE4"/>
<path d="M25.6599 62.6761C25.5534 62.675 25.4489 62.6469 25.3562 62.5944C25.2635 62.542 25.1857 62.4669 25.1299 62.3761L8.1499 33.2461C8.07011 33.1067 8.04853 32.9414 8.08989 32.7861C8.10858 32.7085 8.14311 32.6356 8.19129 32.5719C8.23947 32.5082 8.30027 32.4552 8.36989 32.4161L51.9399 7.46613C52.0893 7.34169 52.263 7.24974 52.4499 7.19613C52.9646 7.08167 53.5037 7.17511 53.9499 7.45613L68.0299 15.5961C68.7575 16.102 69.354 16.7742 69.7696 17.5568C70.1853 18.3395 70.4082 19.21 70.4199 20.0961V35.5961C70.4511 36.2435 70.2449 36.8801 69.8399 37.3861C69.6364 37.6118 69.3727 37.7748 69.0799 37.8561L25.9599 62.5961C25.8675 62.6459 25.7648 62.6733 25.6599 62.6761ZM9.05989 33.0361L25.7599 61.6861L68.7599 36.9961H68.8299C68.9601 36.9634 69.0781 36.894 69.1699 36.7961C69.4379 36.4482 69.5695 36.0143 69.5399 35.5761V20.0661C69.5245 19.3358 69.3415 18.6188 69.0052 17.9703C68.6688 17.3219 68.188 16.7594 67.5999 16.3261L53.5799 8.24613C53.4581 8.16354 53.3212 8.10597 53.177 8.07679C53.0328 8.04761 52.8842 8.04738 52.7399 8.07613C52.6683 8.11133 52.6011 8.15497 52.5399 8.20613H52.4799L9.05989 33.0361Z" fill="#150035"/>
<path d="M17.7002 48.7344L25.5102 62.1444C25.5331 62.1824 25.57 62.21 25.613 62.2213C25.656 62.2325 25.7016 62.2264 25.7402 62.2044L68.9502 37.4144C69.1694 37.3652 69.3684 37.25 69.5202 37.0844C69.8469 36.6549 70.01 36.1232 69.9802 35.5844V20.0644C69.9732 19.6134 69.9025 19.1656 69.7702 18.7344L17.7002 48.7344Z" fill="#150035"/>
<path d="M23.9402 62.3652L9.8502 54.2452C9.19458 53.7745 8.65853 53.1565 8.28513 52.441C7.91172 51.7254 7.71138 50.9323 7.7002 50.1252V34.6152C7.7002 33.0352 8.7002 32.2952 9.8502 32.9852L23.9402 41.1152C24.5973 41.5876 25.1348 42.207 25.5099 42.9241C25.8849 43.6412 26.0871 44.4361 26.1002 45.2452V60.7352C26.1002 62.3252 25.1302 63.0552 23.9402 62.3652Z" fill="#107FE4"/>
<path d="M24.7998 63.0772C24.418 63.0665 24.0457 62.9562 23.7198 62.7572L9.62978 54.6272C8.90557 54.1164 8.31244 53.4415 7.89881 52.6577C7.48518 51.8739 7.26278 51.0034 7.24978 50.1172V34.6272C7.21454 34.2156 7.28842 33.802 7.46398 33.428C7.63954 33.0541 7.91058 32.733 8.24978 32.4972C8.54095 32.3463 8.86751 32.2768 9.19492 32.2961C9.52233 32.3155 9.83843 32.423 10.1098 32.6072L24.1898 40.7372C24.9176 41.2452 25.514 41.9193 25.9296 42.7035C26.3452 43.4878 26.5681 44.3597 26.5798 45.2472V60.7372C26.6182 61.1492 26.5457 61.5639 26.3699 61.9384C26.194 62.3129 25.9212 62.6336 25.5798 62.8672C25.3437 63.0068 25.074 63.0794 24.7998 63.0772ZM8.99978 33.1672C8.88057 33.1673 8.76344 33.1983 8.65978 33.2572C8.46684 33.425 8.31838 33.6379 8.22765 33.8769C8.13693 34.1159 8.10674 34.3737 8.13978 34.6272V50.1172C8.15518 50.8475 8.33812 51.5646 8.67448 52.213C9.01083 52.8615 9.49163 53.424 10.0798 53.8572L24.1598 61.9872C24.3019 62.0923 24.4693 62.1578 24.6449 62.1771C24.8206 62.1964 24.9982 62.1689 25.1598 62.0972C25.3519 61.931 25.4999 61.7198 25.5907 61.4826C25.6814 61.2453 25.712 60.9892 25.6798 60.7372V45.2472C25.6671 44.5174 25.4863 43.8004 25.1516 43.1518C24.8169 42.5032 24.3372 41.9404 23.7498 41.5072L9.65978 33.3672C9.4618 33.2423 9.23377 33.1732 8.99978 33.1672Z" fill="#150035"/>
<path d="M21.9698 58.2453L11.8198 52.3853C11.3424 52.0429 10.9524 51.5928 10.6814 51.0716C10.4104 50.5504 10.2659 49.9727 10.2598 49.3853V38.2453C10.2598 37.1053 10.9598 36.5753 11.8198 37.0753L21.9698 42.9253C22.4471 43.2677 22.8371 43.7177 23.1082 44.2389C23.3792 44.7601 23.5236 45.3378 23.5298 45.9253V57.0853C23.5798 58.2453 22.8298 58.7653 21.9698 58.2453Z" fill="#107FE4"/>
<path d="M22.5801 58.8976C22.2827 58.8915 21.9925 58.8051 21.7401 58.6476L11.5801 52.7876C11.0379 52.4114 10.5935 51.9112 10.2838 51.3284C9.9742 50.7457 9.80835 50.0974 9.80011 49.4376V38.2476C9.77196 37.9316 9.82735 37.6137 9.96074 37.3259C10.0941 37.0381 10.3008 36.7903 10.5601 36.6076C10.7875 36.4861 11.0439 36.4294 11.3013 36.4435C11.5587 36.4576 11.8073 36.542 12.0201 36.6876L22.1701 42.5476C22.7125 42.9258 23.1569 43.4279 23.4665 44.0123C23.776 44.5966 23.9418 45.2463 23.9501 45.9076V57.0876C23.979 57.4051 23.9241 57.7246 23.7907 58.0142C23.6573 58.3037 23.4502 58.5532 23.1901 58.7376C23.0043 58.8434 22.794 58.8986 22.5801 58.8976ZM11.2001 37.3476C11.1414 37.3298 11.0788 37.3298 11.0201 37.3476C10.9023 37.457 10.8126 37.5932 10.7587 37.7446C10.7047 37.8961 10.688 38.0583 10.7101 38.2176V49.4376C10.7205 49.9419 10.8456 50.4373 11.0761 50.8861C11.3065 51.3349 11.6362 51.7253 12.0401 52.0276L22.1901 57.8876C22.3301 57.9576 22.5801 58.0776 22.7701 57.9676C22.8894 57.8571 22.98 57.7193 23.034 57.5659C23.088 57.4126 23.1039 57.2484 23.0801 57.0876V45.9276C23.0713 45.4229 22.9468 44.927 22.7162 44.478C22.4856 44.0289 22.1551 43.6388 21.7501 43.3376L11.5801 37.4776C11.4668 37.4022 11.3359 37.3574 11.2001 37.3476Z" fill="#150035"/>
<path d="M13.9398 51.2453C13.4637 50.9024 13.0752 50.4521 12.8058 49.9308C12.5365 49.4095 12.394 48.8321 12.3898 48.2453V37.4153L11.8198 37.0953C10.9598 36.5953 10.2598 37.0953 10.2598 38.2653V49.4353C10.2659 50.0228 10.4104 50.6005 10.6814 51.1217C10.9524 51.6429 11.3424 52.093 11.8198 52.4353L21.9698 58.2453C22.8298 58.7453 23.5298 58.2453 23.5298 57.0653V56.7154L13.9398 51.2453Z" fill="#150035"/>
<path d="M22.5801 58.8976C22.2827 58.8915 21.9925 58.8051 21.7401 58.6476L11.5801 52.7876C11.0379 52.4114 10.5935 51.9112 10.2838 51.3284C9.9742 50.7457 9.80835 50.0974 9.80011 49.4376V38.2476C9.77196 37.9316 9.82735 37.6137 9.96074 37.3259C10.0941 37.0381 10.3008 36.7903 10.5601 36.6076C10.7875 36.4861 11.0439 36.4294 11.3013 36.4435C11.5587 36.4576 11.8073 36.542 12.0201 36.6876L12.8101 37.1476V48.2476C12.8174 48.7525 12.9413 49.249 13.172 49.6982C13.4027 50.1475 13.734 50.5374 14.1401 50.8376L23.9501 56.5076V57.1076C23.979 57.4251 23.9241 57.7446 23.7907 58.0342C23.6573 58.3237 23.4502 58.5732 23.1901 58.7576C23.0024 58.8565 22.7922 58.9047 22.5801 58.8976ZM11.2001 37.3476C11.1414 37.3298 11.0788 37.3298 11.0201 37.3476C10.9023 37.457 10.8126 37.5932 10.7587 37.7446C10.7047 37.8961 10.688 38.0583 10.7101 38.2176V49.4376C10.7205 49.9419 10.8456 50.4373 11.0761 50.8861C11.3065 51.3349 11.6362 51.7253 12.0401 52.0276L22.1901 57.8876C22.3301 57.9576 22.5801 58.0776 22.7701 57.9676C22.8894 57.8571 22.98 57.7193 23.034 57.5659C23.088 57.4126 23.1039 57.2484 23.0801 57.0876V56.9976L13.7201 51.5876C13.1793 51.2124 12.7357 50.7137 12.4261 50.1329C12.1165 49.552 11.9499 48.9057 11.9401 48.2476V37.6776L11.6001 37.4776C11.4804 37.4002 11.3425 37.3554 11.2001 37.3476Z" fill="#150035"/>
<path d="M12.6069 49.5005L10.4795 50.6953L10.6362 50.9743L12.7636 49.7795L12.6069 49.5005Z" fill="#107FE4"/>
<path d="M12.3073 48.0836L10.1836 49.2852L10.3412 49.5637L12.4648 48.3622L12.3073 48.0836Z" fill="#107FE4"/>
<path d="M14.721 51.4225L12.5957 52.6211L12.7529 52.8998L14.8782 51.7013L14.721 51.4225Z" fill="#107FE4"/>
<path d="M12.3139 38.2005L10.1904 39.4023L10.3481 39.6808L12.4715 38.4789L12.3139 38.2005Z" fill="#107FE4"/>
<path d="M22.5844 55.9934L20.4609 57.1953L20.6186 57.4738L22.742 56.2719L22.5844 55.9934Z" fill="#107FE4"/>
<path d="M53.5474 7.43302L9.62109 32.5898L10.0584 33.3535L53.9847 8.19665L53.5474 7.43302Z" fill="#150035"/>
<path d="M56.1186 8.85701L12.2539 34.1211L12.5683 34.667L56.433 9.40294L56.1186 8.85701Z" fill="#150035"/>
<path d="M66.8335 15.0114L22.916 40.1836L23.2293 40.7302L67.1468 15.558L66.8335 15.0114Z" fill="#150035"/>
<path d="M69.0609 23.0457L26.5889 47.3008L26.7476 47.5787L69.2196 23.3235L69.0609 23.0457Z" fill="#107FE4"/>
<path d="M69.0453 34.7524L26.6113 59.0742L26.7705 59.3518L69.2044 35.03L69.0453 34.7524Z" fill="#107FE4"/>
<path d="M68.9766 17.0113L25.0547 42.1758L25.3679 42.7224L69.2898 17.5579L68.9766 17.0113Z" fill="#150035"/>
<path d="M21.1401 47.7671C21.1401 49.5271 19.9001 50.2371 18.3801 49.3571C17.5681 48.8391 16.8909 48.1356 16.4041 47.3046C15.9172 46.4735 15.6348 45.5387 15.5801 44.5771C15.5801 42.8171 16.8101 42.0971 18.3401 42.9771C19.1495 43.5003 19.8246 44.2064 20.3109 45.0384C20.7973 45.8705 21.0813 46.8052 21.1401 47.7671Z" fill="#107FE4"/>
<path d="M19.5797 50.0543C19.0878 50.0371 18.6088 49.8924 18.1897 49.6343C17.3403 49.079 16.6333 48.3316 16.1261 47.4526C15.6188 46.5736 15.3255 45.5876 15.2697 44.5743C15.2335 44.1725 15.3074 43.7684 15.4836 43.4054C15.6598 43.0425 15.9316 42.7344 16.2697 42.5143C16.6308 42.3411 17.0315 42.2674 17.4305 42.3008C17.8296 42.3342 18.2125 42.4735 18.5397 42.7043C19.3892 43.2596 20.0961 44.007 20.6033 44.886C21.1106 45.765 21.404 46.751 21.4597 47.7643C21.4938 48.1659 21.4188 48.5692 21.2428 48.9317C21.0669 49.2943 20.7963 49.6027 20.4597 49.8243C20.1918 49.9772 19.8882 50.0565 19.5797 50.0543ZM17.1197 42.9143C16.921 42.9131 16.7252 42.9612 16.5497 43.0543C16.3188 43.2295 16.1374 43.4617 16.0234 43.7282C15.9095 43.9947 15.8668 44.2863 15.8997 44.5743C15.9575 45.4845 16.2305 46.3681 16.6964 47.1521C17.1624 47.9362 17.8078 48.5984 18.5797 49.0843C18.8094 49.2592 19.0819 49.3691 19.3687 49.4026C19.6555 49.436 19.9459 49.3917 20.2097 49.2743C20.4432 49.1032 20.6272 48.8734 20.7432 48.6082C20.8591 48.343 20.9027 48.0519 20.8697 47.7643C20.8168 46.855 20.5491 45.9713 20.0884 45.1855C19.6278 44.3998 18.9873 43.7345 18.2197 43.2443C17.8966 43.0459 17.5285 42.9324 17.1497 42.9143H17.1197Z" fill="#150035"/>
<path d="M20.1701 47.2457C20.1701 48.3857 19.3701 48.8557 18.3801 48.2457C17.8583 47.9036 17.4237 47.4442 17.1112 46.9042C16.7986 46.3642 16.6168 45.7585 16.5801 45.1357C16.5801 43.9957 17.3901 43.5257 18.3801 44.1357C18.9 44.4788 19.3326 44.9387 19.6434 45.4787C19.9542 46.0186 20.1345 46.6237 20.1701 47.2457Z" fill="#150035"/>
<path d="M19.1802 48.7077C18.8683 48.6964 18.5648 48.6033 18.3002 48.4377C17.7546 48.0807 17.3003 47.6007 16.9738 47.0363C16.6473 46.4718 16.4577 45.8387 16.4202 45.1877C16.3844 44.9414 16.423 44.69 16.5309 44.4658C16.6388 44.2415 16.8112 44.0545 17.026 43.9289C17.2409 43.8032 17.4883 43.7445 17.7367 43.7603C17.9851 43.7762 18.2231 43.8658 18.4202 44.0177C18.9694 44.3688 19.4284 44.8441 19.7601 45.4051C20.0919 45.9662 20.2872 46.5973 20.3302 47.2477C20.3544 47.4981 20.3115 47.7504 20.2061 47.9789C20.1007 48.2073 19.9364 48.4036 19.7302 48.5477C19.5633 48.6466 19.3741 48.7016 19.1802 48.7077ZM17.5802 44.0677C17.4433 44.0627 17.3079 44.0974 17.1902 44.1677C17.0343 44.2805 16.9107 44.4322 16.8318 44.6076C16.7528 44.7831 16.7212 44.9762 16.7402 45.1677C16.7692 45.7682 16.9402 46.3532 17.2392 46.8747C17.5382 47.3962 17.9567 47.8393 18.4602 48.1677C18.6234 48.2784 18.8128 48.3442 19.0095 48.3582C19.2061 48.3722 19.403 48.3341 19.5802 48.2477C19.7362 48.1349 19.8598 47.9833 19.9387 47.8078C20.0177 47.6323 20.0492 47.4392 20.0302 47.2477C20.0013 46.6473 19.8303 46.0622 19.5313 45.5407C19.2323 45.0192 18.8138 44.5761 18.3102 44.2477C18.087 44.1246 17.8352 44.0625 17.5802 44.0677Z" fill="#107FE4"/>
<path d="M19.1002 46.6347C19.1002 47.0947 18.7802 47.2847 18.3802 47.0547C18.1714 46.9188 17.9975 46.7358 17.8724 46.5204C17.7474 46.3051 17.6747 46.0633 17.6602 45.8147C17.6602 45.3547 17.9802 45.1647 18.3802 45.3947C18.5889 45.5305 18.7628 45.7135 18.8879 45.9289C19.0129 46.1443 19.0856 46.386 19.1002 46.6347Z" fill="white"/>
<path d="M2.58008 41.7861L14.8001 34.5561L4.42007 30.2461L1.33008 31.0461V39.4661L1.45007 40.9661L2.45007 41.7461C2.45528 41.7579 2.46297 41.7684 2.47261 41.777C2.48225 41.7856 2.49362 41.792 2.50595 41.7958C2.51828 41.7996 2.53128 41.8007 2.54407 41.799C2.55686 41.7973 2.56914 41.7929 2.58008 41.7861Z" fill="#150035"/>
<path d="M2.57965 42.2442C2.467 42.2428 2.358 42.2041 2.26965 42.1342L1.01965 41.2442L0.889648 39.5342V30.7442L4.44965 29.8242L15.8096 34.4842L2.80965 42.1642C2.74074 42.2094 2.66174 42.2369 2.57965 42.2442ZM1.89966 40.7742L2.59966 41.2842L13.8596 34.6342L4.41965 30.7542L1.79965 31.4242V39.5042L1.89966 40.7742Z" fill="#150035"/>
<path d="M72.08 15.7771C72.0143 14.5333 71.6559 13.3225 71.0338 12.2433C70.4116 11.1642 69.5435 10.2473 68.5 9.56714L53.5 0.927139C53.1367 0.66375 52.7094 0.50256 52.2627 0.46035C51.816 0.41814 51.3661 0.496454 50.96 0.687139L1.45996 29.4771C1.45996 29.4771 1.45996 29.4771 1.45996 29.5371L3.18996 30.9071C3.18996 30.9071 13.5199 35.5871 13.8699 35.7671C14.2199 35.9471 20.2 39.9271 20.2 39.9271L21.6199 43.6271L22.6199 53.2071C22.6216 53.2296 22.629 53.2513 22.6416 53.2701C22.6541 53.2888 22.6713 53.304 22.6915 53.3141C22.7117 53.3242 22.7341 53.3288 22.7566 53.3276C22.7792 53.3264 22.801 53.3193 22.82 53.3071L71.93 24.7771C71.9656 24.7587 71.9945 24.7293 72.0125 24.6934C72.0304 24.6575 72.0366 24.6168 72.03 24.5771C72.047 24.515 72.047 24.4493 72.03 24.3871L72.08 15.7771Z" fill="white"/>
<path d="M22.77 53.7772C22.6761 53.7728 22.5842 53.7489 22.5 53.7072C22.4159 53.6628 22.3437 53.5986 22.2898 53.5203C22.2358 53.4419 22.2016 53.3517 22.19 53.2572L21.19 43.7372L19.84 40.2472C17.47 38.6672 13.96 36.3372 13.67 36.2472C13.38 36.1572 6.58 33.0072 3 31.3972L2.91 31.3372L1 29.8172V29.3272L1.22 29.1772L50.78 0.307211C51.2545 0.0699955 51.7847 -0.033031 52.3134 0.00926867C52.8422 0.0515684 53.3493 0.237585 53.78 0.547211L68.78 9.18721C69.8946 9.90135 70.8214 10.8726 71.4827 12.0194C72.1439 13.1661 72.5203 14.4548 72.58 15.7772V24.3872C72.5788 24.4859 72.562 24.5838 72.53 24.6772C72.5191 24.7758 72.4853 24.8704 72.4315 24.9537C72.3777 25.037 72.3053 25.1067 72.22 25.1572L23.05 53.6972C22.9647 53.7465 22.8685 53.7739 22.77 53.7772ZM3.42 30.5272C4.29 30.9272 13.72 35.1972 14.07 35.3672C14.42 35.5372 19.44 38.8972 20.44 39.5572L20.56 39.6372L22.06 43.6372L23.06 52.7372L71.58 24.4672L71.64 24.3672V15.7772C71.5766 14.61 71.2394 13.474 70.6557 12.4613C70.072 11.4485 69.2582 10.5872 68.28 9.94721L53.28 1.31721C52.9834 1.0935 52.6327 0.952486 52.2638 0.908565C51.8948 0.864645 51.5209 0.919389 51.18 1.06721L2.18001 29.5572L3.42 30.5272Z" fill="#150035"/>
<path d="M72.04 24.575C72.057 24.5128 72.057 24.4472 72.04 24.385V15.775C72.0029 14.6736 71.712 13.5956 71.19 12.625L20.79 41.455L21.62 43.625L22.62 53.205C22.6216 53.2275 22.6291 53.2492 22.6416 53.2679C22.6542 53.2867 22.6714 53.3019 22.6916 53.3119C22.7117 53.322 22.7342 53.3267 22.7567 53.3255C22.7792 53.3243 22.8011 53.3172 22.82 53.305L71.93 24.775C71.9676 24.7581 71.9986 24.7294 72.0184 24.6934C72.0383 24.6573 72.0458 24.6158 72.04 24.575Z" fill="#150035"/>
<path d="M22.2302 53.3551L20.9602 52.6251C20.8383 52.5413 20.7364 52.4314 20.6621 52.3035C20.5877 52.1755 20.5427 52.0326 20.5302 51.8851V43.2451C20.5043 42.738 20.3585 42.2443 20.1047 41.8045C19.8509 41.3646 19.4964 40.9913 19.0702 40.7151L4.07024 32.0751C3.27024 31.6051 2.61023 31.9851 2.61023 32.9151V41.5351C2.61023 41.8051 2.42024 41.9251 2.18024 41.7851L0.920227 41.0551C0.798258 40.9713 0.69643 40.8614 0.62207 40.7335C0.54771 40.6055 0.50268 40.4626 0.490234 40.3151V31.7151C0.490234 29.4251 2.09024 28.5051 4.07024 29.6451L19.0702 38.2851C20.1138 38.9638 20.9826 39.8788 21.6064 40.956C22.2301 42.0332 22.5912 43.2423 22.6602 44.4851V53.1051C22.6669 53.1578 22.658 53.2112 22.6345 53.2588C22.611 53.3064 22.574 53.346 22.5281 53.3727C22.4822 53.3994 22.4295 53.4119 22.3765 53.4088C22.3235 53.4057 22.2727 53.387 22.2302 53.3551Z" fill="#107FE4"/>
<path d="M22.4196 53.8543C22.2745 53.8532 22.1325 53.8116 22.0096 53.7343L20.7396 53.0043C20.5485 52.8843 20.3895 52.7197 20.2762 52.5246C20.163 52.3294 20.0989 52.1097 20.0896 51.8843V43.2443C20.0629 42.8145 19.937 42.3968 19.7219 42.0238C19.5068 41.6508 19.2082 41.3326 18.8496 41.0943L3.84964 32.4543C3.76773 32.3892 3.67067 32.3458 3.56751 32.3284C3.46434 32.3109 3.35842 32.3198 3.25963 32.3543C3.18097 32.4229 3.12061 32.51 3.08396 32.6077C3.0473 32.7055 3.0355 32.8108 3.04964 32.9143V41.5343C3.05718 41.6646 3.02961 41.7946 2.9698 41.9107C2.91 42.0268 2.82016 42.1247 2.70964 42.1943C2.5967 42.2632 2.46695 42.2996 2.33464 42.2996C2.20234 42.2996 2.07259 42.2632 1.95964 42.1943L0.699632 41.4643C0.506725 41.3463 0.346267 41.1821 0.232775 40.9866C0.119282 40.791 0.0563423 40.5703 0.0496385 40.3443V31.7143C-0.0561404 31.1796 0.00808154 30.6253 0.233293 30.1291C0.458505 29.6328 0.833409 29.2195 1.30542 28.9471C1.77743 28.6747 2.32287 28.5569 2.86524 28.6102C3.4076 28.6635 3.91967 28.8852 4.32964 29.2443L19.3296 37.8743C20.4444 38.5891 21.3718 39.5603 22.0347 40.7067C22.6975 41.8532 23.0763 43.1415 23.1396 44.4643V53.0843C23.1451 53.2154 23.1155 53.3457 23.054 53.4617C22.9925 53.5776 22.9013 53.6752 22.7896 53.7443C22.6809 53.8187 22.5514 53.8572 22.4196 53.8543ZM3.41963 31.4543C3.72668 31.4589 4.02697 31.5452 4.28964 31.7043L19.2896 40.3443C19.7811 40.659 20.1907 41.0861 20.4845 41.5904C20.7784 42.0946 20.9481 42.6615 20.9796 43.2443V51.8643C20.9991 52.005 21.0704 52.1334 21.1796 52.2243L22.1796 52.8143V44.4843C22.1155 43.3186 21.7779 42.1843 21.1942 41.1733C20.6105 40.1622 19.7971 39.3027 18.8196 38.6643L3.81964 30.0243C3.52408 29.8024 3.17518 29.6624 2.80821 29.6185C2.44124 29.5746 2.06919 29.6283 1.72963 29.7743C1.4347 29.9977 1.20307 30.2941 1.05753 30.6343C0.911988 30.9744 0.857577 31.3467 0.899645 31.7143V40.3343C0.909054 40.4052 0.932457 40.4735 0.968508 40.5353C1.00456 40.5971 1.05253 40.6512 1.10964 40.6943L2.10964 41.2843V32.9343C2.09168 32.675 2.14231 32.4156 2.25641 32.1821C2.37051 31.9487 2.54406 31.7494 2.75963 31.6043C2.97249 31.4848 3.21652 31.4325 3.45964 31.4543H3.41963Z" fill="#150035"/>
<path d="M52.509 1.52438L3.34277 30.1094L3.65777 30.6512L52.824 2.06618L52.509 1.52438Z" fill="#150035"/>
<path d="M69.9865 10.4946L20.5859 39.2695L20.903 39.8139L70.3036 11.039L69.9865 10.4946Z" fill="#150035"/>
<path d="M65.7121 9.21187L16.5459 37.7969L16.8609 38.3387L66.0271 9.75367L65.7121 9.21187Z" fill="#150035"/>
<path d="M6.47648 33.5939L3.08691 35.543L3.24643 35.8204L6.636 33.8713L6.47648 33.5939Z" fill="#107FE4"/>
<path d="M26.1698 51.505L26.0098 51.225L69.4698 26.375L69.6298 26.645L26.1698 51.505Z" fill="#107FE4"/>
<path d="M40.0938 34.109L23.2734 43.7148L23.4321 43.9927L40.2525 34.3869L40.0938 34.109Z" fill="#107FE4"/>
<path d="M44.6516 31.5572L41.9336 33.1094L42.0923 33.3873L44.8103 31.8351L44.6516 31.5572Z" fill="#107FE4"/>
<path d="M64.7801 19.8375L64.6201 19.5575L70.9301 15.9375L71.0901 16.2175L64.7801 19.8375Z" fill="#107FE4"/>
<path d="M63.9696 19.9363L62.832 20.5859L62.9907 20.8638L64.1283 20.2142L63.9696 19.9363Z" fill="#107FE4"/>
<path d="M26.7496 52.8253L26.5996 52.5553L29.9696 50.6953L30.1196 50.9753L26.7496 52.8253Z" fill="#107FE4"/>
<path d="M46.9238 30.2316L45.7871 30.8828L45.9462 31.1605L47.0828 30.5092L46.9238 30.2316Z" fill="#107FE4"/>
<path d="M10.8055 36.7626L9.66895 37.4141L9.82807 37.6917L10.9646 37.0403L10.8055 36.7626Z" fill="#107FE4"/>
<path d="M59.5096 37.0342L59.3496 36.7642L61.3096 35.5742L61.4696 35.8442L59.5096 37.0342Z" fill="#107FE4"/>
</svg>
