<svg width="106" height="90" viewBox="0 0 106 90" fill="none" xmlns="http://www.w3.org/2000/svg">
<path fill-rule="evenodd" clip-rule="evenodd" d="M59.9904 30.9469L55.7798 31.6653L54.2508 31.9674C52.4466 32.2915 50.64 32.6165 48.8375 32.9397C48.0382 33.1014 47.238 33.263 46.4454 33.4238C45.423 33.6336 44.429 33.8993 43.3345 33.9307C42.9856 33.934 43.0518 33.7318 43.3051 33.5109C43.5475 33.3036 43.9979 33.0227 44.5758 32.9126C46.6333 32.4836 48.7075 32.052 50.8212 31.7364C52.0851 31.5435 53.3777 31.2312 54.6609 30.9841L58.9042 30.2047L61.5211 29.7528C62.8455 29.5404 64.1757 29.3272 65.4909 29.1165C66.515 28.9591 67.5089 28.7391 68.5355 28.6062L69.2091 28.5072C70.0646 28.4412 70.3447 28.5047 70.5276 28.7602C70.5695 28.8186 70.624 28.877 70.6475 28.9371C70.7264 29.1393 70.3883 29.323 69.7937 29.405C67.9501 29.6919 66.1116 29.9771 64.2386 30.269C62.8278 30.5017 61.4104 30.7353 59.9962 30.9689L59.9904 30.9469Z" fill="#191818"/>
<path fill-rule="evenodd" clip-rule="evenodd" d="M23.4275 46.591C25.0529 47.4296 26.6902 48.2505 28.3375 49.051L30.1551 49.8955C32.2771 50.9245 34.4008 51.9544 36.5212 52.9826C37.4639 53.4395 38.4218 53.8762 39.3662 54.3111C40.579 54.8756 41.8212 55.3901 42.9317 56.2109C43.2798 56.4614 43.1322 56.5663 42.7346 56.5486C42.5342 56.5409 42.2775 56.5012 41.9814 56.4352C41.6778 56.37 41.3264 56.2938 40.9883 56.1246C38.5417 54.9966 36.0154 53.971 33.573 52.7109C32.106 51.9696 30.5208 51.3265 28.9934 50.625C27.3142 49.8507 25.6443 49.0552 23.9785 48.2488L20.9129 46.7374C19.3671 45.9707 17.8363 45.1541 16.3107 44.3714C15.1297 43.7511 13.9353 43.207 12.7669 42.5757C12.5086 42.4369 12.2436 42.3269 11.9995 42.1568C11.076 41.5602 10.8479 41.27 10.8345 40.8697C10.8311 40.7792 10.8135 40.681 10.8278 40.604C10.8722 40.3552 11.3738 40.3958 12.085 40.7292C14.1911 41.7202 16.3174 42.9218 18.5241 44.0371C20.1505 44.8833 21.786 45.7423 23.4392 46.5614L23.4275 46.591Z" fill="#191818"/>
<path fill-rule="evenodd" clip-rule="evenodd" d="M42.7285 41.2737C42.6488 42.1343 42.5691 42.9966 42.4895 43.8555C42.4635 44.1695 42.4693 44.4843 42.44 44.7982C42.3402 45.9042 42.2395 47.0153 42.1389 48.1188C42.1028 48.6096 42.0827 49.1046 42.0768 49.5929C42.0692 50.2191 42.0952 50.8513 41.9879 51.4698C41.9258 51.8608 41.1374 51.3615 41.1038 50.627C41.0661 49.3365 41.098 48.0545 41.2825 46.7657C41.3873 45.9956 41.3639 45.1883 41.4083 44.3979L41.5761 41.7916L41.6893 40.188C41.7438 39.379 41.8143 38.5666 41.8369 37.761C41.852 37.1348 41.8117 36.5187 41.8067 35.8976C41.8059 35.7605 41.7958 35.626 41.8008 35.488C41.8084 35.2333 41.8377 35.0599 41.8965 34.9448C41.9258 34.8872 41.9627 34.8424 42.0105 34.8068C42.0617 34.7214 42.1456 34.6503 42.2194 34.6486C42.2882 34.641 42.3351 34.6604 42.3586 34.7036C42.3947 34.7798 42.3158 34.6012 42.3511 34.6824C42.4131 34.8229 42.4115 34.8136 42.4316 34.8432C42.466 34.8931 42.544 34.9363 42.6186 34.9041C42.6933 34.8263 42.7042 34.905 42.7335 34.9803C42.7587 35.0522 42.7771 35.1343 42.7889 35.2266C42.934 36.3292 42.9466 37.4995 42.8946 38.6656C42.8619 39.533 42.8124 40.4046 42.757 41.2737H42.7285Z" fill="#191818"/>
<path fill-rule="evenodd" clip-rule="evenodd" d="M26.3074 35.906C26.2772 36.6989 26.2596 37.4961 26.2537 38.2932C26.2604 38.5852 26.268 38.8712 26.2747 39.1648C26.2596 40.1913 26.2437 41.2254 26.2286 42.2502C26.2244 42.7071 26.2403 43.1675 26.2596 43.6219C26.2755 44.2083 26.3426 44.7973 26.1866 45.4032C26.1405 45.5902 25.9392 45.5301 25.7471 45.3575C25.5593 45.184 25.3739 44.9175 25.3647 44.5925C25.3462 43.4442 25.2925 42.2561 25.3596 41.0595C25.4041 40.3428 25.3294 39.5998 25.3177 38.867C25.3068 38.0597 25.3101 37.2524 25.316 36.4442C25.3244 35.9466 25.3328 35.4482 25.3412 34.9523C25.3655 34.1975 25.3898 33.4418 25.415 32.6938C25.4259 32.1116 25.3848 31.5353 25.4133 30.9556C25.4158 30.8287 25.4167 30.7026 25.4309 30.574C25.4838 30.0984 25.5651 29.9537 25.8017 29.8818C25.8553 29.8657 25.9098 29.842 25.9619 29.8361C26.138 29.8141 26.2638 30.0222 26.294 30.3666C26.3988 31.3855 26.3913 32.4407 26.3737 33.5104C26.3594 34.3058 26.346 35.1063 26.3326 35.9052L26.3074 35.906Z" fill="#191818"/>
<path fill-rule="evenodd" clip-rule="evenodd" d="M48.1918 8.0799C48.7772 7.89035 49.3652 7.75665 49.9548 7.6331C50.1696 7.5874 50.3734 7.50363 50.5906 7.47062C51.3555 7.34369 52.1347 7.28276 52.9014 7.18375C53.2436 7.14652 53.5791 7.07713 53.9146 7.02805C54.3465 6.96966 54.7827 6.91381 55.2314 6.93158C55.3706 6.93665 55.3463 6.91127 55.2406 6.96035C55.1324 7.00181 54.9613 7.18375 54.7399 7.31999C53.9641 7.83704 53.1597 8.2153 52.2882 8.38793C51.764 8.47848 51.2582 8.71627 50.7365 8.85759C50.1645 9.01498 49.5807 9.14192 49.0054 9.27985C48.6506 9.36363 48.2966 9.44656 47.9578 9.54557C47.6961 9.63103 47.4805 9.68265 47.3614 9.79689C47.2222 9.91791 47.1358 10.143 47.0905 10.3893C47.0268 10.7777 47.0704 11.1966 47.036 11.6298C47.0293 11.7254 47.0226 11.8253 47.0167 11.9175C46.9781 12.2814 46.8909 12.3948 46.88 12.4684C46.8749 12.4854 46.8716 12.5074 46.8708 12.5175C46.8716 12.553 46.8775 12.4024 46.7776 12.1528C46.5738 11.3996 45.9414 10.7176 46.2987 9.46433C46.3843 9.23839 46.5227 8.98875 46.734 8.80258C46.9269 8.61218 47.1526 8.50894 47.2884 8.43447C47.603 8.26777 47.8865 8.16114 48.18 8.04775L48.1918 8.0799Z" fill="#191818"/>
<path fill-rule="evenodd" clip-rule="evenodd" d="M40.3882 19.3086C40.4083 19.3932 40.3781 19.3264 40.3572 19.3425C40.332 19.3382 40.3211 19.3272 40.2842 19.3238C40.2054 19.3179 40.1408 19.2993 40.046 19.2934C39.8665 19.2765 39.6652 19.2638 39.4589 19.2528C39.3037 19.2485 39.162 19.301 39.0001 19.2866C38.4364 19.2384 37.83 19.1233 37.2328 19.0793C36.9661 19.0497 36.7069 19.07 36.4444 19.0624C36.1081 19.0446 35.7566 19.0234 35.4094 18.8686C35.3037 18.8229 35.3213 18.8686 35.4035 18.822C35.4882 18.789 35.6141 18.5589 35.7701 18.4108C36.3161 17.8243 36.894 17.4461 37.5834 17.4139C37.9961 17.4131 38.3886 17.1964 38.8156 17.1406C39.2895 17.0856 39.7692 17.0813 40.3354 17.1609C40.6549 17.193 41.2622 17.3818 41.539 17.7499C41.9852 18.2965 41.9844 18.828 42.0615 19.2655C42.1093 19.6124 42.168 19.9297 42.1244 20.2598C42.1186 20.3317 42.116 20.4011 42.1043 20.473C42.0674 20.7413 41.9953 20.8547 42.0053 20.9131C42.0045 20.9274 42.0087 20.9444 42.0112 20.9511C42.0322 20.9689 41.96 20.8894 41.7671 20.7328C41.5365 20.4832 41.2672 20.2132 41.0156 19.9695C40.8042 19.7182 40.5778 19.4939 40.4335 19.3433C40.374 19.2968 40.3194 19.2434 40.2725 19.2341C40.2481 19.2274 40.228 19.2121 40.2179 19.2198L40.2029 19.2214C40.1936 19.2282 40.202 19.2198 40.2305 19.1952C40.2523 19.1741 40.259 19.1741 40.2741 19.1614C40.322 19.1267 40.3807 19.0607 40.41 19.0226C40.4293 19.0048 40.4478 18.9803 40.4637 18.949C40.4587 18.9566 40.4562 18.9701 40.4562 18.9701V18.971V18.9718C40.4369 19.031 40.6264 18.4522 40.5459 18.6976L40.5451 18.6993L40.5442 18.7019L40.5417 18.7078L40.5325 18.7289L40.5165 18.7729L40.4587 18.9481C40.4251 19.0666 40.4016 19.1859 40.3882 19.3061V19.3086Z" fill="#191818"/>
<path fill-rule="evenodd" clip-rule="evenodd" d="M14.494 65.2932C16.9566 66.8596 19.4359 68.4115 21.9312 69.9356C22.8412 70.4933 23.7848 70.9925 24.6924 71.5527L34.291 77.5C35.7169 78.3699 37.1755 79.1992 38.619 80.0124C40.4785 81.0465 42.3187 82.1356 44.0725 83.361C44.6169 83.746 44.4164 83.9169 43.7915 83.8814C43.1692 83.8408 42.1031 83.6334 40.9943 83.1045C39.0207 82.1855 37.1218 81.1328 35.2271 80.0607C33.3323 78.9902 31.4519 77.8833 29.5932 76.7172C27.3663 75.3311 24.9583 74.0474 22.6458 72.6875C20.1052 71.1897 17.5773 69.6657 15.0568 68.1255C13.506 67.1761 11.9585 66.2224 10.4194 65.2441C9.83476 64.8803 9.25602 64.4927 8.67645 64.1102C8.38708 63.924 8.09855 63.7184 7.81002 63.5119C7.64562 63.39 7.40658 63.242 7.2338 63.0888L7.09289 62.9737C7.07024 62.9187 7.05766 62.8561 7.04005 62.7977C7.00314 62.6801 6.97378 62.5607 6.95617 62.4397C6.84629 61.9015 6.83707 61.6197 6.79597 61.2525L6.70958 60.2082C6.65842 59.516 6.60725 58.8255 6.55693 58.1375C6.3984 56.0017 6.14426 53.9157 6.02935 51.8002C6 51.3347 5.95806 50.8786 5.9438 50.4081C5.91109 49.5357 5.97903 48.9568 6.08723 48.5498C6.23233 48.1436 6.3984 47.9075 6.59803 47.7214C6.68945 47.6359 6.77332 47.5242 6.85217 47.4751C6.98553 47.393 7.10631 47.5293 7.26231 47.8407C7.41245 48.1529 7.63724 48.6404 7.71776 49.2683C8.00125 51.1342 8.23107 53.0543 8.4156 55.0014C8.58083 56.9427 8.70329 58.9364 8.88865 60.8641L8.9784 61.6874C8.9893 61.7103 8.9524 61.6781 9.00524 61.7196C9.55294 62.1173 10.1954 62.5083 10.7909 62.9052L14.5183 65.245L14.494 65.2932Z" fill="#191818"/>
<path fill-rule="evenodd" clip-rule="evenodd" d="M44.7269 72.0916L44.7009 75.0407C44.7034 75.3995 44.7554 75.7557 44.7521 76.1145C44.7353 77.3822 44.7185 78.6558 44.7017 79.9217C44.6959 80.4853 44.7294 81.0506 44.7705 81.6091C44.8158 82.3309 44.9366 83.04 44.7529 83.805C44.6975 84.0411 44.3696 83.976 44.0425 83.7771C43.7196 83.5791 43.3815 83.2702 43.3379 82.8666C43.2079 81.4483 43.062 79.9919 43.1777 78.5136C43.2457 77.6276 43.1022 76.7187 43.0678 75.8175L42.9915 72.8397L42.9563 71.005C42.9362 70.0784 42.9672 69.145 42.9269 68.2235C42.8925 67.5076 42.7718 66.8044 42.7634 66.0809C42.7609 65.9209 42.7449 65.7644 42.7516 65.6027C42.7843 65.0002 42.932 64.7971 43.301 64.7218C43.3866 64.7032 43.4721 64.6761 43.5552 64.671C43.8353 64.6558 44.0525 64.9173 44.1331 65.3133C44.2605 65.9175 44.4073 66.5446 44.4937 67.1852C44.5692 67.8249 44.6187 68.4774 44.6665 69.1357L44.7529 70.6065L44.7705 72.0882L44.7269 72.0916Z" fill="#191818"/>
<path fill-rule="evenodd" clip-rule="evenodd" d="M97.3042 72.211L84.7515 75.3826C83.2241 75.7643 81.7127 76.206 80.1828 76.569L63.9824 80.3745C61.5902 80.9567 59.1864 81.5414 56.8127 82.1186C53.7538 82.8345 50.7192 83.6892 47.5445 83.9913C46.5297 84.0437 46.6605 83.7399 47.4162 83.2847C48.1686 82.8006 49.5626 82.1296 51.308 81.6997C57.4871 80.1299 63.6972 78.5957 69.9937 77.191C73.7622 76.3541 77.6221 75.2345 81.4426 74.2411L94.0549 70.9907C96.6391 70.312 99.2258 69.6351 101.792 68.9149L103.341 68.4706L103.782 68.3395C103.833 68.3073 103.962 68.3175 103.94 68.2286L103.944 68.012C103.95 65.0883 103.955 62.1705 103.961 59.2773C103.949 56.1242 103.838 53.0296 103.862 49.8994C103.867 49.2097 103.863 48.5327 103.884 47.8371C104.012 45.2553 104.278 44.4252 104.861 43.9377C104.996 43.8269 105.133 43.6771 105.261 43.6204C105.701 43.4385 105.892 44.4895 105.907 46.341C105.986 51.8576 106.005 57.7084 105.999 63.5905C105.994 65.3058 105.989 67.0245 105.986 68.7491L105.843 69.1764L105.772 69.3896L105.736 69.4954L105.719 69.5487C105.872 69.6596 105.509 69.4015 105.546 69.4286L105.544 69.432L105.54 69.437L105.533 69.448L105.518 69.47L105.288 69.8195C105.227 69.9532 105.04 70.0065 104.922 70.103C104.64 70.2477 104.25 70.3391 103.969 70.4314L103.454 70.582L101.407 71.154L97.3226 72.2584L97.3042 72.211Z" fill="#191818"/>
<path fill-rule="evenodd" clip-rule="evenodd" d="M80.5978 48.1445L71.1417 50.2109L67.707 51.0284L55.5619 53.7507C53.7678 54.1603 51.9721 54.6071 50.2048 55.0657C47.9234 55.6099 45.6504 56.2411 43.3388 56.6287C42.6234 56.7658 42.6854 56.6643 43.2357 56.3368C43.5099 56.1709 43.9092 55.945 44.3915 55.6945C44.8712 55.4305 45.4491 55.1639 46.0975 54.9684L49.5372 53.8903C50.688 53.5476 51.8496 53.2447 53.0096 52.9358C55.3304 52.3113 57.6714 51.7519 60.0392 51.2594C62.8683 50.6611 65.7687 49.853 68.6422 49.1565L78.1385 46.9174C80.0886 46.4656 82.0396 46.0137 83.988 45.5618C86.9387 44.8738 89.9121 44.2163 92.8343 43.4962C95.1073 42.9436 97.3115 42.2962 99.5543 41.714C100.048 41.5845 100.527 41.4407 101.026 41.3197C101.96 41.1183 102.588 41.048 103.047 41.0869C103.502 41.1123 103.781 41.208 104.022 41.3713C104.132 41.4457 104.271 41.5101 104.341 41.5862C104.576 41.8308 103.876 42.2818 102.57 42.8141C98.63 44.0826 94.4002 45.0854 90.1385 46.056C86.9706 46.7643 83.7884 47.4759 80.612 48.1868L80.5978 48.1445Z" fill="#191818"/>
<path fill-rule="evenodd" clip-rule="evenodd" d="M21.2044 46.1897C22.9029 47.057 24.6106 47.9143 26.3309 48.7453L28.2315 49.6143C30.4483 50.684 32.6659 51.7544 34.8811 52.8232C35.8649 53.2963 36.8672 53.7498 37.857 54.1933C39.1251 54.778 40.4286 55.2967 41.586 56.1734C41.9484 56.4391 41.7781 56.5703 41.3487 56.5788C41.1331 56.583 40.8546 56.5585 40.5451 56.5018C40.2222 56.4468 39.849 56.3824 39.4967 56.2098C36.9402 55.0564 34.2898 54.0172 31.7433 52.6971C30.2134 51.922 28.551 51.2729 26.9532 50.5469C25.1977 49.7497 23.4489 48.9297 21.7085 48.0911L18.5028 46.5265C16.8874 45.7302 15.2879 44.8797 13.6943 44.0589C12.4621 43.4064 11.204 42.8589 9.98699 42.1701C9.71775 42.022 9.44432 41.8925 9.1843 41.725C8.23316 41.0539 8.01509 40.7188 8.05283 40.2636C8.06206 40.1595 8.05535 40.0478 8.08135 39.9606C8.16438 39.6763 8.70957 39.7135 9.43257 40.0715C11.594 41.1182 13.8025 42.3622 16.0948 43.5317C17.7924 44.405 19.4934 45.3028 21.2187 46.1541L21.2044 46.1897Z" fill="#191818"/>
<path fill-rule="evenodd" clip-rule="evenodd" d="M93.5994 33.4226C93.5994 34.295 93.6003 35.1692 93.6212 36.045C93.6288 36.3641 93.6892 36.678 93.6917 36.9979C93.6959 38.1267 93.7085 39.2573 93.6925 40.3904C93.6934 40.893 93.737 41.394 93.7873 41.8891C93.8586 42.5237 93.8947 43.1677 93.7622 43.8159C93.7185 44.0182 93.4585 44.0055 93.1658 43.8557C92.8781 43.7042 92.5258 43.4207 92.4319 43.0653C92.2474 42.434 92.1803 41.796 92.1283 41.1511C92.0796 40.5063 92.0377 39.859 92.0922 39.1972C92.1492 38.4068 91.9874 37.6038 91.937 36.8041L91.8095 34.1563L91.7508 32.523C91.7198 31.698 91.7232 30.8661 91.6535 30.0495C91.6074 29.4132 91.4447 28.7946 91.3709 28.1607C91.3633 28.0211 91.3382 27.8857 91.3449 27.7436C91.3499 27.6124 91.3617 27.5032 91.3826 27.4118C91.4128 27.3204 91.4766 27.2468 91.5269 27.1859C91.6359 27.064 91.7617 26.9946 91.9261 26.938C92.0008 26.9134 92.0712 26.8796 92.1383 26.8652C92.3489 26.8153 92.5955 27.026 92.8546 27.3932C92.957 27.6674 93.061 27.9424 93.1549 28.2217C93.217 28.5018 93.2614 28.7827 93.3067 29.0679C93.3906 29.6374 93.4443 30.2171 93.4912 30.8001C93.5567 31.6667 93.6103 32.5408 93.6456 33.4175L93.5994 33.4226Z" fill="#191818"/>
<path fill-rule="evenodd" clip-rule="evenodd" d="M65.64 31.4832C62.2875 32.0705 58.9342 32.6543 55.5951 33.2873L51.9575 34.043C49.8237 34.4763 47.6731 34.8909 45.5955 35.4376L44.8147 35.6398L44.1529 35.8556L43.9919 35.9055L43.9105 35.9292C43.9038 35.9538 43.9013 35.9826 43.8971 36.0088L43.8811 36.1746L43.8602 36.4751L43.6907 39.7745C43.6027 41.7301 43.549 43.6993 43.5163 45.6414C43.476 48.1369 43.4945 50.6468 43.2907 53.1321C43.1825 54.6841 41.8715 52.7023 41.8497 49.8132C41.848 47.2593 41.8732 44.7088 41.9403 42.1532C41.9688 40.8754 42.0309 39.5968 42.1013 38.3156L42.2204 36.387L42.2389 36.1112C42.2296 35.958 42.3026 35.8472 42.3336 35.716C42.4209 35.474 42.4771 35.1829 42.5995 35.0094L42.6197 34.9722L42.6247 34.9629L42.6272 34.9578C42.6499 34.973 42.441 34.8122 42.5316 34.8782L42.5492 34.8638L42.6213 34.8055L42.7648 34.6904C42.8579 34.6117 42.9476 34.5304 43.0969 34.4974L43.7973 34.2605C45.3406 33.7984 46.8478 33.4498 48.3827 33.0682C49.9134 32.7077 51.45 32.3353 52.9807 32.0239C56.3466 31.3224 59.7209 30.6894 63.0935 30.0547C65.1686 29.668 67.2462 29.2821 69.3204 28.8963C72.4599 28.3048 75.6211 27.7403 78.7203 27.0718C81.13 26.5531 83.4659 25.9311 85.8195 25.3286C86.3344 25.189 86.8394 25.051 87.3586 24.9097C89.2977 24.4333 89.9042 24.3393 90.4535 24.6736C90.5768 24.7472 90.7312 24.8107 90.8159 24.8945C91.1044 25.1754 90.3948 25.6831 88.9807 26.1917C84.7979 27.61 80.3005 28.6306 75.7738 29.5572C72.4112 30.2477 69.0294 30.8917 65.6534 31.5289L65.64 31.4832Z" fill="#191818"/>
<path fill-rule="evenodd" clip-rule="evenodd" d="M50.0239 18.7147L58.6438 17.2846C59.6939 17.1111 60.7348 16.8877 61.7865 16.7303C63.6435 16.4527 65.5047 16.1929 67.3835 15.9882C68.3279 15.8976 69.2665 15.8088 70.2386 15.7876L70.9776 15.7884L71.4431 15.8206C71.6284 15.8341 71.7928 15.8773 71.9681 15.9128C72.4093 15.8722 72.4244 16.3393 72.5628 16.6533C72.6156 16.8132 72.6995 17.0053 72.7264 17.1373L72.8102 17.5004C73.191 19.2199 73.2657 20.9462 73.259 22.6217C73.2581 24.777 73.1575 26.9028 73.1457 29.0031C73.1441 29.6564 72.8983 29.6022 72.5963 29.0572C72.2919 28.514 71.9463 27.457 71.8968 26.2122C71.8239 24.0112 71.8071 21.8466 71.6142 19.7877C71.5605 19.2732 71.4833 18.7697 71.3852 18.2763C71.3365 18.0318 71.2669 17.7898 71.2132 17.5545C71.2032 17.4961 71.2116 17.4834 71.2007 17.4428C71.1872 17.436 71.1738 17.4259 71.1579 17.4217C71.1478 17.42 71.1428 17.4174 71.1386 17.4132L71.1319 17.4081L71.0505 17.4013C70.8115 17.3971 70.5607 17.3946 70.3066 17.4013C69.7907 17.4174 69.2623 17.453 68.7314 17.491C66.1757 17.6891 63.5177 18.2442 60.9042 18.7054L52.2617 20.2658L46.9398 21.2441C44.2533 21.7408 41.5467 22.2062 38.882 22.7249C36.8086 23.1218 34.7973 23.6389 32.7356 24.0197C32.2827 24.1068 31.8407 24.205 31.3794 24.2735C30.5255 24.4072 29.9518 24.4445 29.5433 24.3988C29.1307 24.3319 28.8841 24.1982 28.6752 23.9833C28.5805 23.8851 28.4597 23.792 28.401 23.6947C28.2072 23.3808 28.8581 22.9543 30.0692 22.6547C33.6633 21.7569 37.4964 21.0046 41.3613 20.2692C44.2324 19.7268 47.1193 19.1801 50.0105 18.6673L50.0239 18.7147Z" fill="#191818"/>
<path fill-rule="evenodd" clip-rule="evenodd" d="M27.448 35.2878L27.3625 38.1041C27.3558 38.4476 27.3927 38.7887 27.3809 39.1314C27.3323 40.3423 27.2828 41.5592 27.2342 42.7676C27.2157 43.305 27.2258 43.8474 27.2442 44.3831C27.2568 45.0744 27.3449 45.765 27.1293 46.4825C27.0647 46.7051 26.7611 46.6222 26.4701 46.4123C26.1824 46.2008 25.8997 45.8902 25.8888 45.5069C25.8653 44.1597 25.8326 42.7651 25.9643 41.3612C26.0524 40.5192 25.9559 39.6467 25.9525 38.7861L25.9676 35.9428L25.9844 34.1911C25.9895 33.306 26.0297 32.4166 26.0113 31.5365C26.0054 30.8519 25.8905 30.18 25.8972 29.4937C25.8955 29.3431 25.8813 29.195 25.888 29.0427C25.9282 28.4732 26.0431 28.298 26.3912 28.2126C26.4701 28.1922 26.5497 28.1643 26.6269 28.1567C26.8894 28.1305 27.0924 28.375 27.1645 28.7719C27.2627 29.3634 27.386 29.9693 27.4195 30.5862C27.4547 31.2006 27.4782 31.831 27.4858 32.4598C27.5135 33.3965 27.4933 34.3409 27.4849 35.2861L27.448 35.2878Z" fill="#191818"/>
<path fill-rule="evenodd" clip-rule="evenodd" d="M20.6172 28.4166L20.5132 32.2027C20.5048 32.663 20.5442 33.1225 20.5308 33.5828C20.4721 35.2076 20.4134 36.8366 20.3547 38.4596C20.3329 39.1806 20.3454 39.9075 20.3689 40.6243C20.3874 41.5517 20.4931 42.464 20.254 43.4338C20.1802 43.7359 19.8388 43.6318 19.5126 43.3601C19.193 43.0944 18.865 42.6755 18.8516 42.1534C18.8139 40.3196 18.777 38.4427 18.9296 36.5556C19.0303 35.4242 18.9254 34.2514 18.9246 33.0946L18.9498 29.2781L18.9707 26.9273C18.9749 25.7409 19.0177 24.5486 18.9934 23.3689C18.9766 22.4516 18.8516 21.5521 18.8457 20.6356C18.8432 20.4334 18.8273 20.2353 18.834 20.0314C18.8659 19.2723 19.0101 19.0236 19.3985 18.9017C19.4882 18.8738 19.578 18.834 19.6652 18.8221C19.9596 18.7824 20.1869 19.1048 20.2649 19.6311C20.3807 20.4241 20.5283 21.2424 20.5685 22.0759C20.6172 22.9077 20.6407 23.7556 20.6574 24.6069C20.6893 25.8695 20.6692 27.1422 20.6591 28.4141L20.6172 28.4166Z" fill="#191818"/>
<path fill-rule="evenodd" clip-rule="evenodd" d="M43.4893 13.3746L37.7917 14.3342L35.7242 14.7463C33.2826 15.1719 30.8385 15.5984 28.3985 16.0241C27.3166 16.2204 26.2362 16.459 25.1719 16.6994C23.8039 17.0099 22.4417 17.3738 21.0419 17.5287C20.1712 17.6311 21.0226 16.2949 22.5902 15.9014C25.374 15.2303 28.1696 14.6193 31.0263 14.1708C32.7366 13.9136 34.4803 13.4693 36.214 13.1258L41.9443 12.0434L45.4772 11.4054C47.2587 11.0779 49.0569 10.7893 50.8208 10.4373C52.1939 10.1699 53.5224 9.80771 54.8745 9.49969C55.1723 9.43114 55.46 9.34821 55.7627 9.29067C56.8825 9.07742 57.2591 9.13581 57.5719 9.56231C57.6432 9.65878 57.7313 9.75271 57.7799 9.85426C57.9427 10.197 57.5317 10.5676 56.729 10.8012C54.3495 11.5035 51.7997 11.9571 49.2356 12.4183C47.3283 12.7492 45.4117 13.0818 43.4994 13.4135L43.4893 13.3746Z" fill="#191818"/>
<path fill-rule="evenodd" clip-rule="evenodd" d="M48.1804 7.15622C48.9067 7.04283 49.6339 6.92859 50.3578 6.81604C50.6211 6.77542 50.8761 6.70011 51.1403 6.66626C52.0688 6.55794 53.0049 6.44962 53.9317 6.34131C54.3435 6.29223 54.7511 6.20845 55.1596 6.14837C55.6838 6.06375 56.2005 5.94527 56.7708 6.02482C56.9579 6.05528 56.9168 6.26092 56.7943 6.4784C56.671 6.69503 56.4639 6.94805 56.1778 7.02252C55.1646 7.29754 54.1179 7.48625 53.0384 7.55564C52.3917 7.60049 51.7501 7.80274 51.1068 7.93475C50.4005 8.0803 49.6926 8.2267 48.9856 8.37225C48.5528 8.46787 48.1217 8.56688 47.7023 8.68704L47.1101 8.8639C47.0413 8.8876 46.9692 8.91129 46.908 8.95445C46.8375 8.99845 46.8744 9.089 46.8602 9.15839L46.8568 9.29463L46.8593 9.52819C46.8694 10.0579 46.9726 10.5784 47.059 11.0836C47.0791 11.1936 47.116 11.3019 47.116 11.4085C47.1168 11.6099 47.1093 11.725 47.0162 11.8164C46.8929 11.901 46.7528 11.9687 46.5817 12.0381C46.5029 12.0719 46.4333 12.1168 46.3653 12.1489C46.2496 12.2031 46.1347 12.2056 45.977 12.1219C45.8277 12.0449 45.6172 11.9095 45.5786 11.7301C45.3773 11.2579 45.3521 10.8043 45.3328 10.3499C45.3269 10.1231 45.3311 9.89714 45.3395 9.67374L45.3571 9.34033L45.3697 9.09154C45.3748 8.97899 45.3823 8.86729 45.3966 8.75897C45.4041 8.5965 45.4502 8.45941 45.4989 8.32401C45.675 8.2377 45.6138 8.00668 45.7866 7.92883C45.904 7.81374 46.0676 7.73081 46.2236 7.65126C46.3938 7.58864 46.5607 7.51418 46.7352 7.46594L47.0564 7.37539C47.4364 7.27723 47.8046 7.19938 48.1711 7.12322L48.1804 7.15622Z" fill="#191818"/>
<path fill-rule="evenodd" clip-rule="evenodd" d="M41.2872 18.1103C40.5726 18.1653 39.8387 18.255 39.1098 18.3616C38.8431 18.4014 38.5847 18.4793 38.318 18.5173C37.3761 18.6527 36.4292 18.7864 35.4906 18.9531C35.0737 19.0268 34.6636 19.1393 34.2534 19.2324C33.7284 19.361 33.2117 19.5218 32.6481 19.5243C32.4677 19.5235 32.4594 19.317 32.5533 19.0801C32.6481 18.8457 32.8452 18.5613 33.1371 18.4573C34.1687 18.0722 35.2415 17.8133 36.3554 17.6897C37.0213 17.6136 37.6797 17.3893 38.3474 17.2472C39.0821 17.0931 39.8211 16.956 40.5709 16.8367L41.2679 16.736C41.4508 16.7157 41.8886 16.6463 42.1905 16.6556C42.4103 16.6556 42.6116 16.6861 42.7634 16.8029C42.9479 16.901 42.9513 17.1244 43.0217 17.3233C43.1308 17.958 43.187 18.2533 43.275 18.6544C43.395 19.1859 43.6038 19.6919 43.7716 20.2216C43.8085 20.3384 43.8622 20.4518 43.8747 20.5754C43.9024 20.8047 43.9007 20.9663 43.8102 21.089C43.6843 21.2176 43.5434 21.2913 43.3572 21.3471C43.2734 21.3708 43.1945 21.3953 43.1224 21.4013C42.9982 21.4114 42.8859 21.3632 42.7491 21.3133C42.6149 21.2566 42.4145 21.1669 42.37 21.0255C41.928 20.1819 41.829 19.1791 41.6864 18.1873C41.6688 18.112 41.6915 18.1619 41.6781 18.1501C41.6932 18.1408 41.6932 18.1315 41.6898 18.1221C41.6881 18.1171 41.6831 18.1137 41.6772 18.1086L41.2939 18.1441L41.2872 18.1103Z" fill="#191818"/>
<path fill-rule="evenodd" clip-rule="evenodd" d="M81.018 68.2461C79.3799 68.6159 77.7393 68.9451 76.0987 69.265C75.4999 69.3809 74.9127 69.5485 74.3114 69.6517C73.252 69.8345 72.1885 70.0004 71.1199 70.1485C70.5856 70.2212 70.0505 70.2949 69.5095 70.3515L68.6917 70.4209L68.274 70.4463C68.1549 70.4438 67.8874 70.4709 67.7079 70.4573C67.5301 70.4539 67.3615 70.4311 67.2021 70.3795C67.1627 70.3676 67.1191 70.3549 67.083 70.3363L67.0017 70.2382L66.8389 70.0418C66.6402 69.7753 66.4741 69.4072 66.3868 69.1008C66.2266 68.5669 66.1738 68.0397 66.1545 67.5353C66.1361 66.8879 66.1478 66.2601 66.2065 65.6542C66.2703 65.0491 66.365 64.4652 66.4179 63.894C66.4514 63.5437 66.7098 63.5344 67.0268 63.8424C67.3397 64.1462 67.6961 64.8062 67.7356 65.5264C67.7842 66.1627 67.7238 66.7652 67.7624 67.3212C67.7783 67.5962 67.7959 67.867 67.8412 68.1057C67.8572 68.2318 67.8882 68.3418 67.9151 68.4526C67.926 68.5102 67.9444 68.5601 67.9637 68.6083C67.9872 68.6616 67.9578 68.6312 67.9671 68.6447C67.9654 68.6566 67.9561 68.6946 67.9746 68.7116C67.983 68.72 67.9939 68.7276 68.0082 68.7353C67.9905 68.7429 68.0711 68.7361 68.1449 68.7302L68.3587 68.7107C68.9392 68.6523 69.5464 68.5821 70.1595 68.5406C71.6274 68.4205 73.1187 68.0168 74.5982 67.7164C76.2271 67.383 77.8567 67.042 79.4764 66.6629C80.4736 66.4293 81.4692 66.1907 82.4514 65.9148C83.9301 65.4891 85.4525 65.0736 86.7785 64.4254C86.9043 64.362 87.0276 64.2951 87.14 64.224C87.2356 64.1656 87.2835 64.1259 87.348 64.07C87.4059 64.0159 87.4621 63.9609 87.4931 63.8898C87.5267 63.817 87.499 63.7307 87.4948 63.6562L87.4789 63.5454L87.4629 63.3372L87.4218 62.9048L87.3145 62.0518C87.2776 61.8047 87.2197 61.566 87.1794 61.3283C87.0528 60.4363 87.1727 60.2476 87.5703 59.8634C87.6559 59.7704 87.7431 59.6764 87.8261 59.5859C88.0928 59.2643 88.7135 59.6146 89.044 60.4194C89.2939 61.0016 89.3703 61.5914 89.4558 62.1745C89.4927 62.4673 89.517 62.7601 89.5347 63.0554L89.5523 63.498L89.5548 63.619C89.5472 63.685 89.5498 63.7527 89.5472 63.8204C89.5397 63.9532 89.5506 64.0937 89.5279 64.2223C89.4877 64.747 89.2017 65.2319 88.7664 65.5551C88.5651 65.7185 88.3009 65.8894 88.1021 65.996C87.9503 66.0823 87.806 66.1543 87.6601 66.2262C87.0855 66.5004 86.5311 66.7102 85.975 66.9049C84.3285 67.4761 82.6754 67.8687 81.0331 68.2918L81.018 68.2461Z" fill="#191818"/>
<path fill-rule="evenodd" clip-rule="evenodd" d="M7.23781 58.8226C7.23781 58.8226 2.95683 57.5533 0.344968 59.6147C-1.97334 61.4451 7.45505 70.9524 26.7622 74.2908L7.64796 62.5875L7.23781 58.8226Z" fill="#191818"/>
<path fill-rule="evenodd" clip-rule="evenodd" d="M78.2938 47.2894L69.8475 49.2255L66.7802 49.988L55.9361 52.5495C54.3332 52.9311 52.7303 53.3534 51.1518 53.7782C49.1153 54.291 47.0864 54.8741 45.0197 55.2506C44.3806 55.381 44.4385 55.2913 44.93 55.001C45.1766 54.8521 45.5314 54.6532 45.9625 54.4281C46.3911 54.1903 46.9069 53.9534 47.4856 53.7723C49.5272 53.0877 51.5779 52.4479 53.6563 51.8954C55.7289 51.3174 57.8182 50.7893 59.9327 50.3256C62.4598 49.7586 65.0491 49.0123 67.6173 48.3649L76.0987 46.2764L81.3242 45.0155C83.9603 44.3733 86.6175 43.7623 89.2285 43.098C91.2583 42.5818 93.231 41.9996 95.2306 41.4555C95.671 41.3345 96.0996 41.2042 96.5466 41.095C97.3778 40.9037 97.9373 40.8301 98.3466 40.8547C98.7542 40.8665 99.0025 40.9427 99.2197 41.0781C99.3187 41.1398 99.4428 41.1923 99.5066 41.2558C99.7179 41.4606 99.0956 41.8625 97.9289 42.3474C94.4053 43.5076 90.625 44.4376 86.818 45.3397C83.9872 46.0006 81.1438 46.6631 78.3063 47.3249L78.2938 47.2894Z" fill="#191818"/>
<path fill-rule="evenodd" clip-rule="evenodd" d="M59.4682 22.7052C59.9211 22.6485 60.3757 22.5918 60.8261 22.536C60.9905 22.5131 61.1507 22.4666 61.316 22.4471C61.8972 22.3811 62.4885 22.3143 63.0648 22.2483C63.3231 22.2203 63.5789 22.1687 63.8305 22.1146C64.1535 22.0435 64.4722 21.9445 64.8119 21.9614C65.0232 21.9673 64.8865 22.635 64.5208 22.7492C63.8683 22.9252 63.2132 23.0902 62.5229 23.1038C62.1111 23.119 61.7043 23.2426 61.2933 23.312C60.8437 23.383 60.3891 23.4558 59.9371 23.5277C59.6578 23.5726 59.3768 23.6183 59.1 23.6623C58.6303 23.7402 58.2369 23.7275 57.8117 23.8104C57.4887 23.8654 57.1792 23.9746 56.8639 24.0626C56.7943 24.082 56.7272 24.11 56.6567 24.1243C56.395 24.1793 56.3019 24.1311 56.2088 23.895C56.1878 23.8417 56.1627 23.7892 56.1467 23.7342C56.0931 23.5506 56.1778 23.378 56.3648 23.2942C56.9176 23.0429 57.5223 22.9295 58.1438 22.8474C58.3661 22.8135 58.6429 22.8034 58.798 22.7856L59.4632 22.6832L59.4682 22.7052Z" fill="#191818"/>
<path fill-rule="evenodd" clip-rule="evenodd" d="M56.6062 27.6809C57.4164 27.5548 58.2275 27.4288 59.0352 27.3035C59.3313 27.246 59.6198 27.1901 59.9159 27.1334C60.9551 26.9625 62.001 26.7907 63.0369 26.6206C63.499 26.5436 63.9578 26.4412 64.4099 26.3363C64.9903 26.2 65.5674 26.035 66.1662 25.9842C66.5387 25.9479 66.2157 26.6655 65.5531 26.8567C64.373 27.169 63.1887 27.4651 61.9608 27.6022C61.2277 27.6928 60.4871 27.8899 59.7473 28.0287L57.3023 28.4603L55.7968 28.7184C55.0377 28.8521 54.2711 28.9689 53.5213 29.1195C52.9383 29.238 52.3764 29.4047 51.8043 29.5494C51.6794 29.5815 51.5527 29.6146 51.4286 29.6467C50.9547 29.7466 50.792 29.7127 50.6477 29.4885C50.615 29.4368 50.5756 29.3878 50.5521 29.3344C50.4741 29.1551 50.6418 28.9655 50.9798 28.8479C51.9847 28.5035 53.0667 28.2801 54.1579 28.0753C54.9698 27.9373 55.7859 27.7977 56.6011 27.6589L56.6062 27.6809Z" fill="#191818"/>
</svg>
